<svg width="168" height="129" viewBox="0 0 168 129" fill="none" xmlns="http://www.w3.org/2000/svg">
<path d="M154.631 71.4175H135.928C134.771 71.4175 133.832 70.4794 133.832 69.3217V59.9851C133.832 58.8274 134.771 57.8894 135.928 57.8894H154.631C155.788 57.8894 156.726 58.8274 156.726 59.9851V69.3217C156.726 70.4794 155.788 71.4175 154.631 71.4175Z" fill="#0DAAFF"/>
<path d="M145.274 76.7075L148.238 69.683H142.311L145.274 76.7075Z" fill="#0DAAFF"/>
<path d="M145.207 62.3306H150.561V63.114L153.186 61.6005L150.561 60.0873V60.8707H145.207V62.3306Z" fill="#04377D"/>
<path d="M153.186 65.4095H147.832V64.6261L145.207 66.1393L147.832 67.6528V66.869H153.186V65.4095Z" fill="white"/>
<path d="M141.921 66.7863L141.666 66.8793C141.666 66.8793 140.872 65.9723 140.46 64.9843C140.047 63.9968 140.033 62.7905 140.033 62.7905L140.219 62.7125L139.087 60.0031C138.885 60.1607 138.693 60.3636 138.537 60.6264C137.897 61.7091 137.96 63.3706 138.605 64.994C139.249 66.6169 139.938 68.0647 141.196 68.9751C141.938 69.5124 142.573 69.6067 143.067 69.5283L141.921 66.7863Z" fill="#04377D"/>
<path d="M142.733 66.4671L142.381 66.595L143.54 69.3689C143.671 69.3261 143.788 69.2733 143.89 69.2176C144.189 69.0537 144.321 68.6936 144.195 68.3768L143.589 66.8515C143.455 66.5128 143.075 66.3422 142.733 66.4671Z" fill="#04377D"/>
<path d="M139.973 59.5279C139.831 59.579 139.675 59.6486 139.52 59.7408L140.676 62.5081L141.065 62.3454C141.402 62.2042 141.566 61.8198 141.433 61.479L140.825 59.919C140.693 59.5799 140.315 59.4047 139.973 59.5279Z" fill="#04377D"/>
<path d="M35.0708 115.79V84.5711C35.0708 84.5711 34.7238 76.1587 39.1467 73.7306C43.5691 71.3024 62.2142 72.6035 62.2142 72.6035V115.79H35.0708Z" fill="#0084FF"/>
<path d="M68.0376 43.378C68.0376 43.378 66.9105 52.8307 66.4767 53.6112L66.0433 54.3916L63.875 55.8658C63.875 55.8658 68.0376 61.7628 73.1542 62.7168C78.2707 63.6708 77.8369 60.6357 77.8369 60.6357L77.0565 58.988L78.0972 49.9687C78.0972 49.9687 68.8181 45.7194 68.0376 43.378Z" fill="#FF9E8C"/>
<path d="M61.1875 56.6463L64.5696 55.1721C64.5696 55.1721 66.7375 58.7278 71.7673 60.8089C76.7971 62.89 76.8839 61.6761 77.1442 60.8089C77.404 59.9417 77.0574 58.9877 77.0574 58.9877L77.4296 55.9513L79.4407 56.6216L86.4233 113.101L68.4719 113.969L61.1875 56.6463Z" fill="white"/>
<path d="M77.748 56.0103C77.748 56.0103 78.9619 58.814 80.0894 65.4051C81.2169 71.9959 82.2577 83.0962 82.518 90.7277C82.7779 98.3592 82.9514 115.79 82.9514 115.79H105.586C105.845 115.79 107.407 107.205 107.407 107.205C107.407 107.205 97.5207 98.7348 97.0005 97.3474C96.6534 96.4223 96.827 79.2803 95.3524 71.3889C93.8778 63.4972 91.9707 61.9073 87.9812 59.9415C83.8584 57.9099 77.748 56.0103 77.748 56.0103Z" fill="#04377D"/>
<path d="M89.5434 105.854C89.4277 105.854 89.3338 105.76 89.3338 105.644C89.3338 105.024 89.2236 96.2147 89.1171 87.6955C89.0106 79.175 88.9004 70.3644 88.9004 69.7415C88.9004 69.6254 88.9939 69.532 89.11 69.532C89.2257 69.532 89.3195 69.6254 89.3195 69.7415C89.3195 70.3615 89.4298 79.1708 89.5358 87.69C89.6427 96.2105 89.7529 105.021 89.7529 105.644C89.7529 105.76 89.6591 105.854 89.5434 105.854Z" fill="#8094B9"/>
<path d="M44.447 103.736L44.2734 115.79H70.6368C70.6368 115.79 71.7639 105.557 71.3305 104.603C70.8971 103.649 44.447 103.736 44.447 103.736Z" fill="#04377D"/>
<mask id="mask0_45210_5088" style="mask-type:luminance" maskUnits="userSpaceOnUse" x="68" y="44" width="11" height="12">
<path d="M68.7617 44.3998H78.0962V55.3313H68.7617V44.3998Z" fill="white"/>
</mask>
<g mask="url(#mask0_45210_5088)">
<path d="M73.7894 53.3507C74.8637 54.2167 76.3333 54.9116 77.4775 55.332L78.0966 49.9686C78.0966 49.9686 71.1266 46.7755 68.7617 44.4001C69.2559 47.0991 70.4714 50.6757 73.7894 53.3507Z" fill="#8A9CBE"/>
</g>
<path d="M86.2506 25.7734C86.2506 25.7734 88.0718 28.8956 88.4185 32.7112C88.7655 36.5267 88.4185 46.3264 85.2966 50.489C82.1744 54.6516 75.6704 53.4373 72.7221 50.9224C70.0161 48.6146 67.3452 46.0662 66.6515 41.0363C65.9578 36.0065 68.1257 26.4671 74.283 24.4727C80.4403 22.478 86.2506 25.7734 86.2506 25.7734Z" fill="#FF9E8C"/>
<path d="M94.0706 110.338C94.0706 110.338 93.765 110.338 93.2993 110.326C93.1903 110.322 93.0688 110.326 92.943 110.322C92.4945 110.309 91.9496 110.296 91.4006 110.28C91.279 110.276 91.1533 110.271 91.0317 110.267C90.4868 110.255 90.0216 110.322 89.5856 110.296H89.5735C89.4808 110.292 89.3467 110.305 89.2377 110.309C89.1833 110.313 89.133 110.317 89.0994 110.313C88.8479 110.267 88.7976 110.208 88.5256 110.087C88.1731 109.928 83.4073 108.863 79.5302 108.888C75.6572 108.905 72.1825 109.169 71.6166 108.695C71.0466 108.213 70.7029 103.347 74.01 103.028L78.0757 104.571C78.0757 104.571 87.3599 103.468 90.7635 105.979C94.1753 108.49 94.0706 110.338 94.0706 110.338Z" fill="#FF9E8C"/>
<path d="M89.5767 110.296C89.4841 110.292 89.3504 110.305 89.241 110.309C89.1576 110.175 88.9811 109.932 88.8851 109.831C87.8372 108.762 85.3056 108.07 84.3872 107.848C84.3038 107.827 84.2489 107.743 84.2703 107.66C84.287 107.576 84.375 107.526 84.4631 107.543C85.7997 107.865 88.6378 108.691 89.4426 110.045C89.4673 110.082 89.5344 110.213 89.5767 110.296Z" fill="#04377D"/>
<path d="M91.402 110.279C91.2804 110.276 91.1547 110.273 91.0331 110.266C89.8893 108.179 88.0169 107.581 85.7036 106.836L85.5666 106.791C85.4878 106.764 85.4391 106.674 85.4668 106.591C85.4936 106.513 85.5787 106.464 85.6659 106.492L85.7992 106.536C88.2454 107.322 90.2133 107.952 91.402 110.279Z" fill="#04377D"/>
<path d="M93.3008 110.326C93.1918 110.323 93.0703 110.324 92.9441 110.321C92.2504 108.862 89.9539 106.42 86.9154 105.851C86.8278 105.837 86.7708 105.756 86.7855 105.668C86.8044 105.584 86.8853 105.528 86.9691 105.543C90.0989 106.13 92.6239 108.687 93.3008 110.326Z" fill="#04377D"/>
<path d="M68.7345 36.7441C68.7345 36.7441 70.6425 35.8333 71.9867 33.2752C73.3305 30.7171 73.1574 28.4189 73.1574 28.4189C73.1574 28.4189 75.5856 28.0287 79.228 29.1126C82.87 30.1965 87.2061 31.6707 90.8481 29.5896C94.491 27.5081 94.491 24.1696 92.7129 22.7818C90.7219 21.228 86.7727 22.1748 86.7727 22.1748C86.7727 22.1748 88.29 20.7007 87.4664 19.8335C86.6423 18.9662 83.6504 20.0937 83.6504 20.0937C83.6504 20.0937 80.0084 17.1886 73.1138 17.5352C66.2196 17.8823 62.9243 22.695 62.534 28.0719C62.1438 33.4487 64.0949 38.8252 64.0949 38.8252L68.7345 36.7441Z" fill="#04377D"/>
<mask id="mask1_45210_5088" style="mask-type:luminance" maskUnits="userSpaceOnUse" x="80" y="37" width="5" height="9">
<path d="M80.9297 37.9424H84.5176V45.5894H80.9297V37.9424Z" fill="white"/>
</mask>
<g mask="url(#mask1_45210_5088)">
<path d="M82.7124 38.0477C82.3218 39.011 82.3314 40.1292 82.2329 41.1516C82.1566 41.9467 82.0103 42.8738 82.7388 43.4108C83.0871 43.6673 84.7331 44.3589 83.8865 44.9193C83.5637 45.1331 83.0226 45.0748 82.6554 45.0576C82.4022 45.0459 82.1466 45.035 81.8938 45.0161C81.6218 44.996 81.3556 44.9139 81.0832 44.9126C80.9235 44.9118 80.874 45.1243 81.004 45.2056C81.442 45.4797 82.0837 45.564 82.5942 45.5837C83.1047 45.6038 83.451 45.5803 83.9104 45.3523C84.1933 45.2119 84.4674 45.0136 84.5118 44.6775C84.5626 44.2994 84.2788 43.9603 83.9942 43.749C83.666 43.5059 83.2636 43.3928 82.9325 43.1559C82.4735 42.8269 82.5116 42.2736 82.5439 41.7606C82.621 40.5279 82.9048 39.3161 83.015 38.0888C83.0318 37.901 82.7724 37.901 82.7124 38.0477Z" fill="#8A9CBE"/>
</g>
<path d="M86.2618 40.9308C86.1323 41.6618 85.6008 42.179 85.0739 42.0855C84.5475 41.9925 84.2256 41.3239 84.3547 40.5933C84.4842 39.8623 85.0157 39.3451 85.5425 39.4382C86.069 39.5316 86.3913 40.1998 86.2618 40.9308Z" fill="#04377D"/>
<path d="M79.6264 40.3517C79.5091 41.1405 78.9537 41.711 78.3853 41.6268C77.8169 41.5421 77.4514 40.8341 77.5688 40.0457C77.6862 39.2569 78.242 38.686 78.8103 38.7707C79.3783 38.8553 79.7438 39.5633 79.6264 40.3517Z" fill="#04377D"/>
<path d="M84.7189 37.9176C85.1242 37.9859 85.5329 37.9164 85.942 37.9449C86.0401 37.952 86.1373 37.9662 86.2354 37.9759C86.305 37.9822 86.1055 37.9549 86.2023 37.9709C86.2233 37.9746 86.2442 37.978 86.2648 37.9813C86.3163 37.9906 86.3675 38.001 86.4178 38.0136C86.5049 38.0346 86.5892 38.0673 86.6764 38.0865C86.7552 38.1037 86.8432 38.1222 86.9232 38.1184C86.9677 38.1125 87.0121 38.1067 87.0565 38.1008C87.0289 38.1054 87.0004 38.1104 86.9727 38.1159C86.9723 38.1255 87.1244 38.1008 87.1383 38.0979C87.3709 38.0434 87.5147 37.7743 87.4497 37.55C87.4308 37.4851 87.4019 37.4264 87.3613 37.3731C87.3441 37.3501 87.3265 37.3279 87.308 37.3057C87.3244 37.3241 87.3407 37.343 87.3571 37.3618C87.3399 37.3375 87.3219 37.314 87.303 37.2906C87.2799 37.252 87.2493 37.221 87.2104 37.1979C87.1781 37.1732 87.1462 37.1468 87.1127 37.1233C87.005 37.0487 86.8637 37.0051 86.7363 36.9724C86.4945 36.91 86.2409 36.8786 85.9915 36.8769C85.7433 36.8756 85.4986 36.9016 85.2533 36.9356C85.0375 36.9657 84.7969 37.0391 84.6213 37.1694C84.4855 37.2705 84.4021 37.4 84.4259 37.5773C84.4456 37.724 84.5613 37.8912 84.7189 37.9176Z" fill="#04377D"/>
<path d="M80.0947 36.7577C80.0398 36.725 79.9832 36.6965 79.9253 36.6701C79.8763 36.6475 79.7418 36.5771 79.8432 36.6328C79.8063 36.6123 79.7694 36.5921 79.7321 36.5733C79.5636 36.4886 79.3893 36.432 79.2082 36.3855C78.8121 36.2849 78.3954 36.2593 77.9901 36.3021C77.5571 36.3474 77.1615 36.4522 76.7867 36.6785C76.7339 36.7103 76.6794 36.7414 76.6354 36.7858C76.6057 36.8235 76.5763 36.8617 76.5478 36.8998C76.5558 36.8872 76.5642 36.8747 76.5721 36.8625C76.4564 36.943 76.3894 37.0758 76.3906 37.2154C76.3915 37.3504 76.4615 37.4627 76.578 37.5277C76.7197 37.6065 76.8538 37.5688 76.9992 37.531H76.78C76.9003 37.5499 76.985 37.5545 77.1066 37.5277C77.1107 37.5269 77.2235 37.4992 77.1493 37.5147C77.0797 37.5294 77.2671 37.5 77.2876 37.4975C77.3115 37.4937 77.4423 37.4812 77.3044 37.4946C77.3295 37.4916 77.3551 37.4887 77.3803 37.4854C77.4456 37.4774 77.511 37.4694 77.5768 37.4644C77.8631 37.4413 78.1481 37.4284 78.4353 37.4191C78.7014 37.4103 78.9722 37.4082 79.2384 37.4196C79.3528 37.4246 79.466 37.4284 79.58 37.4317C79.6441 37.4334 79.6168 37.4434 79.5733 37.4296C79.5967 37.4367 79.6206 37.4413 79.6445 37.4476C79.6919 37.461 79.738 37.4761 79.7841 37.4937C79.9689 37.5646 80.1907 37.4309 80.2594 37.2607C80.3336 37.0754 80.2707 36.8625 80.0947 36.7577Z" fill="#04377D"/>
<path d="M82.15 48.8125C82.5478 48.0128 83.2721 47.426 84.1091 47.0487C83.3823 46.975 79.952 46.6573 79.086 47.1489C78.1165 47.6997 79.2654 49.9107 81.2706 50.0214C81.4815 50.0331 81.673 50.0163 81.8558 49.9874C81.8721 49.5838 81.9652 49.1843 82.15 48.8125Z" fill="#04377D"/>
<path d="M66.3027 44.1585C66.3027 44.1585 66.6498 45.5028 68.6441 47.0637C70.6389 48.6246 73.5293 49.7664 73.5293 49.7664L73.7607 48.7545C73.7607 48.7545 70.7688 47.4539 69.3814 46.0229C67.9936 44.5924 67.8205 43.8115 67.8205 43.8115L66.3027 44.1585Z" fill="#DEE2EC"/>
<path d="M74.1068 48.0061C75.7121 47.9315 76.6079 49.2007 76.7198 50.0218C76.8317 50.8433 76.0604 51.7638 74.256 50.9553C72.0148 49.9506 72.5019 48.0807 74.1068 48.0061Z" fill="#04377D"/>
<path d="M67.5617 34.2289C67.5617 34.2289 68.2546 29.2452 71.5944 25.8602C77.9684 19.3998 83.388 19.7896 83.388 19.7896C83.388 19.7896 83.3449 18.8792 81.3065 18.1855C79.3935 17.5342 78.5317 17.8821 78.5317 17.8821C78.5317 17.8821 73.2852 18.3155 68.8628 23.2153C64.4399 28.1152 63.9629 34.3589 63.9629 34.3589L67.5617 34.2289Z" fill="#DEE2EC"/>
<path d="M67.0828 33.6221C62.9073 32.9146 60.5789 36.1806 60.4053 39.4759C60.2318 42.7713 62.6264 45.2766 65.8254 45.0259C73.0231 44.4622 72.1994 34.4893 67.0828 33.6221Z" fill="white"/>
<path d="M65.0044 41.8235C63.9024 41.8235 62.9702 41.2698 62.4379 40.294C61.8675 39.2491 61.9152 37.9627 62.5599 37.0171C62.6089 36.9458 62.7066 36.927 62.7783 36.9756C62.8499 37.0246 62.8688 37.1223 62.8198 37.1944C62.2409 38.0432 62.1994 39.2009 62.7141 40.1435C63.202 41.0376 64.0638 41.5443 65.0844 41.5079C66.0384 41.4827 66.847 41.046 67.3613 40.2789C67.9481 39.4037 68.0831 38.1945 67.705 37.1994C67.3298 36.2119 66.3017 35.5387 65.3661 35.6611C65.2819 35.6724 65.201 35.6121 65.1896 35.5262C65.1783 35.4402 65.2387 35.361 65.3246 35.3497C66.4186 35.2038 67.5675 35.9512 67.9992 37.0875C68.4121 38.1752 68.2641 39.4968 67.6224 40.4537C67.0498 41.3079 66.1516 41.7937 65.0928 41.8222C65.0635 41.8231 65.0337 41.8235 65.0044 41.8235Z" fill="#7C90B6"/>
<path d="M61.9692 55.4322C61.9692 55.4322 49.3079 58.5541 44.8854 63.5839C40.4625 68.6137 38.3815 93.4161 38.2947 98.0121C38.2079 102.609 41.4165 104.517 43.3245 105.817C45.2321 107.118 53.644 109.459 60.4083 109.807C67.1725 110.153 73.5902 109.807 73.5902 109.807C73.5902 109.807 73.5684 108.332 74.6087 106.164C75.574 104.153 76.7983 103.736 76.7983 103.736L70.9885 101.655C70.9885 101.655 69.9708 83.424 68.3868 74.5979C66.5656 64.4511 61.9692 55.4322 61.9692 55.4322Z" fill="#04377D"/>
<path d="M82.9533 98.7419C82.9248 98.7419 82.8959 98.7361 82.8687 98.7239C82.7626 98.677 82.7148 98.5533 82.7618 98.4477C83.948 95.771 85.1773 90.5165 85.8694 86.8301L85.9264 86.5321C86.1359 85.4477 86.3966 84.0989 85.8765 83.1684C85.6112 82.6935 85.0118 81.6632 84.4354 80.6728C83.8373 79.6442 83.2727 78.673 83.1159 78.3834C82.8104 77.8171 83.7719 76.3048 85.1639 74.2304C85.5399 73.6696 85.8647 73.1855 86.0542 72.8577C86.5505 71.9993 86.2202 71.2129 85.8379 70.3021L85.7076 69.9886C85.3609 69.1377 84.9669 68.2852 84.5863 67.4607C84.4304 67.1237 84.2745 66.7867 84.1211 66.4476C83.9178 65.9995 83.7132 65.5435 83.5062 65.082C82.281 62.3504 81.0135 59.5253 79.391 56.7966C79.3314 56.6973 79.3645 56.5686 79.4639 56.5095C79.5632 56.4508 79.6919 56.4831 79.751 56.5825C81.3861 59.3321 82.6582 62.1681 83.8884 64.9106C84.0955 65.3716 84.2996 65.8268 84.5025 66.2749C84.6559 66.6127 84.8114 66.9489 84.9665 67.2851C85.3496 68.1137 85.7453 68.9709 86.0957 69.8306L86.2244 70.1403C86.6142 71.0687 87.0174 72.029 86.4172 73.0673C86.2206 73.4076 85.8924 73.8972 85.5118 74.4634C84.7863 75.5453 83.2761 77.797 83.4848 78.1838C83.6382 78.468 84.2016 79.4363 84.7976 80.4619C85.3752 81.4549 85.9762 82.4877 86.2424 82.9634C86.8376 84.0281 86.5601 85.4603 86.338 86.6117L86.281 86.9072C86.0291 88.2498 84.6932 95.1234 83.1449 98.617C83.1101 98.6958 83.0334 98.7419 82.9533 98.7419Z" fill="#8094B9"/>
<path d="M70.5957 99.4792C70.5421 99.4792 70.488 99.4587 70.4469 99.4176C69.4615 98.4242 64.7096 90.1959 64.3558 88.6484C64.1618 87.8013 64.6484 85.6527 65.1183 83.5746C65.4825 81.9646 65.8593 80.2997 65.7525 79.8491C65.5919 79.1756 64.3772 78.1826 63.2019 77.2227C61.7823 76.0634 60.3144 74.8638 60.0298 73.7836C59.7066 72.5559 59.9833 64.8699 60.166 59.7844C60.2314 57.9556 60.2834 56.5112 60.2829 55.9961C60.2829 55.8804 60.3768 55.7865 60.4925 55.7865C60.6082 55.7865 60.7021 55.88 60.7021 55.9957C60.7025 56.5188 60.6505 57.9665 60.5847 59.7995C60.4137 64.5531 60.1279 72.5085 60.4351 73.6771C60.6849 74.6253 62.1628 75.8328 63.4672 76.8983C64.7528 77.9487 65.9671 78.9408 66.1599 79.7527C66.2898 80.2972 65.9365 81.859 65.5274 83.6668C65.0889 85.6045 64.5918 87.8004 64.7641 88.5553C65.1112 90.0722 69.7767 98.1468 70.7445 99.1217C70.8259 99.2043 70.8254 99.3367 70.7433 99.4181C70.7026 99.4587 70.649 99.4792 70.5957 99.4792Z" fill="#8094B9"/>
<path d="M53.5556 95.8804C53.546 95.8804 53.5359 95.8795 53.5263 95.8783C53.4114 95.8619 53.3318 95.7559 53.3477 95.6415C53.502 94.5512 55.9075 72.8392 56.0181 71.1764C56.0257 71.0603 56.1254 70.9698 56.2411 70.9811C56.3564 70.9887 56.444 71.0888 56.4365 71.2041C56.3254 72.8698 53.9169 94.6087 53.7631 95.7001C53.748 95.8045 53.6583 95.8804 53.5556 95.8804Z" fill="#8094B9"/>
<path d="M70.8098 101.777C70.7838 101.777 70.757 101.772 70.731 101.762C70.1983 101.546 67.8426 100.752 64.8612 99.7461C58.8426 97.7166 50.6004 94.9372 49.0328 94.1224C48.9301 94.0692 48.8903 93.943 48.9435 93.8399C48.9968 93.7368 49.1229 93.6961 49.226 93.751C50.7647 94.5503 59.3284 97.4379 64.9949 99.3488C67.9835 100.357 70.3441 101.153 70.8886 101.373C70.9959 101.417 71.0475 101.539 71.0039 101.647C70.9712 101.728 70.8924 101.777 70.8098 101.777Z" fill="#8094B9"/>
<path d="M67.9173 110.423C62.6205 110.423 52.3522 109.468 44.5518 106.709C44.4428 106.67 44.3853 106.551 44.4243 106.441C44.4625 106.332 44.5836 106.275 44.6913 106.313C54.5456 109.8 68.3306 110.395 70.8954 109.819C71.0086 109.795 71.1205 109.865 71.1461 109.978C71.1712 110.09 71.1004 110.203 70.9872 110.228C70.4322 110.352 69.3588 110.423 67.9173 110.423Z" fill="#8094B9"/>
<path d="M7.29542 58.3565C8.93975 59.8029 11.0225 60.7301 12.4652 62.4021C13.0328 63.0606 13.5429 63.7606 14.0702 64.4505C14.4537 64.9526 15.4777 65.7859 15.6437 66.4167C15.717 66.695 15.7015 66.3182 15.6281 66.0395C15.6252 66.0278 15.6189 66.0164 15.6156 66.0047C15.4718 64.7267 15.3683 63.4437 15.3234 62.1582C15.279 60.8764 15.3586 59.5888 15.2782 58.3087C15.165 56.503 14.6012 54.7538 13.125 53.6226C12.4036 53.0697 11.4765 52.7327 10.8129 52.1191C10.1834 51.5364 10.4361 50.8692 10.8062 50.2195C11.1525 49.6117 11.5724 49.014 11.7074 48.314C11.8608 47.5185 11.562 46.6982 11.1583 46.0204C10.2995 44.579 8.39486 42.9711 6.59125 43.187C5.08692 43.3668 4.91674 45.1016 4.93812 46.3109C4.95907 47.4858 5.07518 48.6577 5.0865 49.8339C5.09823 51.0418 4.89285 52.2268 4.87566 53.4297C4.84632 55.4752 5.79151 57.034 7.29542 58.3565Z" fill="#35B0FF"/>
<path d="M22.5725 77.1269C23.0302 76.0354 23.5554 75.0144 24.2013 74.0214C25.0874 72.6591 26.0703 71.3317 26.6651 69.806C27.2729 68.2484 27.1836 66.5827 27.2435 64.9426C27.2876 63.7371 27.6455 62.535 27.5491 61.3265C27.5026 60.7469 27.1685 59.8092 26.4187 59.9052C25.8352 59.9798 25.4886 60.7033 25.2643 61.1648C24.8728 61.9704 24.6016 62.83 24.3107 63.6746C24.1976 64.0053 24.0894 64.3419 23.9457 64.6609C23.8627 64.8466 23.5969 65.2993 23.3467 65.2377C22.9208 65.1324 23.3073 63.3925 23.3706 63.0845C23.6891 61.5374 24.1682 60.0989 24.2345 58.5065C24.3309 56.1978 24.1515 53.4494 21.8935 52.1874C21.3029 51.8571 20.5556 51.6605 19.9947 52.1543C19.441 52.6413 19.2847 53.4851 19.2025 54.1796C18.9506 56.3118 19.4524 58.3309 20.1356 60.3369C20.6998 61.9934 21.3721 63.7027 21.4211 65.4741C21.4685 67.1796 20.5816 68.6902 20.1649 70.301C19.5014 72.8679 19.6385 74.2289 19.6355 75.06C19.6309 76.1016 19.6691 77.1319 19.7449 78.1701C19.8153 79.125 19.8979 80.0794 20.0144 81.0296C20.0383 81.222 20.0601 81.4223 20.0857 81.6235C19.7189 80.74 19.5907 79.7285 19.2872 78.8412C18.7473 77.2635 18.1203 75.7189 17.6026 74.1333C17.1747 72.8234 16.7702 71.5048 16.2052 70.2457C15.675 69.0645 15.0349 67.8154 14.0461 66.9486C13.4484 66.4247 12.7241 66.1183 11.9248 66.1246C11.4135 66.1283 10.9541 66.3056 10.4662 66.4343C9.86511 66.5932 9.39231 66.5383 8.89813 66.1585C7.27979 64.9145 6.7877 62.6842 5.58935 61.109C4.69614 59.9341 2.57566 57.9318 1.01683 59.2128C0.189847 59.8922 -0.0381723 61.2058 0.00500027 62.2122C0.0594899 63.4755 0.611512 64.6307 1.26874 65.6866C1.96789 66.8095 2.87074 67.815 3.51288 68.9698C3.89305 69.6517 3.95215 70.3056 3.89179 71.0752C3.8352 71.7995 3.77191 72.5015 4.01879 73.2007C4.76069 75.3006 7.07734 75.0072 8.87927 75.0621C10.1397 75.1003 11.4923 75.2881 12.6894 75.6913C14.0726 76.1574 14.9725 77.0573 15.4671 78.4258C15.8246 79.4159 16.0162 80.5404 16.6902 81.3813C17.0074 81.7769 17.4266 82.0691 17.8881 82.2732C18.5906 82.5838 20.7329 82.7192 20.7488 82.5234C20.8016 81.8687 21.1126 81.1771 21.3067 80.5559C21.6718 79.3899 22.1001 78.2531 22.5725 77.1269Z" fill="#35B0FF"/>
<path d="M32.5187 76.7315C32.3326 75.5311 32.3683 74.2078 31.7999 73.1059C31.7592 73.0266 31.6515 73.0065 31.5782 73.0476C31.1712 73.2735 31.154 73.9312 31.1209 74.3344C31.0655 75.0038 31.1066 75.6744 31.0245 76.3413C30.8798 77.5132 30.6091 78.7212 30.187 79.8261C29.7092 81.0756 28.8407 81.7844 27.5786 82.1742C26.768 82.4249 25.9728 82.6432 25.2963 83.181C24.6902 83.6626 24.2694 84.327 23.9576 85.0269C23.1151 86.9161 22.7139 89.0277 22.3233 91.0455C22.0605 92.4048 21.8463 93.7696 21.516 95.1151C21.1861 96.4593 20.8324 97.7972 20.6429 99.1704C20.6111 99.2395 20.5771 99.3083 20.5478 99.3783C20.4614 99.5841 20.7825 99.6947 20.8936 99.5241C22.1959 97.5193 23.7824 95.7199 25.9469 94.6159C26.9243 94.1175 28.2228 94.0135 29.0381 93.2302C29.6584 92.6341 29.7435 91.725 29.6509 90.9143C29.5293 89.8493 29.0188 88.9724 28.4869 88.065C28.1952 87.5666 27.8502 87.0322 27.968 86.4265C28.0791 85.8548 28.5544 85.4348 29.0259 85.1414C29.9259 84.5826 30.9779 84.3316 31.7148 83.5264C32.3993 82.7786 32.7786 81.8477 32.8545 80.8405C32.9555 79.4975 32.7241 78.0573 32.5187 76.7315Z" fill="#35B0FF"/>
<path d="M14.7607 83.6531C13.6114 82.1727 12.2244 80.8959 10.6639 79.8594C9.83103 79.3065 7.86647 78.215 7.46995 79.8468C7.23733 80.8029 8.17329 81.7435 8.78902 82.3428C9.71451 83.2432 10.785 84.0207 11.5659 85.0589C10.5989 85.367 9.58876 85.427 8.74878 86.0955C7.75414 86.8873 7.30816 88.4155 8.294 89.385C8.77477 89.8574 9.41188 90.1474 10.0104 90.4375C10.7884 90.8139 11.5806 91.1551 12.3778 91.4883C14.0997 92.2076 15.8433 92.9369 17.3116 94.1155C18.808 95.316 20.2151 97.3459 20.3337 99.3046C20.3454 99.4916 20.2742 99.3214 20.3857 99.2359C20.4469 99.2908 20.6523 99.1923 20.651 99.0833C20.6204 96.1765 20.0981 93.4089 18.9103 90.7468C17.8092 88.2784 16.4205 85.7916 14.7607 83.6531Z" fill="#35B0FF"/>
<path d="M10.7935 56.595C11.4277 57.9108 12.0903 59.1963 12.7941 60.4797C13.4719 61.715 14.1484 62.9406 14.6551 64.2584C15.2792 65.8809 15.9335 67.4796 16.5933 69.0878C17.279 70.7594 17.8922 72.4624 18.3835 74.2015C19.3433 77.5962 20.0563 81.0898 20.4088 84.6006C20.5882 86.3862 20.6695 88.1823 20.6205 89.9762C20.5823 91.3779 20.4243 92.7649 20.2923 94.1594C20.1552 95.6105 20.0567 97.0788 20.1779 98.5349C20.2793 99.7521 20.4729 101.199 21.4177 102.067C21.6026 102.238 21.8641 102.026 21.7568 101.806C20.6347 99.5036 20.6972 96.9941 20.9122 94.4981C21.0304 93.1199 21.1947 91.7488 21.2412 90.3656C21.3003 88.6056 21.2312 86.8423 21.0656 85.0894C20.7399 81.6439 20.053 78.2392 19.1618 74.8977C18.705 73.1842 18.1391 71.5043 17.4877 69.8549C16.8347 68.2018 16.0802 66.5943 15.4477 64.9332C14.303 61.9296 12.5585 59.2659 11.014 56.4659C10.9335 56.3205 10.7231 56.4488 10.7935 56.595Z" fill="#365691"/>
<path d="M20.4593 81.1593C20.6408 78.9718 20.8344 76.8651 21.5722 74.7782C21.9159 73.8049 22.3325 72.8584 22.6645 71.8814C22.939 71.0737 23.3494 69.9663 23.1381 69.1079C23.1142 69.0123 22.9746 69.0169 22.9486 69.1079C22.8074 69.5983 22.8229 70.1361 22.721 70.6386C22.6221 71.1278 22.4901 71.609 22.3379 72.0843C22.0144 73.0953 21.5914 74.0639 21.2251 75.059C20.5172 76.9812 20.1537 79.1105 20.3088 81.1593C20.316 81.2561 20.4509 81.2561 20.4593 81.1593Z" fill="#365691"/>
<path d="M7.78005 68.5874C8.64853 70.6853 11.2586 70.8064 13.1599 71.2763C14.5179 71.6116 15.5197 72.5174 16.2398 73.6935C17.0274 74.9795 17.5605 76.4901 17.9985 77.9253C18.0036 77.9416 18.0275 77.9353 18.0237 77.9186C17.4918 75.4045 16.7302 72.3766 14.1382 71.2067C12.0608 70.2695 9.3242 70.7402 7.99549 68.4965C7.93011 68.3867 7.72766 68.4604 7.78005 68.5874Z" fill="#365691"/>
<path d="M19.0854 80.8274C19.1885 80.967 19.2832 81.1128 19.3901 81.2495C19.4429 81.3174 19.4962 81.3811 19.5628 81.4356C19.6311 81.4913 19.7112 81.5605 19.8047 81.5588C19.8436 81.558 19.8709 81.5148 19.8499 81.48C19.8068 81.41 19.7292 81.3677 19.6689 81.3144C19.6068 81.2595 19.5431 81.2055 19.4828 81.1489C19.3616 81.034 19.2505 80.9091 19.1315 80.7918C19.1089 80.7691 19.0649 80.8001 19.0854 80.8274Z" fill="#365691"/>
<path d="M13.6575 87.4823C15.1552 88.7121 16.5375 90.1665 17.6353 91.7606C18.1601 92.5226 18.6442 93.329 19.0839 94.1434C19.5638 95.0325 19.8786 95.9722 20.2546 96.9048C20.2831 96.9757 20.4122 96.9773 20.4025 96.8851C20.1946 94.9126 18.9447 93.2209 17.9442 91.5795C17.4245 90.7269 16.7781 90.04 16.0832 89.3287C15.3652 88.5943 14.6342 87.8998 13.7925 87.3075C13.6902 87.2354 13.5599 87.4018 13.6575 87.4823Z" fill="#365691"/>
<path d="M25.5868 85.1592C24.8651 85.5683 24.842 86.7076 24.8277 87.4352C24.8005 88.8331 25.1467 90.1459 24.5331 91.4779C23.979 92.6813 23.0937 93.686 22.3975 94.8035C21.7457 95.8492 21.1032 97.1863 21.1174 98.4455C21.1183 98.518 21.2302 98.5595 21.2641 98.4853C21.5265 97.9136 21.6208 97.2643 21.8086 96.6653C22.0199 95.9918 22.3154 95.3802 22.6972 94.788C23.367 93.7501 24.1894 92.8054 24.7326 91.6892C25.3052 90.5126 25.2213 89.3474 25.1836 88.0727C25.1593 87.26 25.078 85.9539 25.7335 85.3495C25.8362 85.2552 25.705 85.0926 25.5868 85.1592Z" fill="#365691"/>
<path d="M20.7577 98.5759C17.8517 98.5357 12.3164 98.5038 12.3164 98.5038L13.6862 108.673C13.9943 110.961 15.9471 112.668 18.2558 112.668H20.6424H20.873H23.2596C25.5683 112.668 27.5207 110.961 27.8288 108.673L29.1986 98.5038C29.1986 98.5038 23.6637 98.5357 20.7577 98.5759Z" fill="white"/>
<path d="M161.219 79.8875L144.641 112.726L96.3086 113.073L111.225 79.4248L161.219 79.8875Z" fill="#F6F7FA"/>
<path d="M64.2324 112.868L64.2416 110.239H95.5296L109.925 78.6731H159.963L161.221 79.887H112.339L97.3793 112.842C97.3793 112.842 64.2324 112.782 64.2324 112.868Z" fill="#D9DFE9"/>
<path d="M136.122 98.0087C135.576 99.6467 132.612 100.912 129.503 100.834C126.393 100.756 124.315 99.365 124.86 97.727C125.407 96.0894 128.37 94.8244 131.48 94.9023C134.589 94.9799 136.668 96.371 136.122 98.0087Z" fill="#D9DFE9"/>
<path d="M97.3775 113.051C97.3485 113.051 97.3188 113.045 97.2907 113.032C97.1855 112.984 97.139 112.86 97.1868 112.755L112.202 79.6778H161.219C161.335 79.6778 161.428 79.7717 161.428 79.8874C161.428 80.003 161.335 80.0969 161.219 80.0969H112.472L97.5682 112.928C97.5334 113.005 97.4567 113.051 97.3775 113.051Z" fill="white"/>
<path d="M62.0544 128.104H4.55859V115.357H62.0544V128.104Z" fill="#4F6B9E"/>
<path d="M165.171 128.104H61.7246V115.357H165.171V128.104Z" fill="#748AB2"/>
<mask id="mask2_45210_5088" style="mask-type:luminance" maskUnits="userSpaceOnUse" x="4" y="115" width="162" height="3">
<path d="M4.55273 115.357H165.166V117.698H4.55273V115.357Z" fill="white"/>
</mask>
<g mask="url(#mask2_45210_5088)">
<path d="M62.0485 115.357H61.7199H4.55273V117.698H61.7199H62.0485H165.166V115.357H62.0485Z" fill="#BCC5D9"/>
</g>
<path d="M64.5691 115.963H1.7832V112.842H64.5691V115.963Z" fill="#6880AC"/>
<path d="M167.688 115.963H64.2422V112.842H167.688V115.963Z" fill="#99A8C5"/>
<path d="M47.5381 45.9575H27.2411C25.9853 45.9575 24.9668 44.9394 24.9668 43.6832V33.5502C24.9668 32.2944 25.9853 31.2759 27.2411 31.2759H47.5381C48.7943 31.2759 49.8124 32.2944 49.8124 33.5502V43.6832C49.8124 44.9394 48.7943 45.9575 47.5381 45.9575Z" fill="white"/>
<path d="M55.5977 38.6167L47.9746 35.4001V41.8333L55.5977 38.6167Z" fill="white"/>
<path d="M33.9763 38.6168C33.9763 39.3923 33.3476 40.021 32.5721 40.021C31.7967 40.021 31.168 39.3923 31.168 38.6168C31.168 37.841 31.7967 37.2127 32.5721 37.2127C33.3476 37.2127 33.9763 37.841 33.9763 38.6168Z" fill="#04377D"/>
<path d="M38.7946 38.6166C38.7946 39.392 38.1659 40.0208 37.3905 40.0208C36.6151 40.0208 35.9863 39.392 35.9863 38.6166C35.9863 37.8407 36.6151 37.2124 37.3905 37.2124C38.1659 37.2124 38.7946 37.8407 38.7946 38.6166Z" fill="#04377D"/>
<path d="M43.6091 38.6166C43.6091 39.392 42.9804 40.0208 42.2049 40.0208C41.4295 40.0208 40.8008 39.392 40.8008 38.6166C40.8008 37.8407 41.4295 37.2124 42.2049 37.2124C42.9804 37.2124 43.6091 37.8407 43.6091 38.6166Z" fill="#04377D"/>
<path d="M150.87 0.104428H104.011C101.002 0.104428 98.5625 2.54389 98.5625 5.55339V27.7831C98.5625 30.7922 101.002 33.232 104.011 33.232H108.212C108.33 35.2469 108.041 38.2447 106.358 42.0774C111.772 39.5801 114.889 35.8304 116.518 33.232H150.87C153.879 33.232 156.319 30.7922 156.319 27.7831V5.55339C156.319 2.54389 153.879 0.104428 150.87 0.104428Z" fill="#0DAAFF"/>
<path d="M130.882 10.6987H107.641C107.002 10.6987 106.484 10.1811 106.484 9.54271C106.484 8.90392 107.002 8.38627 107.641 8.38627H130.882C131.52 8.38627 132.038 8.90392 132.038 9.54271C132.038 10.1811 131.52 10.6987 130.882 10.6987Z" fill="white"/>
<path d="M147.547 17.4341H107.193C106.802 17.4341 106.484 17.1172 106.484 16.7261C106.484 16.3346 106.802 16.0178 107.193 16.0178H147.547C147.938 16.0178 148.255 16.3346 148.255 16.7261C148.255 17.1172 147.938 17.4341 147.547 17.4341Z" fill="#CBE7FF"/>
<path d="M147.547 21.3657H107.193C106.802 21.3657 106.484 21.0488 106.484 20.6574C106.484 20.2663 106.802 19.9494 107.193 19.9494H147.547C147.938 19.9494 148.255 20.2663 148.255 20.6574C148.255 21.0488 147.938 21.3657 147.547 21.3657Z" fill="#CBE7FF"/>
<path d="M138.744 25.5574H107.193C106.802 25.5574 106.484 25.2401 106.484 24.849C106.484 24.4579 106.802 24.1411 107.193 24.1411H138.744C139.135 24.1411 139.452 24.4579 139.452 24.849C139.452 25.2401 139.135 25.5574 138.744 25.5574Z" fill="#CBE7FF"/>
<path d="M147.228 10.6987H136.141C135.502 10.6987 134.984 10.1811 134.984 9.54271C134.984 8.90392 135.502 8.38627 136.141 8.38627H147.228C147.866 8.38627 148.384 8.90392 148.384 9.54271C148.384 10.1811 147.866 10.6987 147.228 10.6987Z" fill="white"/>
<path d="M119.285 61.8208H106.696C106.233 61.8208 105.857 61.4452 105.857 60.9825V52.3824C105.857 51.9196 106.233 51.544 106.696 51.544H119.285C119.747 51.544 120.123 51.9196 120.123 52.3824V60.9825C120.123 61.4452 119.747 61.8208 119.285 61.8208Z" fill="white"/>
<path d="M113.078 58.218C113.007 58.218 112.936 58.1941 112.877 58.1459L106.026 52.4874C105.892 52.3767 105.874 52.1785 105.984 52.0448C106.095 51.9106 106.293 51.8926 106.427 52.0024L113.072 57.4916L119.549 51.8561C119.679 51.7425 119.878 51.756 119.992 51.8872C120.106 52.0179 120.092 52.2166 119.961 52.3306L113.284 58.1409C113.225 58.192 113.151 58.218 113.078 58.218Z" fill="#6880AC"/>
<path d="M106.226 61.5859C106.149 61.5859 106.071 61.5574 106.01 61.4992C105.884 61.3797 105.879 61.1806 105.999 61.0549L110.791 56.0175C110.909 55.8918 111.109 55.8863 111.234 56.0062C111.361 56.1261 111.366 56.3252 111.246 56.4509L106.454 61.4883C106.392 61.5532 106.309 61.5859 106.226 61.5859Z" fill="#6880AC"/>
<path d="M119.757 61.4021C119.676 61.4021 119.595 61.3715 119.534 61.3099L114.762 56.5244C114.639 56.4012 114.639 56.2021 114.762 56.0797C114.886 55.9569 115.085 55.9573 115.207 56.0801L119.979 60.8656C120.102 60.9888 120.102 61.1879 119.978 61.3103C119.917 61.3715 119.837 61.4021 119.757 61.4021Z" fill="#6880AC"/>
<path d="M124.984 51.2264C124.984 53.5494 123.101 55.4326 120.778 55.4326C118.455 55.4326 116.572 53.5494 116.572 51.2264C116.572 48.9035 118.455 47.0207 120.778 47.0207C123.101 47.0207 124.984 48.9035 124.984 51.2264Z" fill="#FF5F3E"/>
</svg>
