<svg width="126" height="18" viewBox="0 0 126 18" fill="none" xmlns="http://www.w3.org/2000/svg">
<path d="M117.673 9.41399C117.502 9.42889 117.329 9.43914 117.161 9.46151C117.051 9.47548 117.005 9.4345 116.932 9.41307C116.908 9.40561 116.882 9.3907 116.859 9.39256C116.689 9.40747 116.519 9.42424 116.35 9.44101C116.298 9.47735 116.265 9.52579 116.185 9.5435C116.107 9.56027 116.015 9.56027 115.929 9.56865C115.814 9.5789 115.7 9.58916 115.586 9.59847C115.528 9.60313 115.482 9.62083 115.463 9.65437C115.459 9.65997 115.497 9.67393 115.518 9.68232C115.587 9.71027 115.655 9.74195 115.731 9.76338C115.804 9.78387 115.894 9.75033 115.972 9.77642C116.147 9.83512 116.149 9.83419 116.282 9.82301C116.396 9.81276 116.511 9.80158 116.625 9.79413C116.648 9.79227 116.674 9.80624 116.698 9.81369C116.771 9.83419 116.818 9.88078 116.925 9.86308C117.006 9.8491 117.096 9.8463 117.181 9.83885C117.252 9.86587 117.318 9.89661 117.395 9.91804C117.466 9.93854 117.486 9.95439 117.448 9.9814C117.414 10.0066 117.365 10.0168 117.301 10.0187C117.244 10.0196 117.187 10.028 117.129 10.0326C117.1 10.0354 117.072 10.0373 117.045 10.0401C116.935 10.0504 116.935 10.0503 116.736 9.99072C116.658 9.96743 116.57 10 116.495 9.97767C116.445 9.96277 116.402 9.94041 116.353 9.92457C116.332 9.91805 116.299 9.91711 116.273 9.91898C116.187 9.9255 116.1 9.93016 116.017 9.94227C115.958 9.95065 115.923 9.97674 115.93 10.0028C115.932 10.0131 115.974 10.028 115.998 10.0289C116.053 10.0308 116.112 10.0177 116.166 10.0243C116.218 10.0308 116.272 10.0494 116.31 10.0699C116.388 10.1128 116.476 10.0746 116.551 10.0858C116.629 10.0979 116.693 10.1351 116.767 10.1575C116.786 10.1631 116.823 10.1538 116.852 10.151C116.937 10.1444 117.022 10.1389 117.107 10.1323C117.178 10.1594 117.254 10.1836 117.318 10.2143C117.434 10.2702 117.559 10.2917 117.71 10.2646C117.795 10.2497 117.878 10.2553 117.946 10.2917C118.015 10.3289 118.095 10.3252 118.183 10.3177C118.264 10.3103 118.348 10.2898 118.431 10.3159C118.611 10.3736 118.613 10.3764 118.826 10.3541C118.89 10.3476 118.938 10.3457 118.987 10.3671C119.032 10.3867 119.08 10.4035 119.127 10.4221C119.212 10.4156 119.299 10.4091 119.384 10.4016C119.493 10.3914 119.553 10.4044 119.579 10.4566C119.595 10.4883 119.602 10.5171 119.64 10.5386C119.685 10.5647 119.734 10.5637 119.8 10.5563C119.862 10.5497 119.907 10.5395 119.933 10.506C119.943 10.492 119.964 10.4789 119.983 10.4678C119.999 10.4594 120.023 10.4463 120.037 10.4482C120.063 10.4519 120.098 10.4622 120.106 10.4743C120.191 10.587 120.191 10.5879 120.278 10.6206C120.373 10.6569 120.472 10.6895 120.558 10.7305C120.636 10.7668 120.714 10.751 120.799 10.751C120.863 10.751 120.905 10.7752 120.9 10.7994C120.896 10.8134 120.872 10.8339 120.851 10.8358C120.682 10.8544 120.51 10.8702 120.338 10.8833C120.318 10.8852 120.292 10.8684 120.267 10.86C120.219 10.8432 120.176 10.8171 120.124 10.8115C120.072 10.806 120.011 10.8199 119.954 10.8246C119.897 10.8292 119.836 10.8414 119.784 10.8339C119.732 10.8265 119.69 10.7994 119.642 10.7817C119.619 10.7734 119.588 10.7612 119.569 10.764C119.443 10.7864 119.349 10.7557 119.259 10.7147C119.24 10.7063 119.207 10.7007 119.183 10.7025C118.982 10.7184 118.782 10.737 118.581 10.7547C118.5 10.7622 118.434 10.7296 118.417 10.6746C118.408 10.6438 118.391 10.6131 118.391 10.5824C118.391 10.5264 118.296 10.4957 118.226 10.5022C118.112 10.5115 117.996 10.519 117.883 10.533C117.791 10.5441 117.713 10.533 117.651 10.4994C117.578 10.4612 117.495 10.4687 117.412 10.4789C117.349 10.4864 117.332 10.5171 117.336 10.5945C117.339 10.6569 117.31 10.6765 117.197 10.6867C117.055 10.6997 116.911 10.7128 116.767 10.723C116.745 10.7249 116.719 10.7091 116.696 10.7007C116.648 10.6839 116.604 10.6569 116.552 10.6513C116.5 10.6448 116.44 10.6588 116.383 10.6643C116.325 10.669 116.265 10.682 116.213 10.6755C116.161 10.669 116.117 10.6411 116.071 10.6234C116.048 10.615 116.02 10.6028 115.998 10.6047C115.884 10.6122 115.769 10.6233 115.655 10.6336C115.527 10.6448 115.527 10.6448 115.345 10.587C115.262 10.5609 115.178 10.5814 115.097 10.5889C115.01 10.5963 114.929 10.6001 114.861 10.5628C114.816 10.5386 114.766 10.5237 114.712 10.5283C114.568 10.5395 114.426 10.5535 114.283 10.5647C114.258 10.5665 114.225 10.5619 114.206 10.5535C114.114 10.5143 114.024 10.4836 113.896 10.5032C113.785 10.5199 113.666 10.5209 113.555 10.5367C113.494 10.5451 113.466 10.5749 113.479 10.5982C113.485 10.6103 113.522 10.6243 113.546 10.6243C113.602 10.6252 113.662 10.6112 113.714 10.6168C113.822 10.628 113.875 10.7063 114.016 10.6848C114.099 10.6718 114.185 10.6671 114.272 10.6634C114.295 10.6625 114.319 10.6802 114.343 10.6895C114.412 10.7147 114.473 10.7473 114.574 10.7305C114.657 10.7174 114.745 10.7137 114.83 10.7063C114.965 10.6942 114.965 10.6951 115.14 10.7519C115.223 10.7789 115.307 10.7575 115.388 10.751C115.449 10.7463 115.506 10.737 115.554 10.7501C115.629 10.7696 115.683 10.8143 115.774 10.8115C115.861 10.8088 115.946 10.7957 116.033 10.7911C116.086 10.7883 116.137 10.8032 116.18 10.8283C116.225 10.8535 116.273 10.8647 116.332 10.8591C116.417 10.8516 116.504 10.8423 116.591 10.8376C116.615 10.8367 116.643 10.8451 116.665 10.8525C116.714 10.8693 116.76 10.8889 116.807 10.9066C116.892 10.901 116.979 10.8991 117.062 10.888C117.126 10.8796 117.171 10.8833 117.223 10.9019C117.289 10.9271 117.343 10.9718 117.45 10.9504C117.504 10.9401 117.566 10.9429 117.62 10.9336C117.686 10.9215 117.731 10.9261 117.777 10.9541C117.866 11.0072 117.977 11.0081 118.091 10.9876C118.216 10.9653 118.309 10.9914 118.403 11.0324C118.502 11.0752 118.502 11.0743 118.578 11.1777C118.601 11.2075 118.665 11.2215 118.718 11.2159C118.808 11.2066 118.886 11.2113 118.952 11.2467C119.022 11.2849 119.105 11.2802 119.19 11.2699C119.302 11.256 119.415 11.2439 119.507 11.2979C119.552 11.324 119.6 11.3305 119.661 11.324C119.832 11.3072 120.006 11.297 120.174 11.2765C120.276 11.2634 120.335 11.2932 120.404 11.3184C120.498 11.3529 120.6 11.3836 120.6 11.4572C120.6 11.4693 120.624 11.4833 120.645 11.4926C120.69 11.5122 120.739 11.529 120.785 11.5476C120.855 11.5755 120.922 11.5988 121.018 11.5839C121.101 11.5718 121.189 11.5681 121.274 11.5597C121.359 11.5513 121.437 11.5467 121.513 11.5821C121.602 11.6221 121.695 11.6603 121.796 11.6901C121.867 11.7116 121.96 11.6752 122.037 11.7041C122.083 11.7218 122.128 11.7423 122.179 11.7572C122.199 11.7638 122.232 11.7591 122.26 11.7572C122.317 11.7535 122.376 11.7507 122.432 11.7414C122.496 11.7311 122.544 11.733 122.593 11.7544C122.638 11.774 122.683 11.801 122.735 11.8066C122.813 11.815 122.899 11.7777 122.977 11.8206C123.017 11.842 123.068 11.8625 123.119 11.869C123.171 11.8756 123.232 11.8616 123.288 11.8625C123.312 11.8625 123.341 11.8774 123.355 11.8895C123.364 11.8961 123.352 11.9138 123.34 11.9231C123.324 11.9343 123.301 11.9492 123.279 11.951C123.107 11.9678 122.936 11.9818 122.764 11.9976C122.662 12.0069 122.662 12.0069 122.456 11.9482C122.407 11.9343 122.354 11.937 122.293 11.9436C122.212 11.952 122.128 11.9678 122.043 11.951C121.933 11.8877 121.796 11.8821 121.65 11.9063C121.589 11.9165 121.534 11.9166 121.489 11.8989C121.394 11.8634 121.293 11.8308 121.208 11.7889C121.142 11.7563 121.111 11.7535 121.084 11.7982C121.075 11.8122 121.066 11.8271 121.068 11.8402C121.078 11.8867 121.097 11.9324 121.108 11.979C121.111 11.992 121.097 12.0069 121.089 12.0209C121.061 12.06 121.025 12.0572 120.964 12.0246C120.903 11.992 120.831 11.9706 120.734 11.9855C120.65 11.9985 120.56 11.9967 120.477 12.0107C120.349 12.0312 120.259 12.0013 120.167 11.9613C120.148 11.9529 120.115 11.9482 120.091 11.9501C119.832 11.9715 119.576 11.9957 119.318 12.0172C119.262 12.0218 119.212 12.0079 119.169 11.9827C119.124 11.9576 119.074 11.9445 119.018 11.9492C118.789 11.9687 118.561 11.9864 118.332 12.0107C118.238 12.0209 118.164 12.0088 118.1 11.9762C118.051 11.952 118.006 11.9445 117.946 11.9473C117.88 11.9501 117.833 11.9594 117.8 11.9864C117.769 12.0125 117.791 12.0284 117.861 12.0489C117.935 12.0712 118.004 12.1001 118.075 12.1262C118.133 12.1225 118.19 12.115 118.245 12.1159C118.27 12.1159 118.292 12.1327 118.316 12.142C118.386 12.169 118.45 12.1961 118.549 12.1812C118.632 12.1681 118.72 12.1653 118.805 12.1569C118.923 12.1467 118.923 12.1467 119.113 12.2054C119.162 12.2203 119.214 12.2194 119.276 12.211C119.33 12.2044 119.385 12.2175 119.424 12.2454C119.439 12.2566 119.434 12.2753 119.401 12.3368C119.401 12.3824 119.437 12.3619 119.45 12.3321C119.469 12.2892 119.432 12.2753 119.363 12.2986C119.314 12.3153 119.29 12.3396 119.302 12.3591C119.309 12.3694 119.342 12.3824 119.401 12.3368C119.554 12.2809 119.67 12.2743 119.781 12.2594C119.846 12.251 119.888 12.2548 119.94 12.279C120.002 12.3079 120.065 12.3386 120.167 12.3237C120.278 12.3069 120.396 12.3051 120.508 12.2911C120.612 12.2781 120.666 12.3191 120.732 12.3433C120.811 12.3722 120.9 12.3396 120.973 12.3563C121.049 12.3731 121.103 12.4141 121.191 12.4215C121.319 12.3964 121.401 12.443 121.498 12.4737C121.574 12.497 121.664 12.4765 121.745 12.4663C121.837 12.4551 121.913 12.4653 121.978 12.4989C122.05 12.5371 122.132 12.5287 122.215 12.5203C122.409 12.5017 122.416 12.4989 122.529 12.5501C122.61 12.5874 122.688 12.5706 122.769 12.566C122.841 12.5911 122.91 12.6181 122.984 12.6405C123.003 12.6461 123.04 12.6368 123.069 12.634C123.154 12.6265 123.241 12.6191 123.326 12.6116C123.383 12.6069 123.443 12.593 123.495 12.5986C123.547 12.6051 123.591 12.6321 123.638 12.6498C123.684 12.6675 123.733 12.6852 123.778 12.7038C123.847 12.7318 123.913 12.7551 124.01 12.7411C124.093 12.729 124.18 12.7253 124.267 12.7169C124.376 12.7066 124.372 12.7094 124.575 12.7653C124.684 12.7961 124.797 12.7588 124.908 12.7551C124.963 12.7532 125.017 12.7635 125.055 12.7905C125.071 12.8017 125.065 12.8203 125.071 12.8362C124.785 12.8613 124.497 12.8827 124.215 12.9135C124.105 12.9256 124.048 12.892 123.989 12.8641C123.892 12.8194 123.764 12.8846 123.672 12.8268C123.617 12.7924 123.537 12.7728 123.442 12.7896C123.386 12.7989 123.327 12.7979 123.27 12.8063C123.125 12.8268 122.991 12.8278 122.875 12.7635C122.835 12.7411 122.778 12.729 122.737 12.7076C122.688 12.6843 122.641 12.6712 122.584 12.6759C122.326 12.6983 122.069 12.7206 121.813 12.7448C121.79 12.7467 121.768 12.7607 121.749 12.7709C121.7 12.797 121.716 12.8175 121.794 12.8343C121.82 12.8399 121.841 12.852 121.865 12.8613C121.912 12.879 121.955 12.907 122.007 12.9135C122.059 12.92 122.12 12.907 122.177 12.9023C122.234 12.8976 122.295 12.8837 122.347 12.8893C122.399 12.8958 122.442 12.9228 122.49 12.9396C122.513 12.948 122.541 12.9619 122.563 12.961C122.678 12.9554 122.79 12.9452 122.905 12.9368C122.976 12.9619 123.036 12.9983 123.121 13.0066C123.175 13.0122 123.232 13.002 123.288 13.0039C123.312 13.0048 123.343 13.0188 123.355 13.0309C123.362 13.0383 123.34 13.057 123.322 13.0663C123.256 13.1017 123.166 13.0952 123.085 13.1063C122.996 13.1184 122.917 13.1147 122.849 13.0784C122.804 13.0542 122.754 13.0411 122.698 13.0458C122.555 13.0579 122.413 13.0719 122.269 13.0821C122.244 13.084 122.215 13.0756 122.192 13.0691C122.011 13.0122 122.011 13.0104 121.882 13.0225C121.693 13.0402 121.693 13.0402 121.567 12.9908C121.543 12.9815 121.517 12.9638 121.496 12.9647C121.295 12.9796 121.096 12.9945 120.896 13.016C120.831 13.0225 120.785 13.0225 120.737 12.9983C120.695 12.9778 120.647 12.9545 120.595 12.9489C120.541 12.9433 120.482 12.9573 120.425 12.9619C120.368 12.9666 120.307 12.9787 120.257 12.9712C120.205 12.9638 120.16 12.9377 120.115 12.9191C120.068 12.8995 120.018 12.9004 119.954 12.9079C119.756 12.9293 119.755 12.9265 119.559 12.8688C119.536 12.8622 119.507 12.8548 119.482 12.8566C119.339 12.8678 119.197 12.8818 119.053 12.893C118.997 12.8976 118.944 12.8855 118.905 12.8585C118.89 12.8473 118.895 12.8287 118.885 12.7924C118.873 12.784 118.886 12.7989 118.89 12.8129C118.916 12.811 118.947 12.8129 118.966 12.8054C119.015 12.7877 119.039 12.7644 119.027 12.7448C119.02 12.7346 118.987 12.7215 118.966 12.7215C118.928 12.7215 118.895 12.742 118.885 12.7924C118.776 12.8231 118.659 12.8296 118.547 12.8445C118.481 12.8539 118.439 12.8492 118.387 12.825C118.325 12.7952 118.261 12.7663 118.159 12.7812C118.048 12.7979 117.93 12.8007 117.816 12.8138C117.684 12.8287 117.627 12.7448 117.516 12.7467C117.401 12.7486 117.287 12.7644 117.173 12.7756C117.072 12.7849 117.072 12.7849 116.864 12.7243C116.788 12.702 116.698 12.7346 116.623 12.7113C116.573 12.6964 116.53 12.674 116.481 12.6582C116.461 12.6517 116.428 12.6517 116.402 12.6535C116.258 12.6647 116.112 12.6722 115.974 12.6927C115.816 12.7169 115.696 12.6908 115.584 12.6358C115.442 12.6461 115.298 12.6517 115.158 12.6694C115.055 12.6824 114.996 12.6517 114.927 12.6265C114.903 12.6181 114.882 12.6042 114.856 12.6004C114.83 12.5967 114.799 12.6041 114.771 12.6069C114.657 12.6172 114.539 12.6219 114.428 12.6386C114.291 12.6601 114.239 12.5837 114.134 12.5743C114.062 12.62 114.024 12.6824 113.884 12.6871C113.77 12.6908 113.655 12.7057 113.541 12.716C113.484 12.7206 113.427 12.7262 113.369 12.7309C113.278 12.7393 113.234 12.7756 113.253 12.8315C113.264 12.8622 113.272 12.893 113.281 12.9237C113.298 12.9787 113.255 13.0253 113.182 13.0318C112.981 13.0495 112.782 13.0681 112.581 13.084C112.527 13.0886 112.475 13.0728 112.432 13.0476C112.387 13.0225 112.337 13.0113 112.281 13.016C112.08 13.0337 111.881 13.0523 111.68 13.0681C111.657 13.07 111.628 13.0607 111.605 13.0532C111.557 13.0365 111.51 13.0169 111.463 12.9992C111.349 13.0076 111.236 13.0132 111.124 13.0243C110.942 13.0411 110.942 13.0421 110.808 12.9908C110.784 12.9815 110.76 12.9638 110.737 12.9647C110.651 12.9685 110.566 12.9778 110.479 12.9862C110.224 13.0104 110.224 13.0104 110.15 12.9824C110.082 12.9563 110.022 12.9247 109.919 12.9396C109.809 12.9563 109.691 12.9619 109.576 12.9712C109.491 12.9778 109.407 12.9852 109.322 12.9871C109.299 12.988 109.275 12.9703 109.251 12.961C109.181 12.9321 109.114 12.9088 109.018 12.9247C108.963 12.934 108.904 12.9358 108.847 12.9405C108.698 12.9535 108.698 12.9535 108.454 12.8976C108.429 12.892 108.4 12.8855 108.376 12.8883C108.175 12.9051 107.975 12.9237 107.774 12.9396C107.75 12.9414 107.721 12.9358 107.696 12.9312C107.423 12.8771 107.423 12.8771 107.132 12.9032C107.021 12.9125 107.017 12.9163 106.901 12.8669C106.849 12.8455 106.806 12.8352 106.745 12.8417C106.516 12.8641 106.286 12.879 106.059 12.9051C105.957 12.9163 105.898 12.8883 105.829 12.8632C105.804 12.8548 105.778 12.8362 105.757 12.8371C105.529 12.8548 105.3 12.8762 105.071 12.8939C105.05 12.8958 105.025 12.8771 105 12.8688C104.953 12.852 104.908 12.8268 104.856 12.8212C104.803 12.8157 104.744 12.8296 104.685 12.8343C104.541 12.8464 104.541 12.8455 104.375 12.7905C104.352 12.783 104.323 12.7728 104.3 12.7747C104.072 12.7933 103.841 12.8091 103.614 12.8362C103.484 12.8511 103.396 12.824 103.304 12.7849C103.285 12.7765 103.252 12.7728 103.228 12.7747C102.97 12.7961 102.713 12.8203 102.455 12.8417C102.401 12.8464 102.349 12.8306 102.306 12.8063C102.237 12.7681 102.155 12.7728 102.068 12.7812C101.869 12.8007 101.867 12.7998 101.75 12.7551C101.725 12.7458 101.705 12.7337 101.679 12.729C101.654 12.7243 101.623 12.7271 101.597 12.729C101.483 12.7383 101.368 12.7486 101.254 12.7588C101.14 12.7691 101.024 12.7747 100.911 12.7905C100.772 12.8101 100.707 12.7495 100.609 12.7215C100.467 12.7337 100.322 12.7411 100.182 12.7607C100.074 12.7756 100.024 12.7346 99.9528 12.7132C99.9286 12.7057 99.9026 12.6899 99.88 12.6917C99.6218 12.7122 99.3637 12.7346 99.1072 12.7597C99.0449 12.7653 99.0033 12.7579 98.9513 12.7355C98.8352 12.6852 98.83 12.6871 98.6359 12.7057C98.551 12.7141 98.4696 12.7216 98.3968 12.6834C98.3327 12.6489 98.2547 12.6405 98.1629 12.6517C98.0503 12.6656 97.9342 12.6731 97.8198 12.6824C97.7055 12.6927 97.5911 12.7066 97.4767 12.7113C97.3849 12.716 97.3295 12.6722 97.2567 12.6498C97.2342 12.6433 97.203 12.6424 97.177 12.6442C97.0626 12.6526 96.9448 12.6591 96.8339 12.675C96.6988 12.6945 96.6242 12.6433 96.5289 12.6135C96.5082 12.607 96.4735 12.6107 96.4475 12.6135C96.2465 12.6302 96.0472 12.6489 95.8462 12.6666C95.7752 12.6414 95.7024 12.6172 95.6314 12.592C95.517 12.6014 95.4026 12.6116 95.2883 12.6209C95.2016 12.6284 95.1133 12.6312 95.0318 12.6451C94.9261 12.6638 94.8741 12.62 94.8031 12.5986C94.7788 12.5911 94.7529 12.5753 94.7303 12.5771C94.5865 12.5874 94.4427 12.5986 94.3006 12.6144C94.1655 12.6302 94.1118 12.5464 94.0009 12.5473C93.8865 12.5482 93.7687 12.5604 93.6578 12.5771C93.5296 12.5967 93.4395 12.5669 93.3476 12.5268C93.3286 12.5184 93.2957 12.5138 93.2714 12.5156C93.1276 12.5268 92.9855 12.5408 92.8417 12.552C92.8174 12.5538 92.788 12.5492 92.7637 12.5436C92.4899 12.4886 92.4899 12.4877 92.3704 12.4989C92.2855 12.5063 92.1988 12.5156 92.1122 12.5203C92.0879 12.5222 92.0585 12.5138 92.0359 12.5063C91.8557 12.4495 91.8557 12.4486 91.7258 12.4597C91.6114 12.47 91.497 12.4802 91.3827 12.4905C91.3116 12.4653 91.2389 12.4411 91.1678 12.416C91.0257 12.4281 90.8802 12.4374 90.7398 12.4541C90.674 12.4616 90.6307 12.4588 90.5805 12.4355C90.5181 12.4076 90.4557 12.375 90.3517 12.3908C90.2408 12.4076 90.123 12.4094 90.0104 12.4234C89.8752 12.4402 89.8198 12.3554 89.7106 12.3563C89.5963 12.3573 89.4784 12.3694 89.3675 12.3861C89.2393 12.4057 89.1492 12.3759 89.0574 12.3358C89.0383 12.3274 89.0054 12.3228 88.9811 12.3246C88.6658 12.3517 88.3522 12.3787 88.0368 12.4076C87.8427 12.4253 87.8427 12.4262 87.4737 12.375C87.4477 12.3712 87.4199 12.3675 87.3939 12.3694C87.2796 12.3778 87.1617 12.3843 87.0508 12.4001C86.9157 12.4197 86.8412 12.3694 86.7459 12.3386C86.7251 12.3321 86.6922 12.3358 86.6645 12.3377C86.5778 12.3442 86.4929 12.3526 86.4063 12.3601C86.2919 12.3703 86.1776 12.3805 86.0632 12.3908C85.9922 12.3666 85.9194 12.3414 85.8483 12.3172C85.7063 12.3293 85.5607 12.3358 85.4204 12.3554C85.3129 12.3703 85.2627 12.3312 85.1916 12.3088C85.1674 12.3013 85.1414 12.2855 85.1189 12.2864C84.8607 12.3069 84.6025 12.3284 84.3461 12.3545C84.2404 12.3656 84.1919 12.3237 84.1208 12.3023C84.0966 12.2958 84.0688 12.2836 84.0463 12.2855C83.8748 12.2986 83.7032 12.3144 83.5317 12.3302C83.4347 12.3395 83.4347 12.3395 83.2233 12.2818C83.199 12.2753 83.1713 12.2687 83.147 12.2706C82.603 12.3172 82.0606 12.3666 81.5165 12.4132C81.4611 12.4178 81.4108 12.4038 81.3675 12.3787C81.3225 12.3535 81.2722 12.3405 81.2167 12.3451C80.988 12.3647 80.7576 12.3824 80.5306 12.4066C80.437 12.4169 80.3625 12.4048 80.2984 12.3722C80.2499 12.3479 80.2048 12.3386 80.1442 12.3442C80.0298 12.3554 79.9155 12.3647 79.8011 12.375C79.6868 12.3852 79.5724 12.3955 79.458 12.4057C79.3437 12.416 79.2276 12.4215 79.115 12.4374C78.9763 12.4569 78.9088 12.3992 78.8135 12.3703C78.6419 12.3843 78.4703 12.3982 78.3005 12.4132C78.0718 12.4327 77.8431 12.4542 77.6144 12.4728C77.5936 12.4746 77.5676 12.4579 77.5434 12.4495C77.4723 12.4262 77.4203 12.3936 77.3146 12.4038C76.8017 12.4532 76.2854 12.4951 75.7708 12.5436C75.6633 12.5538 75.6165 12.5138 75.5438 12.4923C75.5195 12.4858 75.4918 12.4728 75.4693 12.4746C75.1834 12.4979 74.8975 12.524 74.6116 12.5492C74.4955 12.5594 74.4955 12.5594 74.3014 12.5017C74.2789 12.4951 74.2494 12.4868 74.2251 12.4886C73.8526 12.5203 73.4818 12.5538 73.1093 12.5864C73.0538 12.5911 73.0036 12.5781 72.9585 12.5529C72.9152 12.5278 72.8632 12.5138 72.8095 12.5184C72.4664 12.5483 72.1216 12.5771 71.7803 12.6097C71.6884 12.6191 71.6122 12.6107 71.5463 12.5771C71.4996 12.5529 71.4528 12.5427 71.3939 12.5482C70.8793 12.5939 70.3646 12.6377 69.85 12.6861C69.7512 12.6955 69.6819 12.6778 69.6196 12.647C69.5693 12.6228 69.526 12.6181 69.4636 12.6219C69.3977 12.6265 69.3579 12.6368 69.3215 12.6647C69.2748 12.701 69.2453 12.7467 69.1344 12.7495C69.02 12.7523 68.9039 12.7635 68.7913 12.7793C68.6839 12.7952 68.6336 12.7532 68.566 12.7281C68.5158 12.7104 68.469 12.7076 68.4049 12.716C68.346 12.7234 68.3096 12.7392 68.275 12.7691C68.1987 12.8324 68.1918 12.8324 68.0982 12.7924C68.048 12.7709 68.0029 12.7542 67.9474 12.7579C67.7187 12.7765 67.49 12.797 67.2613 12.8184C67.1296 12.8306 67.1279 12.8324 67.0291 12.7858C66.9806 12.7625 66.9338 12.7514 66.8766 12.7569C66.2476 12.8128 65.6187 12.8669 64.9897 12.9256C64.8927 12.9349 64.8268 12.9153 64.7575 12.8874C64.735 12.8781 64.7125 12.865 64.6865 12.8613C64.6605 12.8576 64.631 12.8613 64.6033 12.8632C64.1459 12.9032 63.6867 12.9414 63.2309 12.9862C63.127 12.9964 63.0716 12.9666 63.0005 12.9424C62.9763 12.934 62.9554 12.9209 62.9295 12.9172C62.9035 12.9144 62.8723 12.9209 62.8446 12.9237C62.3871 12.9638 61.9279 13.002 61.4722 13.0467C61.3631 13.057 61.3163 13.0178 61.2452 12.9973C61.221 12.9899 61.195 12.9759 61.1725 12.9778C61.0287 12.988 60.8866 13.002 60.7428 13.0141C60.3997 13.0448 60.0566 13.0737 59.7135 13.1054C59.5818 13.1175 59.5246 13.0346 59.4137 13.0383C59.2699 13.043 59.1278 13.0616 58.984 13.0747C58.8697 13.0849 58.7553 13.0942 58.6409 13.1054C58.5283 13.1157 58.5283 13.1157 58.2476 13.0616C58.2233 13.057 58.1939 13.0504 58.1696 13.0523C57.7694 13.0868 57.3674 13.1212 56.9689 13.1585C56.877 13.1669 56.8008 13.1622 56.7349 13.1278C56.6881 13.1036 56.6396 13.0914 56.5825 13.097C55.9812 13.1501 55.3817 13.2032 54.7804 13.2554C54.7579 13.2573 54.7284 13.248 54.7059 13.2405C54.6574 13.2237 54.6106 13.2042 54.5638 13.1865C54.5292 13.2079 54.4841 13.2275 54.4616 13.2517C54.4304 13.2843 54.3888 13.2936 54.323 13.2992C54.2571 13.3048 54.2156 13.3029 54.1636 13.2787C54.1012 13.2489 54.0371 13.2256 53.9348 13.2349C53.3059 13.2936 52.6769 13.3467 52.0479 13.4045C51.9439 13.4138 51.8954 13.3728 51.8226 13.3514C51.7984 13.3449 51.7706 13.3346 51.7481 13.3365C51.4899 13.3579 51.2335 13.3812 50.9753 13.4036C50.2597 13.4669 49.5441 13.5275 48.8302 13.5946C48.7003 13.6067 48.6119 13.5834 48.52 13.5433C48.501 13.5349 48.4681 13.5303 48.4438 13.5321C47.4423 13.6197 46.4408 13.7082 45.441 13.7967C45.3873 13.8014 45.3353 13.7865 45.2919 13.7623C45.2469 13.7371 45.1967 13.725 45.1412 13.7297C44.6838 13.7697 44.2263 13.8098 43.7689 13.8508C43.6545 13.861 43.6528 13.862 43.535 13.8172C43.5107 13.8079 43.4847 13.7902 43.4657 13.7921C43.4258 13.7967 43.3877 13.82 43.36 13.8517C43.3322 13.8852 43.2889 13.8946 43.2248 13.9011C43.159 13.9076 43.1156 13.9048 43.0654 13.8825C43.0013 13.8545 42.9424 13.8275 42.8384 13.8368C41.5233 13.9561 40.2081 14.0707 38.893 14.189C38.7873 14.1983 38.7387 14.1592 38.666 14.1377C38.6417 14.1312 38.6175 14.1219 38.5915 14.12C38.5637 14.1182 38.5343 14.1238 38.5066 14.1266C36.3614 14.3157 34.2163 14.5058 32.0712 14.6949C31.943 14.7061 31.9447 14.7061 31.8044 14.7918C31.787 14.802 31.7645 14.816 31.7402 14.8179C31.0835 14.8775 30.4251 14.9353 29.7667 14.993C29.4808 15.0182 29.1949 15.0443 28.909 15.0685C28.8067 15.0769 28.8067 15.0769 28.5624 15.1775C28.5416 15.1859 28.5173 15.1971 28.4931 15.199C27.3495 15.3005 26.2059 15.4021 25.0605 15.5018C24.9704 15.5092 24.8977 15.526 24.8561 15.5707C24.8266 15.6024 24.7885 15.621 24.7313 15.6266C23.9308 15.6974 23.1303 15.7692 22.328 15.8381C22.2327 15.8465 22.1755 15.8726 22.1288 15.9117C22.1132 15.9248 22.0993 15.9397 22.0768 15.949C22.056 15.9574 22.0248 15.9602 21.9988 15.9629C21.3126 16.0235 20.6265 16.0859 19.9386 16.1437C19.8364 16.1521 19.7948 16.1866 19.7445 16.2229C19.7272 16.235 19.715 16.2518 19.6925 16.2602C19.67 16.2676 19.6371 16.2676 19.6093 16.2695C19.0375 16.3198 18.4658 16.371 17.894 16.4214C17.7831 16.4167 17.7588 16.4707 17.7051 16.5033C17.686 16.5145 17.6722 16.5294 17.6497 16.5369C17.6254 16.5443 17.5942 16.5434 17.5647 16.5453C17.1073 16.5853 16.6498 16.6282 16.1907 16.6655C16.085 16.6738 16.0642 16.7214 16.007 16.754C15.9879 16.7642 15.9689 16.7801 15.9464 16.7829C15.6605 16.8099 15.3746 16.835 15.0887 16.8592C14.9934 16.8676 14.9934 16.8667 14.8253 16.9589C14.8062 16.9692 14.7837 16.9804 14.7594 16.9832C14.3314 17.0223 13.9017 17.0596 13.472 17.0978C13.4166 17.1024 13.3785 17.1248 13.3507 17.1565C13.323 17.1881 13.2832 17.2086 13.2277 17.2133C12.8846 17.244 12.5415 17.2757 12.1984 17.3037C12.1031 17.3111 12.0408 17.3344 11.9992 17.3764C11.968 17.408 11.9299 17.4239 11.8692 17.4295C11.5262 17.4593 11.1831 17.4919 10.8383 17.518C10.7378 17.5254 10.6858 17.5571 10.6442 17.5962C10.6113 17.6279 10.5731 17.6391 10.509 17.6447C9.88004 17.6987 9.24934 17.7528 8.62209 17.8124C8.51639 17.8226 8.46267 17.79 8.39336 17.7667C8.29459 17.7341 8.20278 17.6987 8.20278 17.626C8.20278 17.6149 8.17332 17.6018 8.15253 17.5925C7.99831 17.5226 7.99831 17.5226 7.97405 17.4481C7.96019 17.4024 7.94459 17.3559 7.93247 17.3093C7.90994 17.2329 7.85447 17.2133 7.69506 17.2273C7.63788 17.2319 7.5807 17.2385 7.52352 17.2422C7.43862 17.2487 7.37451 17.218 7.35892 17.1621C7.35026 17.1313 7.33988 17.1006 7.33121 17.0698C7.41785 17.0624 7.41609 17.0614 7.56857 16.9487C7.63269 16.9012 7.63271 16.9012 7.50969 16.8537C7.4629 16.836 7.41784 16.8164 7.36759 16.7996C7.34507 16.7922 7.31562 16.7875 7.29136 16.7894C7.14754 16.8006 7.00547 16.8136 6.86338 16.8266C6.63466 16.8471 6.63463 16.8471 6.40245 16.7521C6.38339 16.7446 6.35393 16.7307 6.35739 16.7232C6.37645 16.6888 6.42323 16.6738 6.48215 16.6701C6.56878 16.6645 6.65368 16.6552 6.73859 16.6478C6.79577 16.6431 6.85295 16.6375 6.91013 16.6329C6.96384 16.5974 7.01932 16.563 7.06957 16.5266C7.14927 16.4707 7.14924 16.4689 7.04008 16.4297C6.97077 16.4036 6.89627 16.3804 6.82522 16.3561C6.74032 16.3636 6.65369 16.372 6.56878 16.3785C6.46135 16.3869 6.41803 16.3692 6.39031 16.3086C6.36605 16.2555 6.39551 16.2099 6.47868 16.1987C6.56358 16.1875 6.64332 16.18 6.68664 16.1325C6.72822 16.0869 6.80099 16.0692 6.89109 16.0654C6.94827 16.0626 7.00545 16.0561 7.06263 16.0505C7.13714 16.0431 7.177 15.9956 7.16141 15.9425C7.15274 15.908 7.13541 15.8791 7.06783 15.8716C6.76807 15.839 6.76459 15.84 6.61557 15.7766C6.60171 15.771 6.59134 15.7543 6.59653 15.7459C6.6052 15.7319 6.62426 15.7114 6.64506 15.7086C6.84432 15.6881 7.04358 15.6695 7.24284 15.6555C7.30868 15.6508 7.35721 15.6443 7.37973 15.6098C7.41092 15.5623 7.39706 15.5185 7.33641 15.4859C7.31735 15.4757 7.28614 15.4626 7.26535 15.4636C7.03662 15.4803 6.80964 15.5018 6.58092 15.5185C6.56013 15.5204 6.52203 15.5046 6.51337 15.4924C6.49604 15.4701 6.52201 15.4403 6.58266 15.43C6.66236 15.416 6.7438 15.4151 6.79752 15.3685C6.87202 15.3024 6.96385 15.2418 7.04702 15.1785C7.06088 15.1673 7.08344 15.1458 7.07824 15.144C7.03492 15.1235 6.98466 15.1076 6.93961 15.0881C6.86337 15.0555 6.86336 15.0098 6.88068 14.966C6.89455 14.9306 6.94653 14.9166 7.01064 14.9166C7.03836 14.9166 7.07302 14.9166 7.09554 14.9083C7.15445 14.8878 7.17352 14.8617 7.14406 14.8421C7.12674 14.8309 7.09556 14.8151 7.07477 14.817C6.70396 14.8477 6.3314 14.8775 5.96233 14.9157C5.85316 14.9269 5.80295 14.8915 5.7371 14.8663C5.68685 14.8468 5.64004 14.8393 5.57766 14.8533C5.51875 14.8663 5.46159 14.8589 5.4252 14.8281C5.39575 14.803 5.44772 14.7816 5.58807 14.7573C5.61406 14.7527 5.64351 14.7499 5.66257 14.7406C5.86356 14.6399 5.86356 14.639 6.00218 14.626C6.13733 14.6138 6.13736 14.6129 6.2084 14.5589C6.24132 14.5337 6.27768 14.5086 6.30887 14.4825C6.321 14.4722 6.34182 14.4536 6.33489 14.448C6.29677 14.4191 6.24477 14.4126 6.18412 14.4191C6.04897 14.435 5.88958 14.4219 5.81854 14.5104C5.79081 14.544 5.74749 14.5533 5.68511 14.5589C5.05786 14.6129 4.43059 14.6707 3.80161 14.7229C3.69938 14.7312 3.65262 14.7657 3.61277 14.8039C3.57811 14.8356 3.53999 14.8449 3.47414 14.8505C3.4083 14.8561 3.35629 14.8589 3.31817 14.8281C3.29564 14.8095 3.31471 14.7834 3.36669 14.7573C3.4412 14.7201 3.42733 14.6735 3.40307 14.6297C3.38575 14.6008 3.33203 14.5803 3.27485 14.5822C3.18995 14.5859 3.10853 14.5961 3.03749 14.5589C2.9959 14.5374 2.94391 14.5225 2.89713 14.5039C2.80703 14.4657 2.71692 14.4266 2.59043 14.4517C2.50379 14.4424 2.44315 14.4089 2.37384 14.3828C2.25775 14.3399 2.24735 14.3334 2.33052 14.2877C2.42409 14.2365 2.3513 14.1694 2.40328 14.1191C2.45873 14.0651 2.53499 14.0176 2.60257 13.9672C2.6199 13.9542 2.6355 13.9421 2.65283 13.929C2.61297 13.9104 2.57659 13.8871 2.52981 13.8741C2.46916 13.8573 2.43797 13.8368 2.44144 13.779C2.42931 13.7707 2.43447 13.7921 2.44833 13.7977C2.46393 13.8033 2.50208 13.7986 2.52114 13.7921C2.56965 13.7744 2.59389 13.7511 2.58176 13.7315C2.57483 13.7213 2.54193 13.7082 2.52114 13.7082C2.48302 13.7082 2.4501 13.7287 2.4397 13.779C2.24564 13.8172 2.04461 13.8359 1.84361 13.8508C1.82282 13.8526 1.79684 13.834 1.77258 13.8247C1.69288 13.793 1.69287 13.7939 1.45895 13.7846C1.43469 13.7837 1.40179 13.7707 1.38966 13.7576C1.33941 13.7008 1.34115 13.6383 1.3169 13.5778C1.36195 13.5387 1.40696 13.5005 1.45375 13.4623C1.54731 13.3849 1.66863 13.3169 1.74141 13.2321C1.72581 13.1865 1.70502 13.1408 1.78126 13.1036C1.99785 13.057 1.99613 13.057 2.05504 13.0122C2.22312 12.8855 2.38945 12.7579 2.56446 12.633C2.61124 12.6004 2.61125 12.5827 2.52808 12.5688C2.50208 12.565 2.47432 12.5641 2.4466 12.566C2.35996 12.5725 2.27333 12.5892 2.18842 12.5855C2.10352 12.5827 2.04114 12.5417 1.97183 12.5166C1.90079 12.4905 1.82975 12.4635 1.75871 12.4364C1.67727 12.4392 1.59585 12.4653 1.51441 12.4234C1.45203 12.3908 1.37406 12.3675 1.30302 12.3405C1.35673 12.2697 1.45725 12.2156 1.53522 12.1532C1.60626 12.0964 1.60796 12.0973 1.79856 12.0535C1.88866 12.033 1.91985 11.9277 1.84361 11.897C1.75178 11.8597 1.65476 11.8252 1.5612 11.7898C1.47976 11.7926 1.3966 11.8178 1.31863 11.7759C1.25798 11.7442 1.18866 11.7228 1.08816 11.7349C0.918355 11.7554 0.745086 11.7656 0.573545 11.7824C0.514632 11.788 0.450503 11.7843 0.424512 11.7526C0.407184 11.7302 0.457437 11.6995 0.514617 11.6929C0.601254 11.6836 0.679219 11.6725 0.722537 11.6259C0.764123 11.5793 0.840354 11.5653 0.930457 11.5588C0.954715 11.5569 0.982459 11.5457 0.994588 11.5346C1.05697 11.4805 1.12628 11.4339 1.2597 11.4358C1.31515 11.4172 1.34459 11.3939 1.32726 11.3715C1.31686 11.3594 1.28049 11.3436 1.2597 11.3454C1.11588 11.3547 0.972073 11.3641 0.831721 11.3808C0.765877 11.3883 0.715601 11.3901 0.674015 11.3622C0.644559 11.3436 0.660152 11.3184 0.715599 11.2914C0.764116 11.2681 0.777993 11.2411 0.774527 11.2094C0.765864 11.1358 0.713872 11.1144 0.547529 11.119C0.42797 11.1227 0.398512 11.1106 0.372521 11.0473C0.36559 11.0324 0.348293 11.0119 0.360422 11.0016C0.43493 10.9383 0.48345 10.86 0.623801 10.8302C0.679249 10.819 0.738138 10.819 0.772793 10.7948C0.807448 10.7706 0.838652 10.7426 0.87504 10.7193C0.920091 10.6914 0.951249 10.6653 0.930457 10.6476C0.895802 10.6159 0.840373 10.6131 0.776262 10.6243C0.720814 10.6336 0.661903 10.6345 0.604723 10.6401C0.502491 10.6504 0.419339 10.6261 0.40721 10.5851C0.374288 10.4771 0.339623 10.3699 0.310166 10.2618C0.306701 10.2488 0.315341 10.232 0.329203 10.2208C0.377719 10.1817 0.429722 10.1444 0.479971 10.1062C0.538884 10.0625 0.632467 10.0708 0.712173 10.0625C0.8248 10.0504 0.824762 10.0513 0.975509 9.96183C1.03442 9.92643 1.13666 9.94041 1.1973 9.90873C1.21636 9.89848 1.24582 9.88171 1.24062 9.87239C1.23369 9.86028 1.19906 9.85096 1.17306 9.84537C1.14881 9.83978 1.11936 9.83699 1.09337 9.83978C0.778008 9.8668 0.464392 9.89569 0.149034 9.92177C0.095319 9.92643 0.0364044 9.90594 0.0173443 9.87705C-0.00171581 9.85003 0.00346547 9.81742 0 9.78667C0.0502493 9.74847 0.107408 9.71307 0.150726 9.67207C0.183648 9.64039 0.221775 9.62642 0.287619 9.62455C0.374256 9.62176 0.459168 9.61058 0.556201 9.60219C0.736406 9.46616 0.913133 9.32362 1.1072 9.18759C1.18517 9.13262 1.16614 9.07671 1.18174 9.01801C1.19733 8.96397 1.31342 8.97237 1.39139 8.95653C1.45377 8.94348 1.47454 8.91366 1.45028 8.89317C1.43642 8.88106 1.40524 8.86708 1.38098 8.86708C1.3238 8.86708 1.26663 8.87546 1.20945 8.88012C1.15227 8.88478 1.08642 8.88199 1.03964 8.89783C0.99459 8.91274 0.965116 8.94441 0.93566 8.97143C0.902738 9.00124 0.85945 9.0115 0.793606 9.01336C0.708702 9.01522 0.623803 9.0236 0.538899 9.03013C0.445331 8.99379 0.348278 8.95839 0.258176 8.92019C0.240848 8.91274 0.237364 8.89131 0.239097 8.87734C0.242563 8.841 0.216578 8.81863 0.159398 8.80093C0.110881 8.78602 0.0710252 8.7646 0.0259741 8.74596C0.0606288 8.72081 0.0987625 8.69658 0.126486 8.66956C0.187132 8.61272 0.263381 8.57174 0.395069 8.5736C0.447051 8.53726 0.488624 8.49254 0.556201 8.46738C0.620312 8.44316 0.72948 8.46737 0.777996 8.4124C0.802255 8.38538 0.838662 8.35464 0.885446 8.34346C0.959954 8.32576 1.05699 8.33508 1.1003 8.28291C1.12629 8.25309 1.1644 8.22607 1.21465 8.21861C1.27183 8.21023 1.33073 8.20837 1.37231 8.19067C1.39484 8.18135 1.4191 8.16644 1.4191 8.1534C1.4191 8.14501 1.38447 8.13197 1.36021 8.12638C1.33769 8.11985 1.3082 8.1152 1.28221 8.11706C1.19557 8.12265 1.11067 8.1329 1.02403 8.13849C0.999773 8.14035 0.972058 8.13383 0.946066 8.12824C0.869826 8.11333 0.875014 8.0947 0.93566 8.06116C0.996306 8.02855 1.03965 7.98662 1.0899 7.94842C1.14534 7.94189 1.21464 7.94469 1.25276 7.92699C1.31688 7.89811 1.36191 7.85618 1.4139 7.81984C1.47108 7.81425 1.52999 7.81239 1.5837 7.80214C1.60623 7.79842 1.61663 7.77792 1.63569 7.76581C1.67035 7.74251 1.69983 7.70897 1.74661 7.69779C1.82285 7.68102 1.91642 7.68754 1.96147 7.6363C1.98746 7.60648 2.0273 7.57481 2.07581 7.57295C2.21097 7.56922 2.26815 7.51797 2.33746 7.46952C2.38944 7.43318 2.50034 7.45182 2.55752 7.41548C2.59564 7.39219 2.62338 7.3633 2.6615 7.34094C2.67709 7.33163 2.71 7.32697 2.736 7.32418C2.87808 7.3102 3.02189 7.29995 3.16398 7.28504C3.1865 7.28225 3.20731 7.26828 3.22464 7.2571C3.26103 7.23287 3.28353 7.19933 3.32858 7.18349C3.37363 7.16765 3.43773 7.16765 3.49318 7.163C3.67165 7.14902 3.68553 7.15274 3.76696 7.07354C3.83281 7.00926 3.99397 7.05491 4.04769 6.9841C4.07888 6.94311 4.13603 6.90957 4.23826 6.90491C4.38208 6.89839 4.52416 6.88069 4.66798 6.86857C4.7962 6.85739 4.79447 6.85739 4.93309 6.77074C4.99547 6.73161 5.08732 6.7372 5.16876 6.72975C5.2554 6.7223 5.3351 6.71112 5.37668 6.66454C5.41827 6.61888 5.4945 6.60397 5.58287 6.59744C5.66431 6.59092 5.75616 6.59559 5.82027 6.55832C5.97622 6.46888 5.97449 6.46794 6.08365 6.45862C6.25519 6.44371 6.42673 6.42881 6.59827 6.41297C6.71263 6.40272 6.83218 6.40086 6.93961 6.38036C7.01758 6.36545 7.05223 6.31328 7.10248 6.27694C7.24456 6.26297 7.38664 6.24899 7.52872 6.23594C7.72799 6.21731 7.92898 6.20054 8.12998 6.18284C8.21662 6.14743 8.22877 6.06917 8.37432 6.06544C8.46096 6.06358 8.54586 6.05147 8.6325 6.04402C8.77631 6.03097 8.91839 6.0142 9.06221 6.00768C9.17137 6.00302 9.1904 5.9527 9.24758 5.92102C9.26664 5.90984 9.28399 5.89401 9.30651 5.89122C9.53177 5.86513 9.76394 5.85954 9.984 5.82134C10.0065 5.81761 10.0273 5.79804 10.0325 5.78407C10.036 5.77661 10.0065 5.76264 9.98747 5.75612C9.96494 5.74867 9.93549 5.74121 9.91124 5.74308C9.19562 5.8055 8.48001 5.86886 7.7644 5.93128C7.6639 5.9406 7.6639 5.93966 7.41958 6.04215C7.39879 6.05054 7.3745 6.05985 7.34851 6.06265C7.23415 6.07383 7.11806 6.08036 7.00544 6.09433C6.9136 6.10551 6.83739 6.09432 6.77154 6.06078C6.72476 6.03656 6.67622 6.02911 6.6173 6.03097C6.55146 6.03377 6.50817 6.04402 6.47005 6.06917C6.4198 6.10365 6.3938 6.14836 6.2881 6.15768C5.8012 6.19774 5.31428 6.24247 4.82911 6.28532C4.76153 6.27228 4.72861 6.25272 4.74594 6.22942C4.75634 6.21545 4.77714 6.19682 4.79793 6.19495C4.9972 6.17539 5.19819 6.15862 5.39745 6.13998C5.42518 6.13719 5.46329 6.13904 5.47889 6.12973C5.55513 6.0878 5.58288 6.01979 5.7267 6.01513C5.80987 6.01233 5.89476 5.99836 5.97447 5.98532C5.99699 5.98159 6.01779 5.96202 6.02299 5.94805C6.02472 5.94059 5.99699 5.92661 5.9762 5.92009C5.89996 5.89307 5.81161 5.92569 5.73537 5.90706C5.70938 5.90054 5.67297 5.89122 5.66777 5.88004C5.6643 5.86979 5.69376 5.85301 5.71456 5.84276C5.73362 5.83345 5.75959 5.82507 5.78558 5.82227C6.0143 5.80084 6.24306 5.77848 6.47178 5.76171C6.56535 5.75518 6.63118 5.73189 6.67276 5.68903C6.70395 5.65735 6.74207 5.64059 6.80098 5.63593C7.20125 5.60146 7.6015 5.56326 8.00349 5.53158C8.10399 5.52412 8.15599 5.49338 8.19758 5.45332C8.2305 5.42164 8.26863 5.41046 8.33274 5.40487C8.90627 5.35642 9.47633 5.30238 10.0499 5.2558C10.1556 5.24741 10.1868 5.20735 10.2405 5.17287C10.2595 5.16076 10.2716 5.14585 10.2959 5.1384C10.3202 5.13095 10.3513 5.13187 10.3808 5.13001C10.8382 5.08994 11.2957 5.04709 11.7549 5.00983C11.8623 5.00144 11.8831 4.95485 11.9385 4.92224C11.9576 4.91199 11.9749 4.89522 11.9975 4.89243C12.3405 4.86075 12.6836 4.83094 13.0267 4.80019C13.2554 4.77969 13.4841 4.75919 13.7128 4.73963C13.8255 4.73031 13.8255 4.72937 13.978 4.64086C13.9953 4.63061 14.0196 4.6185 14.0421 4.6157C14.7005 4.55608 15.3572 4.49925 16.0157 4.44055C16.0711 4.4359 16.111 4.41446 16.1387 4.38278C16.1664 4.3511 16.2063 4.32967 16.26 4.32501C16.7746 4.27843 17.2892 4.23278 17.8056 4.18899C17.8992 4.18153 17.965 4.15917 18.0066 4.11724C18.0378 4.08557 18.0759 4.0688 18.1348 4.06414C18.6494 4.01942 19.1641 3.9719 19.6804 3.92904C19.7792 3.92065 19.8277 3.88898 19.8762 3.85171C19.8935 3.83867 19.9074 3.81724 19.9282 3.81537C20.1846 3.78928 20.4393 3.76226 20.6975 3.74456C20.8049 3.73711 20.8413 3.69797 20.8847 3.66071C20.9193 3.63089 20.9592 3.62065 21.025 3.61692C21.1688 3.60853 21.3109 3.5927 21.4513 3.57686C21.4721 3.57407 21.4981 3.55357 21.4998 3.54052C21.5033 3.5163 21.4634 3.49953 21.3975 3.49114C20.7114 3.5517 20.0235 3.61226 19.3373 3.67282C19.2247 3.68307 19.2247 3.68307 19.0722 3.77159C19.0549 3.78183 19.0306 3.79395 19.0064 3.79674C18.3479 3.85544 17.6912 3.91321 17.0328 3.9719C16.9773 3.97656 16.9375 3.99799 16.9098 4.02967C16.8821 4.06135 16.8422 4.08278 16.7884 4.08743C16.1595 4.14334 15.5305 4.20017 14.8998 4.25328C14.8062 4.26073 14.7404 4.28215 14.6988 4.32501C14.6676 4.35669 14.6295 4.37347 14.5706 4.37813C13.9693 4.4303 13.3698 4.48527 12.7668 4.53558C12.7061 4.54024 12.6611 4.51322 12.6646 4.48806C12.6663 4.47502 12.6923 4.4536 12.7131 4.45173C13.0267 4.42099 13.3386 4.38931 13.654 4.36601C13.7597 4.35856 13.7908 4.31756 13.8445 4.28309C13.8619 4.27098 13.8757 4.25514 13.8983 4.24862C13.9225 4.24116 13.9537 4.2421 13.9832 4.24024C14.7265 4.17408 15.4699 4.107 16.2149 4.04458C16.3224 4.03526 16.3431 3.9896 16.3986 3.95699C16.4176 3.94581 16.435 3.92905 16.4575 3.92718C16.6862 3.90482 16.9149 3.88525 17.1437 3.86569C17.5439 3.83028 17.9442 3.79488 18.3462 3.75947C18.4623 3.74922 18.4623 3.74922 18.6113 3.66164C18.6286 3.65139 18.6529 3.63836 18.6754 3.63649C19.7341 3.54239 20.7928 3.44829 21.8515 3.35512C21.907 3.35046 21.9468 3.32903 21.9746 3.29735C22.0023 3.2666 22.0421 3.24424 22.0958 3.23865C23.5271 3.11194 24.9566 2.98522 26.3878 2.86037C26.4814 2.85199 26.5472 2.83242 26.5888 2.78863C26.6183 2.75695 26.6581 2.74019 26.717 2.7346C28.2904 2.59577 29.8637 2.45695 31.4387 2.31719C32.4974 2.22402 33.5561 2.12899 34.6148 2.03768C34.7119 2.0293 34.7638 2.00041 34.8124 1.96221C34.828 1.94917 34.8436 1.92773 34.8644 1.92587C35.0913 1.90258 35.3183 1.88115 35.5453 1.85972C35.6163 1.88488 35.6874 1.90911 35.7584 1.93426C35.8121 1.89886 35.8642 1.86252 35.9179 1.82712C36.2609 1.8001 36.5988 1.75817 36.9454 1.74513C36.9679 1.74419 36.9921 1.7619 37.0164 1.77122C37.1775 1.82991 37.2694 1.82525 37.3716 1.74699C37.408 1.71904 37.4392 1.69388 37.4946 1.68923C37.6662 1.67245 37.8395 1.66127 38.0093 1.64171C38.1011 1.63146 38.1773 1.64077 38.2432 1.67432C38.29 1.69854 38.3385 1.70879 38.3957 1.7032C38.711 1.67525 39.0247 1.64823 39.34 1.61842C39.3625 1.61655 39.3833 1.60071 39.4006 1.58953C39.437 1.5653 39.4682 1.53922 39.5029 1.51406C39.5497 1.5299 39.6017 1.54202 39.6398 1.56252C39.6883 1.58674 39.7333 1.58673 39.7992 1.58021C41.0571 1.46748 42.3168 1.35754 43.5748 1.24387C43.6822 1.23455 43.729 1.27369 43.8018 1.29418C43.8261 1.30164 43.8503 1.31095 43.8763 1.31281C43.904 1.31468 43.9335 1.30909 43.9612 1.3063C44.9056 1.22244 45.8499 1.13951 46.7942 1.05566C46.919 1.04448 46.919 1.04448 47.1044 1.10225C47.1269 1.1097 47.1564 1.11809 47.1806 1.11529C47.6104 1.07896 48.0401 1.03983 48.4681 1.00256C48.5235 0.997901 48.5703 1.0128 48.6206 1.03423C48.7193 1.07616 48.7262 1.07616 48.799 1.01467C48.8336 0.985789 48.87 0.968078 48.9272 0.959693C48.9896 0.950376 49.0399 0.953181 49.0884 0.969952C49.1577 0.993244 49.208 1.03237 49.3137 1.02212C49.7711 0.978331 50.2303 0.941998 50.686 0.897276C50.7899 0.887027 50.8454 0.918703 50.9147 0.941996C50.939 0.950381 50.9615 0.963426 50.9875 0.966221C51.0134 0.969016 51.0446 0.962488 51.0724 0.959693C51.6442 0.909381 52.2177 0.860009 52.7878 0.805971C52.8952 0.795722 52.942 0.835777 53.0147 0.856275C53.039 0.863729 53.0667 0.876779 53.0892 0.874916C53.4323 0.846033 53.7772 0.815278 54.1203 0.784532C54.2433 0.773351 54.2432 0.774283 54.4304 0.831117C54.4529 0.838571 54.4824 0.846026 54.5067 0.844162C54.9069 0.809689 55.3089 0.774284 55.7092 0.738879C55.8322 0.727699 55.8322 0.727701 56.1874 0.77615C56.2134 0.779876 56.2411 0.785474 56.2671 0.783611C56.7245 0.743547 57.1837 0.70441 57.6411 0.661552C57.733 0.653166 57.8092 0.660618 57.8751 0.694159C57.9219 0.718383 57.9704 0.728638 58.0275 0.723047C58.5422 0.677394 59.0585 0.633605 59.5714 0.585157C59.6702 0.57584 59.7343 0.596329 59.8036 0.623349C59.8261 0.632666 59.8487 0.645712 59.8747 0.649439C59.9007 0.653166 59.9301 0.649436 59.9578 0.646641C60.4725 0.600988 60.9888 0.558131 61.5017 0.508751C61.6056 0.498502 61.6611 0.530178 61.7304 0.553471C61.7547 0.561856 61.7806 0.578628 61.8014 0.577696C62.0024 0.561857 62.2034 0.547886 62.4027 0.524594C62.5101 0.51155 62.5569 0.554401 62.6297 0.574898C62.654 0.58142 62.6817 0.595402 62.7042 0.593539C63.1339 0.557202 63.5637 0.519005 63.9916 0.479874C64.0523 0.474283 64.0973 0.482661 64.1458 0.506885C64.2099 0.539495 64.2845 0.552539 64.378 0.542291C64.5773 0.520861 64.7783 0.505958 64.9793 0.488256C65.0971 0.478007 65.0971 0.47801 65.4575 0.526459C65.4835 0.530186 65.5112 0.535772 65.5372 0.533908C65.8803 0.504094 66.2251 0.475213 66.5665 0.442603C66.6583 0.433286 66.7346 0.441669 66.8004 0.475211C66.8472 0.499435 66.8939 0.509689 66.9529 0.504099C67.2682 0.476148 67.5819 0.448194 67.8972 0.420243C68.0116 0.409994 68.126 0.392287 68.2403 0.392287C68.3235 0.393219 68.3841 0.437939 68.4586 0.4603C68.4794 0.466822 68.5141 0.459377 68.5418 0.457514C68.9421 0.422109 69.3441 0.389496 69.7426 0.349433C69.8465 0.339184 69.902 0.37086 69.9713 0.394153C69.9956 0.402538 70.0215 0.41931 70.0423 0.418378C70.1862 0.408129 70.3282 0.394152 70.4721 0.38204C70.6436 0.367133 70.8169 0.355952 70.9867 0.335455C71.1253 0.318684 71.1773 0.39974 71.2882 0.402535C71.3731 0.40533 71.4597 0.389494 71.5446 0.38204C71.7161 0.367133 71.8877 0.350364 72.0592 0.33732C72.1199 0.332661 72.1667 0.317748 72.1858 0.284206C72.1892 0.277684 72.1598 0.263715 72.1407 0.255329C71.9102 0.160295 71.9102 0.160291 71.678 0.180788C71.5342 0.193832 71.3921 0.206878 71.2483 0.218059C71.2241 0.219922 71.1963 0.212469 71.1721 0.206879C71.1028 0.19104 71.1097 0.172408 71.1686 0.138866C71.2275 0.105325 71.2726 0.0643334 71.3228 0.0261335C71.3939 0.0503578 71.4632 0.0745735 71.5342 0.0987979C71.5914 0.0941393 71.6486 0.0885573 71.7058 0.0838988C71.9917 0.0596744 72.2776 0.0345165 72.5635 0.0121556C72.5843 0.0102922 72.6102 0.028929 72.6345 0.0382461C72.7038 0.0652656 72.7662 0.0885518 72.8667 0.0783031C73.1232 0.0512836 73.3813 0.0317178 73.6378 0.00842515C73.7504 -0.00182361 73.7504 -0.0018227 73.9479 0.055943C73.9705 0.062465 73.9999 0.0699191 74.0242 0.0680557C74.2823 0.0466264 74.5388 0.0233365 74.797 0.000975602C74.8524 -0.00368293 74.9061 0.00842879 74.946 0.0354483C74.9616 0.0466287 74.9581 0.0652592 75.024 0.218059C75.2284 0.341976 75.3688 0.328938 75.5109 0.317758C75.5715 0.313099 75.6252 0.308436 75.6651 0.289802C75.6858 0.279553 75.7118 0.264644 75.7118 0.252532C75.7118 0.243214 75.6737 0.228304 75.6495 0.226441C75.4779 0.207807 75.315 0.246944 75.147 0.255329C75.069 0.259056 75.0014 0.226446 74.9876 0.173339C74.9841 0.158432 74.9789 0.142593 74.9737 0.127686C74.9685 0.112779 74.9651 0.0969408 74.9599 0.0820335C74.8923 0.077375 74.8524 0.094143 74.823 0.125821C74.7987 0.151909 74.764 0.181723 74.7173 0.195699C74.6705 0.210606 74.6064 0.207816 74.5492 0.212475C74.4937 0.217133 74.4331 0.229244 74.3811 0.222722C74.3291 0.215268 74.2875 0.188244 74.239 0.171474C74.2165 0.163088 74.1888 0.150981 74.1663 0.152844C73.967 0.168683 73.7695 0.184516 73.5719 0.205014C73.468 0.216194 73.416 0.177068 73.3501 0.152844C73.2982 0.13421 73.2462 0.138863 73.2375 0.181721C73.215 0.284209 73.2947 0.327065 73.4714 0.307499C73.617 0.290728 73.7487 0.287942 73.863 0.351298C73.8786 0.359683 73.915 0.363409 73.9375 0.361545C74.0796 0.350365 74.22 0.336388 74.362 0.325207C74.388 0.323344 74.4158 0.327065 74.44 0.330792C74.7935 0.381104 74.7935 0.38204 74.9131 0.37086C74.9703 0.36527 75.0257 0.360611 75.0205 0.218992C75.1296 0.0671235 75.3029 0.0568766 75.471 0.0345156C75.5802 0.0205401 75.6269 0.0615369 75.698 0.0829661C75.7222 0.0904198 75.7482 0.105324 75.7708 0.103461C76.1433 0.0727146 76.5141 0.0401004 76.8849 0.00562731C76.9473 3.70724e-05 76.9923 0.00562822 77.0408 0.0298526C77.1032 0.0605988 77.1725 0.0801688 77.2713 0.0689883C77.4688 0.0466274 77.6698 0.032655 77.8708 0.0140208C77.9731 0.00470379 77.9731 0.00469424 78.1793 0.06246C78.2018 0.0689819 78.2312 0.076436 78.2555 0.0745726C78.4565 0.0587336 78.6558 0.0391737 78.855 0.022403C78.9105 0.0177445 78.9607 0.030787 79.004 0.055943C79.0474 0.0810991 79.0994 0.0941416 79.1531 0.0894831C79.3541 0.0727124 79.5533 0.0540842 79.7526 0.0373135C79.7769 0.0354501 79.8063 0.0419716 79.8288 0.0484935C80.0402 0.106259 80.0402 0.10625 80.1373 0.0969326C80.2793 0.082957 80.4249 0.0764424 80.5652 0.0578083C80.7021 0.0391742 80.7732 0.0932085 80.8667 0.123023C81.1232 0.101594 81.3813 0.083896 81.6361 0.0578083C81.74 0.0466278 81.7955 0.0773714 81.8648 0.101596C81.889 0.109981 81.9133 0.127685 81.9358 0.126754C82.0224 0.123027 82.1074 0.11278 82.1923 0.105326C82.2772 0.0978725 82.3638 0.0904198 82.4487 0.0829661C82.5458 0.109986 82.6099 0.173341 82.7485 0.151911C82.8317 0.138868 82.92 0.136072 83.0049 0.128619C83.0898 0.121165 83.1765 0.113712 83.2614 0.106259C83.3186 0.1016 83.3775 0.098801 83.4329 0.0904157C83.5352 0.0764401 83.5854 0.122099 83.6582 0.142597C83.6824 0.149119 83.7102 0.160292 83.7327 0.158428C83.9042 0.145384 84.0775 0.134205 84.2456 0.112776C84.3755 0.096005 84.4639 0.12396 84.5557 0.163091C84.5748 0.171477 84.6077 0.176135 84.632 0.174271C84.833 0.158432 85.0322 0.138861 85.2315 0.12209C85.2852 0.117432 85.3372 0.132339 85.3805 0.156563C85.4256 0.181719 85.4758 0.19384 85.5312 0.189182C85.7305 0.172411 85.9315 0.153772 86.1308 0.137001C86.1551 0.135138 86.1845 0.142593 86.207 0.150046C86.4011 0.207812 86.4011 0.208745 86.5155 0.197564C86.5432 0.194769 86.5726 0.192898 86.6004 0.190103C86.7424 0.177059 86.8897 0.172407 87.0283 0.150046C87.1878 0.12489 87.3038 0.15657 87.4165 0.209677C87.5586 0.198496 87.7041 0.191973 87.8427 0.173339C87.9467 0.159363 88.0021 0.194766 88.0715 0.218059C88.0957 0.226444 88.1217 0.243215 88.1425 0.241352C88.3435 0.225513 88.5445 0.211542 88.742 0.188249C88.8494 0.175205 88.8962 0.217124 88.969 0.238554C88.9933 0.246007 89.0192 0.259058 89.0418 0.257195C89.1561 0.249741 89.2705 0.238555 89.3849 0.228306C89.5183 0.216194 89.5183 0.217125 89.695 0.273959C89.7782 0.300978 89.8614 0.279548 89.9428 0.273026C90.0295 0.265573 90.1109 0.259984 90.1802 0.298184C90.2235 0.322409 90.2755 0.337316 90.3292 0.333589C90.4436 0.325204 90.5597 0.316823 90.6723 0.302847C90.7624 0.291667 90.8403 0.299116 90.9062 0.333589C90.953 0.357814 91.0015 0.369933 91.0587 0.364343C91.3151 0.341982 91.5733 0.318681 91.8297 0.297252C91.8523 0.295388 91.8834 0.303777 91.9042 0.312162C91.9528 0.328933 91.9996 0.347563 92.0463 0.366197C92.159 0.357812 92.2751 0.354094 92.3859 0.34105C92.5038 0.328007 92.6112 0.323347 92.7031 0.37459C92.7221 0.385771 92.7498 0.401601 92.7723 0.40067C92.859 0.396943 92.9439 0.387628 93.0288 0.380175C93.1137 0.372721 93.2003 0.365268 93.2852 0.357815C93.384 0.381107 93.4464 0.448189 93.585 0.42676C93.6682 0.413716 93.7566 0.410921 93.8415 0.403467C93.9264 0.396014 94.013 0.387629 94.0979 0.381107C94.1256 0.379244 94.1568 0.374583 94.1811 0.37831C94.2071 0.382036 94.2296 0.395083 94.2521 0.4044C94.3214 0.431419 94.3855 0.458442 94.4843 0.442603C94.5675 0.429559 94.6558 0.426763 94.7407 0.418378C94.8568 0.408129 94.8568 0.408131 95.0492 0.466828C95.1272 0.491053 95.2155 0.459376 95.29 0.479874C95.3403 0.493849 95.3836 0.517137 95.4321 0.532976C95.4529 0.539498 95.4858 0.542289 95.5101 0.540425C95.6244 0.53204 95.7405 0.523659 95.8532 0.509683C95.945 0.498503 96.0212 0.509682 96.0854 0.543223C96.1321 0.567448 96.1789 0.577702 96.2378 0.572112C96.5237 0.546024 96.8096 0.523656 97.0938 0.494773C97.1908 0.484524 97.2688 0.500367 97.3225 0.533908C97.4143 0.591674 97.5443 0.523661 97.6396 0.570246C97.6985 0.599129 97.7574 0.632672 97.8649 0.618697C98.0624 0.594473 98.2634 0.581421 98.4627 0.564651C98.5337 0.589807 98.6047 0.614968 98.6775 0.640124C98.7919 0.629875 98.9062 0.61962 99.0206 0.610303C99.1055 0.60285 99.1921 0.594465 99.277 0.587943C99.3048 0.58608 99.3342 0.582352 99.3602 0.587011C99.3862 0.591669 99.407 0.603784 99.4313 0.613101C99.5508 0.658755 99.5508 0.659691 99.7483 0.641057C99.8332 0.632672 99.9147 0.627081 99.9857 0.66435C100.052 0.698823 100.13 0.70534 100.22 0.695092C100.389 0.676458 100.561 0.662483 100.734 0.649439C100.788 0.644781 100.838 0.66062 100.883 0.684844C100.951 0.723044 101.034 0.719318 101.119 0.70907C101.232 0.696026 101.342 0.682985 101.438 0.73516C101.457 0.746341 101.486 0.762171 101.507 0.761239C101.649 0.753786 101.793 0.748199 101.932 0.730497C102.07 0.712795 102.138 0.770558 102.233 0.79851C102.375 0.786397 102.519 0.774284 102.661 0.762172C102.689 0.759377 102.722 0.750996 102.746 0.755655C102.848 0.775221 102.907 0.845097 103.047 0.823668C103.129 0.811555 103.217 0.807833 103.302 0.805038C103.325 0.804106 103.354 0.819938 103.37 0.83205C103.378 0.838572 103.37 0.856273 103.359 0.86559C103.328 0.891677 103.29 0.915909 103.262 0.942929C103.259 0.946655 103.292 0.963419 103.311 0.970873C103.358 0.987644 103.411 0.984855 103.474 0.977401C103.527 0.970879 103.583 0.983923 103.621 1.01187C103.637 1.02305 103.631 1.04169 103.598 1.10318C103.598 1.14883 103.635 1.12833 103.647 1.09852C103.666 1.05566 103.63 1.04168 103.56 1.06498C103.512 1.08175 103.488 1.10597 103.5 1.12554C103.507 1.13579 103.54 1.14883 103.598 1.10318C103.751 1.04728 103.865 1.03703 103.98 1.02678C104.009 1.02399 104.044 1.01467 104.065 1.02026C104.139 1.04262 104.208 1.06964 104.281 1.0948C104.364 1.08921 104.442 1.07522 104.524 1.11156C104.638 1.16281 104.643 1.15815 104.754 1.1479C104.811 1.14231 104.869 1.13766 104.926 1.133C104.983 1.12834 105.028 1.14231 105.078 1.16374C105.18 1.20753 105.189 1.20753 105.257 1.1479C105.297 1.11156 105.324 1.09945 105.375 1.11622C105.541 1.17306 105.543 1.17678 105.685 1.16001C105.803 1.14604 105.913 1.14231 106 1.19542C106.059 1.23269 106.078 1.2243 106.125 1.18517C106.25 1.08175 106.307 1.08361 106.541 1.15815C106.65 1.19355 106.762 1.15536 106.873 1.1507C106.967 1.14697 107.033 1.16933 107.04 1.22802C107.045 1.26436 107.06 1.29045 107.123 1.30257C107.147 1.30722 107.177 1.31374 107.201 1.31188C107.345 1.3007 107.487 1.28765 107.631 1.27461C107.703 1.26809 107.743 1.22431 107.729 1.16654C107.714 1.10505 107.741 1.08268 107.845 1.06498C107.908 1.05473 107.958 1.0566 108.008 1.07337C108.064 1.092 108.048 1.10877 108 1.14231C107.884 1.2243 107.897 1.27461 108.046 1.33144C108.098 1.35101 108.14 1.36872 108.152 1.3976C108.159 1.41251 108.152 1.43207 108.168 1.44325C108.253 1.50568 108.37 1.54575 108.502 1.57556C108.629 1.5504 108.715 1.59232 108.812 1.62586C108.889 1.65195 108.979 1.6296 109.06 1.62028C109.152 1.61003 109.228 1.61748 109.294 1.65196C109.341 1.67618 109.389 1.68736 109.446 1.6827C109.561 1.67245 109.677 1.66593 109.79 1.65102C109.887 1.63798 109.959 1.65661 110.02 1.68829C110.096 1.72836 110.181 1.70133 110.261 1.70692C110.368 1.71344 110.422 1.79636 110.562 1.774C110.646 1.76096 110.732 1.7563 110.819 1.75258C110.841 1.75164 110.869 1.76749 110.888 1.77867C110.98 1.82991 111.087 1.82711 111.205 1.81221C111.287 1.80196 111.366 1.79264 111.446 1.82805C111.578 1.88768 111.723 1.93986 111.862 1.99483C111.881 2.03769 111.867 2.08799 111.966 2.11314C112.018 2.12619 112.066 2.14576 112.106 2.16719C112.155 2.19235 112.2 2.19887 112.262 2.19235C112.375 2.1793 112.493 2.1765 112.604 2.15973C112.706 2.14482 112.77 2.17558 112.832 2.20446C112.882 2.22775 112.929 2.23893 112.99 2.22216C113.052 2.20632 113.097 2.21656 113.148 2.24172C113.219 2.27619 113.224 2.27247 113.459 2.28272C113.484 2.28365 113.513 2.29762 113.527 2.30973C113.534 2.31626 113.518 2.3349 113.506 2.34422C113.491 2.3554 113.466 2.36843 113.444 2.37123C113.187 2.39545 112.929 2.41688 112.673 2.44111C112.647 2.4439 112.619 2.45043 112.6 2.45975C112.579 2.47 112.553 2.48396 112.553 2.49701C112.553 2.50632 112.588 2.51751 112.612 2.52403C112.688 2.54546 112.779 2.51285 112.853 2.53708C112.903 2.55291 112.945 2.57527 112.995 2.59018C113.016 2.5967 113.049 2.59577 113.075 2.59391C113.161 2.58739 113.246 2.57807 113.333 2.57248C113.357 2.57155 113.385 2.58087 113.407 2.58832C113.574 2.64423 113.574 2.64422 113.718 2.63211C113.775 2.62745 113.835 2.61348 113.889 2.61907C113.941 2.62466 113.986 2.64981 114.033 2.66565C114.13 2.69919 114.222 2.7318 114.229 2.80447C114.232 2.83243 114.289 2.85665 114.347 2.85851C114.402 2.86037 114.461 2.85013 114.518 2.84454C114.653 2.83336 114.653 2.83336 114.828 2.8902C114.877 2.90603 114.929 2.90789 114.991 2.89858C115.015 2.89485 115.045 2.89858 115.071 2.90324C115.156 2.91722 115.156 2.93491 115.1 2.96846C115.022 3.01784 115.029 3.0225 115.248 3.06442C115.331 3.08026 115.395 3.11008 115.464 3.13617C115.577 3.17809 115.575 3.17809 115.501 3.23306C115.483 3.24517 115.468 3.25822 115.45 3.27126C115.4 3.3076 115.36 3.34673 115.256 3.35045C115.142 3.35418 115.028 3.36909 114.913 3.37934C114.802 3.38959 114.773 3.41194 114.783 3.4753C114.795 3.5517 114.818 3.56009 115.017 3.55915C115.074 3.55915 115.125 3.5666 115.168 3.59176C115.147 3.62158 115.109 3.64487 115.054 3.65046C114.912 3.66443 114.768 3.67655 114.626 3.68866C114.511 3.69891 114.397 3.70916 114.283 3.7194C114.211 3.72593 114.166 3.77438 114.185 3.82842C114.196 3.85916 114.205 3.88991 114.213 3.92066C114.232 3.98215 114.269 3.99799 114.385 3.9952C114.414 3.99427 114.442 3.98681 114.47 3.98867C114.582 3.99519 114.636 4.07252 114.771 4.05668C114.884 4.04364 115.002 4.04084 115.113 4.02407C115.215 4.00917 115.272 4.04272 115.343 4.06787C115.367 4.07626 115.393 4.09395 115.414 4.09302C115.558 4.08277 115.702 4.07253 115.842 4.05483C115.908 4.04737 115.948 4.05296 116 4.07532C116.124 4.12936 116.128 4.12657 116.313 4.10979C116.448 4.09675 116.45 4.09861 116.623 4.15545C116.672 4.17129 116.724 4.17128 116.786 4.16383C116.868 4.15451 116.953 4.13961 117.038 4.15358C117.064 4.15731 117.097 4.16849 117.105 4.18061C117.11 4.18899 117.086 4.20949 117.065 4.21601C116.913 4.26446 116.734 4.25608 116.568 4.27564C116.516 4.28123 116.464 4.26353 116.421 4.23837C116.376 4.21321 116.327 4.20297 116.268 4.20763C116.154 4.21788 116.038 4.2244 115.925 4.2393C115.828 4.25235 115.761 4.23092 115.693 4.20203C115.67 4.19272 115.644 4.17501 115.622 4.17594C115.365 4.19458 115.107 4.21322 114.853 4.2393C114.75 4.25048 114.691 4.22067 114.622 4.19552C114.598 4.18713 114.574 4.16943 114.551 4.17036C114.464 4.17408 114.38 4.18433 114.293 4.19179C113.978 4.21974 113.664 4.24769 113.349 4.27378C113.328 4.27564 113.302 4.25607 113.278 4.24769C113.231 4.23091 113.182 4.21507 113.134 4.19923C113.047 4.20669 112.962 4.216 112.876 4.22159C112.813 4.22532 112.758 4.23837 112.749 4.27378C112.744 4.29707 112.801 4.31849 112.862 4.31663C112.921 4.31477 112.98 4.30359 113.028 4.3157C113.269 4.37533 113.269 4.37626 113.42 4.36415C113.551 4.35297 113.537 4.34365 113.654 4.39489C113.704 4.41725 113.749 4.4303 113.806 4.42471C113.948 4.41167 114.092 4.39862 114.236 4.38744C114.258 4.38558 114.288 4.3949 114.31 4.40235C114.48 4.45825 114.48 4.46011 114.62 4.44614C114.804 4.42937 114.811 4.42471 114.934 4.48154C115.019 4.52068 115.097 4.49366 115.178 4.49179C115.272 4.52813 115.374 4.56074 115.459 4.60174C115.56 4.65019 115.665 4.64179 115.78 4.62782C115.865 4.61757 115.948 4.61384 116.017 4.65204C116.083 4.68745 116.163 4.69118 116.253 4.68186C116.334 4.67348 116.417 4.65577 116.502 4.67627C116.525 4.68186 116.559 4.69584 116.558 4.70422C116.556 4.71727 116.533 4.7359 116.511 4.74149C116.351 4.77969 116.176 4.77876 116.008 4.79646C115.986 4.79926 115.956 4.789 115.934 4.78155C115.885 4.76478 115.839 4.74522 115.792 4.72752C115.707 4.73311 115.62 4.73497 115.537 4.74615C115.473 4.75453 115.424 4.75361 115.378 4.73125C115.334 4.71075 115.288 4.68559 115.236 4.67907C115.184 4.67254 115.123 4.68652 115.066 4.69211C115.009 4.6977 114.943 4.6949 114.898 4.70981C114.853 4.72471 114.825 4.75733 114.795 4.78342C114.762 4.8123 114.717 4.82162 114.652 4.82442C114.591 4.82721 114.542 4.82348 114.497 4.79739C114.478 4.78621 114.452 4.77782 114.426 4.77037C114.402 4.76385 114.374 4.7536 114.352 4.75546C114.094 4.77689 113.837 4.80019 113.579 4.82255C113.451 4.83373 113.453 4.83372 113.186 4.77875C113.161 4.77409 113.132 4.76757 113.108 4.76944C112.964 4.78062 112.822 4.79366 112.678 4.80671C112.532 4.81975 112.534 4.81789 112.286 4.75919C112.241 4.74801 112.176 4.76292 112.122 4.76106C112.009 4.7564 111.954 4.67814 111.822 4.69304C111.709 4.70609 111.592 4.70888 111.479 4.72565C111.377 4.74056 111.318 4.70795 111.249 4.6828C111.224 4.67441 111.198 4.65577 111.177 4.65764C110.919 4.67814 110.663 4.70143 110.32 4.70422C110.235 4.70422 110.273 4.72379 110.328 4.73031C110.408 4.74056 110.434 4.721 110.391 4.68373C110.36 4.65764 110.315 4.64459 110.278 4.65111C110.259 4.65484 110.235 4.67255 110.32 4.70422C110.41 4.73963 110.405 4.75919 110.42 4.77037C110.458 4.79739 110.512 4.80857 110.568 4.80484C110.654 4.79832 110.739 4.78901 110.826 4.78342C110.85 4.78155 110.879 4.78808 110.902 4.79553C111.093 4.85329 111.094 4.85703 111.297 4.83466C111.361 4.82814 111.408 4.82814 111.458 4.84584C111.527 4.87007 111.578 4.91106 111.683 4.89801C111.824 4.88031 111.968 4.87007 112.111 4.85982C112.134 4.85796 112.158 4.87473 112.184 4.88218C112.255 4.90454 112.307 4.94647 112.413 4.92877C112.494 4.91479 112.583 4.91106 112.669 4.90826C112.692 4.90733 112.727 4.92224 112.737 4.93435C112.758 4.95578 112.732 4.98094 112.673 4.99865C112.649 5.0061 112.616 5.00423 112.588 5.00703C112.474 5.01728 112.359 5.02845 112.245 5.03684C112.184 5.0415 112.127 5.05548 112.12 5.08995C112.115 5.11324 112.177 5.13374 112.236 5.13187C112.323 5.12908 112.409 5.12163 112.493 5.10951C112.64 5.08902 112.768 5.0946 112.888 5.1533C112.973 5.1943 112.967 5.1794 113.057 5.30052C113.08 5.33126 113.148 5.33406 113.207 5.33219C113.349 5.32753 113.414 5.34151 113.402 5.3704C113.387 5.4058 113.336 5.41697 113.272 5.42163C113.158 5.42909 113.044 5.4412 112.929 5.45145C112.902 5.45425 112.87 5.45983 112.844 5.45797C112.818 5.45611 112.794 5.44493 112.772 5.43654C112.723 5.41884 112.681 5.39182 112.63 5.38529C112.578 5.37877 112.517 5.39275 112.46 5.39834C112.403 5.403 112.342 5.41697 112.29 5.41045C112.238 5.40393 112.195 5.37599 112.148 5.35922C112.125 5.35083 112.098 5.33778 112.075 5.33871C111.961 5.34616 111.846 5.35828 111.732 5.3676C111.592 5.37971 111.592 5.37971 111.422 5.32194C111.373 5.30517 111.323 5.30611 111.259 5.31356C111.12 5.32847 111.119 5.32567 110.866 5.27163C110.841 5.26604 110.812 5.25952 110.788 5.26231C110.529 5.28374 110.273 5.30703 110.017 5.32939C109.796 5.34896 109.796 5.34897 109.675 5.44214C109.585 5.51108 109.583 5.51108 109.672 5.54276C109.743 5.56885 109.807 5.60704 109.885 5.62102C109.958 5.63406 110.048 5.59214 110.127 5.635C110.167 5.65643 110.219 5.67972 110.269 5.68345C110.349 5.68811 110.434 5.66108 110.51 5.70208C110.548 5.72257 110.606 5.74401 110.654 5.74494C110.739 5.74681 110.826 5.73189 110.911 5.72537C110.937 5.72351 110.966 5.72351 110.99 5.72817C111.016 5.73376 111.039 5.74494 111.061 5.75426C111.131 5.78594 111.205 5.80084 111.295 5.785C111.443 5.75891 111.574 5.77196 111.689 5.83158C111.704 5.83997 111.742 5.84091 111.767 5.83718C111.829 5.82786 111.883 5.82693 111.929 5.84463C111.949 5.85208 111.976 5.86512 111.973 5.87351C111.968 5.88748 111.947 5.90612 111.924 5.91078C111.761 5.94246 111.586 5.94619 111.418 5.96296C111.396 5.96482 111.368 5.9527 111.346 5.94432C111.297 5.92755 111.255 5.8996 111.203 5.89308C111.151 5.88656 111.091 5.89867 111.034 5.90333C110.976 5.90799 110.916 5.92196 110.864 5.91637C110.812 5.90985 110.763 5.88655 110.722 5.86606C110.673 5.84276 110.626 5.83998 110.562 5.84929C110.479 5.86141 110.393 5.86327 110.308 5.86979C110.261 5.85209 110.214 5.83251 110.166 5.81574C110.143 5.80736 110.115 5.79711 110.091 5.79804C109.977 5.8055 109.862 5.81667 109.748 5.82692C109.634 5.83717 109.634 5.83718 109.44 5.77942C109.417 5.77289 109.388 5.76544 109.363 5.7673C109.219 5.77848 109.077 5.79245 108.934 5.80363C108.878 5.80829 108.828 5.79525 108.783 5.77009C108.74 5.74493 108.688 5.73096 108.634 5.73562C108.405 5.75518 108.176 5.77382 107.948 5.79711C107.856 5.80643 107.778 5.79805 107.715 5.7645C107.643 5.7263 107.561 5.73562 107.476 5.74308C107.284 5.76171 107.282 5.76077 107.159 5.71326C107.135 5.70394 107.111 5.68623 107.088 5.68717C106.889 5.70114 106.688 5.71419 106.49 5.73655C106.386 5.74866 106.331 5.71605 106.262 5.69183C106.237 5.68344 106.211 5.66574 106.191 5.6676C106.047 5.67785 105.903 5.68717 105.763 5.70581C105.622 5.72444 105.569 5.6378 105.463 5.63873C105.319 5.63966 105.177 5.66109 105.035 5.67413C104.921 5.68438 104.806 5.69463 104.692 5.70487C104.577 5.71512 104.463 5.7235 104.349 5.73562C104.288 5.74214 104.243 5.73375 104.193 5.71046C104.129 5.67971 104.052 5.6555 103.983 5.62755C103.877 5.58748 103.877 5.58748 103.749 5.59866C103.722 5.60145 103.692 5.60331 103.664 5.60611C103.455 5.62661 103.455 5.62475 103.188 5.56605C103.176 5.56326 103.145 5.57351 103.132 5.58096C103.096 5.60519 103.063 5.63127 103.03 5.65642C102.983 5.64152 102.926 5.63313 102.895 5.6117C102.807 5.55114 102.668 5.63406 102.578 5.57443C102.545 5.55207 102.488 5.53251 102.436 5.52692C102.382 5.52132 102.321 5.53437 102.266 5.53996C102.122 5.55394 102.122 5.55301 101.999 5.63593C101.937 5.67692 101.847 5.66947 101.765 5.67878C101.68 5.68903 101.599 5.69462 101.528 5.65642C101.464 5.62195 101.386 5.61357 101.294 5.62475C101.181 5.63872 101.065 5.64711 100.951 5.65549C100.927 5.65735 100.897 5.6527 100.873 5.64711C100.608 5.59214 100.608 5.59121 100.48 5.60332C100.422 5.60891 100.363 5.61077 100.308 5.61915C100.214 5.63406 100.143 5.6145 100.076 5.58468C100.053 5.57536 100.027 5.55767 100.005 5.5586C99.8904 5.56326 99.7778 5.57164 99.6652 5.58003C99.5785 5.58655 99.4919 5.59028 99.4087 5.60332C99.2701 5.62475 99.2025 5.56418 99.1072 5.53623C98.9651 5.54834 98.8213 5.55673 98.6793 5.5735C98.6134 5.58095 98.5701 5.57816 98.5199 5.5558C98.4557 5.52785 98.3968 5.49618 98.2929 5.51015C98.1542 5.52879 98.0087 5.53531 97.8666 5.54649C97.7713 5.51761 97.702 5.4589 97.5651 5.48033C97.4819 5.49337 97.3936 5.49617 97.3087 5.50362C97.1943 5.51387 97.08 5.5232 96.9656 5.53438C96.8426 5.54556 96.8443 5.54276 96.6554 5.48779C96.5463 5.45518 96.4336 5.49152 96.3227 5.49711C96.2361 5.50176 96.1928 5.54462 96.2136 5.59959C96.2344 5.65456 96.1876 5.69742 96.1079 5.70487C95.9086 5.72258 95.7076 5.7412 95.5083 5.75704C95.4841 5.75891 95.4546 5.75239 95.4321 5.74586C95.219 5.68717 95.219 5.68811 95.1237 5.69649C94.9816 5.71047 94.836 5.71791 94.6957 5.73562C94.5987 5.74773 94.5276 5.72817 94.4652 5.69649C94.4167 5.67227 94.3717 5.66668 94.3093 5.67227C93.6231 5.73469 92.937 5.79245 92.2525 5.85674C92.1503 5.86606 92.0914 5.83904 92.0221 5.81389C91.9978 5.8055 91.9753 5.7878 91.951 5.7878C91.8938 5.7878 91.8367 5.79618 91.7795 5.80178C91.523 5.82414 91.2666 5.85115 91.0084 5.86792C90.8993 5.87538 90.8698 5.91824 90.823 5.95364C90.7866 5.98066 90.7451 5.99184 90.681 5.99557C90.6186 5.99929 90.5735 5.99463 90.525 5.97041C90.4626 5.93873 90.3916 5.91916 90.2946 5.9322C90.1819 5.94711 90.0675 5.95364 89.9514 5.96389C89.8925 5.96855 89.8475 5.98532 89.8284 6.01886C89.825 6.02445 89.8614 6.03843 89.8822 6.04681C89.9515 6.07477 90.0173 6.10737 90.0953 6.12694C90.175 6.1465 90.2616 6.12414 90.3448 6.11855C90.3742 6.11668 90.402 6.1111 90.4297 6.11203C90.4557 6.11296 90.4869 6.11762 90.506 6.12601C90.5961 6.16793 90.6913 6.19682 90.8161 6.17166C90.9235 6.18377 90.979 6.2611 91.1159 6.2406C91.1991 6.22849 91.2857 6.2229 91.3723 6.21824C91.3948 6.21731 91.4191 6.23408 91.4433 6.24247C91.5127 6.26576 91.5681 6.30303 91.6721 6.28719C91.783 6.27042 91.9008 6.26763 92.0134 6.25458C92.0758 6.24713 92.1208 6.25365 92.1694 6.27787C92.2317 6.30862 92.3028 6.33191 92.3998 6.317C92.483 6.30396 92.5714 6.30116 92.6563 6.29277C92.7672 6.28253 92.7672 6.28346 92.9647 6.34122C92.9872 6.34775 93.0167 6.3552 93.0409 6.35334C93.1847 6.34216 93.3268 6.32818 93.4706 6.317C93.5261 6.31234 93.5798 6.32445 93.6179 6.35147C93.6335 6.36265 93.6283 6.3813 93.6335 6.39714C93.3476 6.42229 93.0617 6.44372 92.7775 6.47446C92.6701 6.48658 92.6216 6.44837 92.5505 6.42695C92.5263 6.41949 92.5003 6.40365 92.4778 6.40552C92.2768 6.42136 92.0775 6.43812 91.8783 6.45862C91.8159 6.46514 91.7691 6.46141 91.7223 6.4344C91.6028 6.36265 91.4572 6.40179 91.3221 6.41204C91.2181 6.41949 91.1852 6.44838 91.1973 6.50987C91.2129 6.58254 91.2753 6.6049 91.4347 6.59186C91.4919 6.5872 91.549 6.58068 91.6062 6.57695C91.6617 6.57322 91.7119 6.58533 91.757 6.61049C91.8003 6.63564 91.8523 6.64869 91.906 6.64496C92.0203 6.63658 92.1364 6.62819 92.2473 6.61422C92.3392 6.60304 92.4154 6.61235 92.4795 6.64683C92.5506 6.68503 92.6338 6.67664 92.7169 6.66825C92.911 6.64962 92.9127 6.65056 93.034 6.69714C93.0582 6.70646 93.0825 6.72416 93.1051 6.72323C93.3043 6.70926 93.5053 6.69714 93.7011 6.67478C93.8033 6.6636 93.8623 6.69341 93.9298 6.71764C93.9541 6.72602 93.9783 6.74466 94.0009 6.7428C94.1447 6.73255 94.2885 6.72229 94.4288 6.70459C94.4947 6.69621 94.5345 6.70179 94.5882 6.72415C94.7165 6.77912 94.7199 6.77726 94.9019 6.75956C94.9573 6.75397 95.018 6.74372 95.07 6.75118C95.1219 6.75863 95.1635 6.78565 95.212 6.80243C95.2346 6.80988 95.2623 6.82012 95.2865 6.81826C95.4009 6.8108 95.5153 6.79963 95.6296 6.78938C95.7371 6.77913 95.7371 6.78007 95.9381 6.83783C96.0195 6.86206 96.1044 6.84155 96.1859 6.8341C96.2742 6.82572 96.3539 6.82572 96.4215 6.86206C96.4891 6.89839 96.5705 6.89652 96.6572 6.88907C96.7386 6.88161 96.8218 6.86113 96.9049 6.88628C97.0955 6.94405 97.0955 6.94497 97.2134 6.93379C97.3849 6.91795 97.5547 6.90304 97.728 6.88907C97.7505 6.8872 97.78 6.89839 97.8025 6.90584C97.851 6.92261 97.8926 6.95056 97.9446 6.95708C97.9966 6.96453 98.0572 6.95336 98.1126 6.94777C98.2911 6.93006 98.3033 6.92354 98.4228 6.98504C98.5233 7.03535 98.6481 6.96268 98.7416 7.02044C98.7954 7.05305 98.8681 7.07914 98.9686 7.0633C99.0518 7.05025 99.1384 7.04652 99.225 7.03907C99.3619 7.02696 99.3619 7.0279 99.5352 7.0838C99.5577 7.09126 99.5872 7.10057 99.6097 7.0987C99.7241 7.09125 99.8402 7.08473 99.9511 7.06796C100.081 7.04839 100.164 7.0838 100.261 7.11828C100.337 7.14529 100.428 7.12293 100.509 7.11361C100.597 7.1043 100.677 7.10709 100.743 7.14342C100.812 7.18069 100.894 7.17603 100.98 7.16858C101.062 7.16206 101.145 7.14063 101.228 7.16671C101.407 7.22448 101.407 7.22448 101.537 7.2133C101.651 7.20305 101.765 7.19188 101.88 7.18442C101.902 7.18256 101.93 7.19467 101.952 7.20305C102.001 7.21982 102.042 7.24778 102.094 7.2543C102.146 7.26082 102.207 7.24871 102.264 7.24405C102.321 7.23939 102.382 7.22542 102.434 7.23101C102.486 7.2366 102.535 7.25989 102.576 7.28039C102.625 7.30462 102.67 7.30741 102.736 7.29809C102.819 7.28598 102.905 7.28318 102.99 7.27666C103.037 7.29436 103.086 7.31206 103.131 7.33163C103.177 7.35213 103.228 7.35026 103.292 7.34374C103.505 7.32138 103.507 7.32418 103.685 7.38194C103.767 7.40803 103.851 7.3866 103.933 7.38008C104.02 7.37262 104.101 7.3689 104.169 7.40617C104.234 7.44157 104.316 7.44623 104.402 7.43505C104.458 7.42759 104.517 7.42294 104.574 7.42015C104.6 7.41922 104.631 7.42294 104.65 7.43039C104.742 7.46953 104.832 7.50493 104.959 7.47978C105.07 7.48723 105.125 7.56363 105.258 7.54872C105.371 7.53568 105.489 7.53287 105.6 7.5161C105.702 7.5012 105.775 7.52729 105.827 7.5599C105.92 7.61767 106.052 7.53941 106.146 7.59624C106.199 7.62885 106.269 7.65494 106.373 7.64096C106.487 7.62605 106.523 7.64561 106.556 7.70431C106.575 7.73785 106.572 7.76488 106.537 7.79096C106.503 7.81798 106.464 7.81333 106.409 7.78258C106.345 7.74811 106.269 7.74158 106.177 7.74903C106.087 7.75648 106.031 7.70805 105.957 7.68941C105.882 7.66985 105.794 7.70245 105.716 7.6773C105.532 7.6186 105.532 7.6186 105.407 7.62978C105.323 7.63723 105.234 7.64096 105.151 7.65401C105.052 7.66984 104.988 7.64096 104.921 7.61487C104.896 7.60555 104.872 7.58785 104.851 7.58878C104.652 7.60276 104.451 7.6158 104.253 7.6391C104.149 7.65121 104.094 7.61767 104.025 7.59438C104 7.58599 103.974 7.56922 103.954 7.57108C103.782 7.58413 103.612 7.6009 103.441 7.61674C103.408 7.64189 103.371 7.66611 103.34 7.69313C103.307 7.72108 103.262 7.7332 103.197 7.73227C103.087 7.73227 102.98 7.7714 102.871 7.72202C102.758 7.67171 102.749 7.6745 102.64 7.68661C102.502 7.70245 102.354 7.69873 102.224 7.73506C102.202 7.74159 102.178 7.75928 102.178 7.77232C102.176 7.78071 102.212 7.79283 102.235 7.80028C102.311 7.82264 102.399 7.79003 102.476 7.81332C102.526 7.82823 102.568 7.85059 102.618 7.86643C102.639 7.87295 102.67 7.87202 102.697 7.87109C102.727 7.87016 102.755 7.86364 102.782 7.86457C102.808 7.8655 102.836 7.87109 102.857 7.87947C102.952 7.91488 103.053 7.94749 103.138 7.98942C103.221 8.03041 103.299 8.00246 103.382 8.0006C103.715 8.06582 103.715 8.06675 103.938 8.04625C103.994 8.04159 104.051 8.036 104.108 8.03694C104.132 8.03694 104.155 8.0537 104.179 8.06301C104.248 8.09097 104.314 8.11613 104.411 8.10122C104.494 8.08817 104.583 8.08538 104.668 8.07699C104.782 8.06674 104.782 8.06675 104.976 8.12544C105.025 8.14035 105.077 8.13849 105.139 8.13104C105.193 8.12452 105.248 8.13849 105.286 8.16551C105.302 8.17669 105.297 8.19532 105.302 8.21116C105.13 8.22607 104.957 8.23632 104.791 8.25868C104.683 8.27266 104.635 8.23259 104.564 8.21116C104.539 8.20371 104.513 8.18787 104.491 8.18974C104.321 8.20371 104.151 8.21954 103.981 8.23818C103.961 8.24004 103.935 8.26147 103.933 8.27451C103.929 8.29874 103.973 8.32203 104.035 8.3211C104.118 8.32017 104.2 8.30433 104.274 8.34253C104.337 8.37607 104.415 8.39098 104.506 8.37608C104.562 8.36769 104.621 8.36769 104.676 8.36023C104.824 8.33787 104.957 8.34253 105.068 8.40589C105.153 8.42266 105.236 8.40682 105.317 8.39844C105.378 8.39192 105.437 8.38539 105.48 8.40309C105.572 8.44036 105.662 8.47763 105.789 8.45247C105.926 8.47856 106.03 8.53353 106.144 8.57825C106.198 8.59968 106.239 8.6118 106.302 8.59782C106.328 8.59223 106.359 8.59223 106.386 8.58943C106.444 8.58477 106.504 8.5708 106.556 8.57639C106.608 8.58291 106.652 8.60993 106.698 8.6267C106.721 8.63509 106.747 8.64906 106.769 8.64813C106.856 8.64347 106.941 8.63415 107.026 8.6267C107.111 8.62018 107.196 8.61366 107.281 8.60714C107.352 8.63136 107.424 8.65559 107.495 8.67981C107.61 8.66957 107.724 8.65931 107.837 8.64999C107.963 8.63881 107.963 8.63975 108.145 8.69751C108.227 8.7236 108.313 8.70683 108.391 8.69471C108.521 8.67515 108.608 8.71056 108.7 8.74783C108.719 8.75528 108.753 8.75994 108.776 8.75621C108.866 8.74317 108.944 8.75341 109.01 8.78788C109.057 8.81211 109.103 8.8233 109.161 8.81864C109.36 8.80094 109.559 8.7823 109.758 8.76646C109.783 8.76459 109.81 8.77298 109.833 8.78043C110.01 8.83727 110.011 8.84006 110.141 8.82515C110.257 8.81211 110.365 8.80652 110.457 8.85776C110.476 8.86894 110.505 8.88478 110.526 8.88385C110.668 8.87454 110.812 8.86429 110.952 8.84845C111.016 8.84099 111.061 8.84379 111.112 8.86522C111.176 8.89224 111.233 8.92485 111.339 8.91274C111.631 8.87827 111.633 8.88385 111.98 8.94813C112.004 8.95279 112.037 8.94534 112.065 8.94162C112.124 8.9323 112.167 8.94535 112.219 8.96678C112.335 9.01522 112.338 9.01243 112.449 9.00218C112.534 8.9938 112.623 8.99193 112.706 8.97796C112.834 8.95746 112.919 8.9938 113.014 9.02827C113.09 9.05529 113.179 9.03293 113.26 9.02454C113.349 9.01522 113.428 9.01801 113.494 9.05342C113.539 9.07764 113.588 9.0907 113.645 9.08604C113.844 9.06927 114.043 9.05063 114.243 9.03386C114.267 9.03199 114.296 9.03945 114.319 9.04597C114.516 9.10373 114.516 9.10653 114.712 9.0851C114.775 9.07858 114.827 9.07672 114.873 9.09628C114.918 9.11492 114.967 9.13262 115.014 9.15032C115.099 9.1438 115.185 9.14194 115.268 9.13076C115.333 9.12237 115.378 9.1261 115.428 9.14567C115.494 9.17082 115.549 9.2146 115.653 9.19317C115.707 9.18293 115.769 9.18573 115.823 9.17641C115.887 9.1643 115.93 9.17175 115.981 9.19597C116.043 9.22485 116.107 9.25467 116.208 9.23976C116.318 9.22299 116.436 9.2202 116.549 9.20715C116.611 9.1997 116.655 9.20715 116.705 9.23138C116.767 9.26212 116.838 9.28169 116.935 9.26958C117.133 9.24629 117.135 9.25094 117.327 9.30964C117.375 9.32454 117.427 9.32269 117.49 9.31523C117.544 9.30871 117.599 9.32269 117.637 9.34971C117.673 9.37952 117.67 9.39815 117.673 9.41399ZM102.233 1.01094C102.176 1.0156 102.119 1.02119 102.036 0.940131C102.03 0.926155 102.034 0.909388 102.022 0.897276C101.994 0.87212 101.951 0.854418 101.899 0.851623C101.805 0.847896 101.692 0.879568 101.694 0.903793C101.696 0.92429 101.725 0.94199 101.783 0.95876C101.807 0.965282 101.826 0.976464 101.848 0.983918C101.914 1.00535 101.966 1.04728 102.062 1.02585C102.053 0.996969 102.044 0.968086 102.062 1.02585C102.053 1.06126 102.079 1.08641 102.141 1.09666C102.159 1.09946 102.185 1.09759 102.198 1.092C102.252 1.0715 102.261 1.04356 102.221 0.969952C102.214 0.982064 102.219 1.00349 102.235 1.00908C102.25 1.01467 102.289 1.01001 102.308 1.00349C102.356 0.985789 102.38 0.962494 102.368 0.942929C102.361 0.93268 102.328 0.919636 102.308 0.919636C102.271 0.919636 102.238 0.940132 102.233 1.01094ZM116.244 11.8159C116.117 11.8336 115.972 11.8271 115.845 11.8634C115.823 11.87 115.8 11.8867 115.799 11.8998C115.797 11.9082 115.832 11.9203 115.852 11.9268C115.899 11.9417 115.951 11.937 116.012 11.9324C116.104 11.9259 116.157 11.9687 116.228 11.9902C116.251 11.9967 116.28 12.0013 116.305 11.9995C116.445 11.9883 116.584 11.9762 116.724 11.9631C116.748 11.9603 116.774 11.9538 116.795 11.9454C116.864 11.9184 116.857 11.9007 116.79 11.8802C116.715 11.8579 116.656 11.8206 116.58 11.8029C116.471 11.7777 116.36 11.8113 116.244 11.8159ZM106.404 12.4961C106.319 12.5035 106.236 12.511 106.151 12.5184C106.123 12.5212 106.094 12.5222 106.068 12.5259C106.014 12.5324 105.974 12.552 105.948 12.5827C105.988 12.6069 106.036 12.6209 106.09 12.6181C106.175 12.6125 106.258 12.6004 106.343 12.5976C106.435 12.5939 106.489 12.6358 106.56 12.6573C106.582 12.6638 106.61 12.6647 106.636 12.6656C106.764 12.6694 106.842 12.6209 106.818 12.5529C106.801 12.4998 106.735 12.4681 106.655 12.4746C106.572 12.4812 106.487 12.4886 106.404 12.4961ZM116.837 10.4389C116.857 10.423 116.88 10.4118 116.89 10.3979C116.922 10.3504 116.909 10.3149 116.852 10.2777C116.783 10.232 116.698 10.2628 116.62 10.2674C116.601 10.2684 116.58 10.2879 116.57 10.3C116.563 10.3084 116.563 10.3261 116.573 10.3308C116.658 10.3681 116.748 10.4025 116.837 10.4389ZM101.805 7.68661C101.722 7.69407 101.637 7.69966 101.554 7.70991C101.533 7.7127 101.514 7.7304 101.502 7.74251C101.479 7.76487 101.504 7.79562 101.575 7.79841C101.656 7.80214 101.741 7.7863 101.826 7.77885C101.933 7.76953 101.997 7.73506 101.958 7.70524C101.919 7.67636 101.867 7.67077 101.805 7.68661ZM10.5957 5.69556C10.6511 5.6909 10.7083 5.68717 10.7637 5.68065C10.8157 5.67413 10.8556 5.65363 10.8816 5.62288C10.8383 5.59866 10.7897 5.58562 10.736 5.58841C10.6511 5.594 10.568 5.60145 10.4848 5.61077C10.4328 5.61636 10.3826 5.63686 10.3704 5.66854C10.3583 5.69276 10.4744 5.70674 10.5957 5.69556ZM94.4774 5.55207C94.4999 5.56046 94.5224 5.57723 94.5449 5.57723C94.6004 5.57723 94.6576 5.57164 94.7096 5.56232C94.7321 5.55859 94.7494 5.54182 94.7598 5.52878C94.7667 5.5204 94.765 5.50549 94.7546 5.49804C94.7044 5.45332 94.5034 5.46915 94.4704 5.5204C94.467 5.52972 94.4756 5.54182 94.4774 5.55207ZM89.0106 0.450053C89.0158 0.46496 89.0175 0.479865 89.0245 0.494773C89.0383 0.522724 89.0764 0.543226 89.1319 0.557201C89.1752 0.533908 89.1977 0.507825 89.196 0.479874C89.1943 0.464966 89.1891 0.450049 89.1821 0.435142C89.1683 0.407191 89.1302 0.386701 89.0747 0.372725C89.0314 0.395086 89.0106 0.42117 89.0106 0.450053ZM120.841 12.6582C120.825 12.6703 120.81 12.6824 120.792 12.6936C120.839 12.7206 120.883 12.729 120.915 12.7141C120.936 12.7048 120.948 12.6908 120.964 12.6787C120.917 12.6517 120.876 12.6442 120.841 12.6582ZM119.763 12.7849C119.786 12.7933 119.807 12.8045 119.831 12.8101C119.871 12.8194 119.907 12.8035 119.935 12.77C119.912 12.7616 119.891 12.7504 119.867 12.7448C119.827 12.7355 119.791 12.7514 119.763 12.7849ZM120.446 12.6144C120.434 12.6368 120.458 12.6554 120.522 12.6712C120.538 12.6591 120.559 12.6479 120.569 12.6349C120.586 12.6135 120.557 12.5939 120.494 12.579C120.477 12.5902 120.461 12.6023 120.446 12.6144ZM116.788 11.61C116.776 11.6324 116.8 11.651 116.864 11.6669C116.88 11.6547 116.901 11.6436 116.911 11.6305C116.928 11.6091 116.899 11.5895 116.837 11.5746C116.819 11.5858 116.804 11.5979 116.788 11.61ZM111.805 5.01728C111.789 5.02939 111.774 5.0415 111.756 5.05268C111.803 5.0797 111.846 5.08808 111.879 5.07318C111.9 5.06386 111.912 5.04988 111.928 5.03777C111.881 5.01075 111.839 5.0033 111.805 5.01728ZM107.031 1.51965C107.073 1.52617 107.107 1.51313 107.137 1.47866C107.114 1.47027 107.093 1.45909 107.069 1.4535C107.029 1.44418 106.993 1.46003 106.965 1.49357C106.988 1.50289 107.01 1.51126 107.031 1.51965ZM104.496 1.3007C104.48 1.31281 104.465 1.32493 104.448 1.33611C104.494 1.36313 104.538 1.37151 104.571 1.3566C104.591 1.34728 104.603 1.33331 104.619 1.3212C104.572 1.29418 104.531 1.28766 104.496 1.3007ZM87.3056 0.44912C87.29 0.461232 87.2744 0.473345 87.2571 0.484525C87.3039 0.511545 87.3472 0.519927 87.3801 0.50502C87.4009 0.495703 87.413 0.481727 87.4286 0.469615C87.3818 0.442595 87.3403 0.436076 87.3056 0.44912ZM1.71019 8.02947C1.68766 8.02109 1.66516 8.01271 1.64436 8.0034C1.59411 8.02855 1.57852 8.05184 1.60625 8.06954C1.62358 8.08072 1.64955 8.08725 1.67207 8.09563C1.72405 8.07048 1.73618 8.04811 1.71019 8.02947Z" fill="#0E70E2"/>
</svg>
