<svg width="1440" height="312" viewBox="0 0 1440 312" fill="none" xmlns="http://www.w3.org/2000/svg">
<path fill-rule="evenodd" clip-rule="evenodd" d="M1440 281.063V62.6574H1387.77V125.315H1338.03V281.063H1285.8V155.748H1233.58V125.315H1183.83V218.406L1131.61 218.406V155.748L1079.38 155.748V186.182H1029.64V62.6574H977.409V218.406H925.181H875.44V311.497H823.212V218.406L770.984 218.406V155.748H718.756V218.406L669.016 218.406V186.182H616.788V281.063H564.56V62.6574H514.819V30.4337H462.591V311.497H410.363V125.315L360.622 125.315V155.748H308.394V62.6574H256.166V186.182L206.425 186.182V311.497H154.197V218.406H101.969V93.091H52.2279V125.315H0V9.15527e-05H52.2279H101.969H154.197H206.425H256.166L308.394 9.15527e-05H360.622H410.363H462.591H514.819H564.56H616.788H669.016H718.756L770.984 9.15527e-05H823.212H875.44H925.181H977.409H1029.64H1079.38H1131.61H1183.83L1233.58 9.15527e-05H1285.8H1338.03H1387.77H1440V281.063Z" fill="#F4F7FE"/>
</svg>
