<svg width="501" height="492" viewBox="0 0 501 492" fill="none" xmlns="http://www.w3.org/2000/svg">
<path d="M207.659 1H58.0918V102.949H207.659V1Z" stroke="#ADADAD" stroke-miterlimit="10"/>
<path d="M69.2835 7.04995C69.2835 8.70706 67.9395 10.0511 66.2824 10.0511C64.6253 10.0511 63.2812 8.70825 63.2812 7.04995C63.2812 5.39285 64.6241 4.04883 66.2824 4.04883C67.9407 4.05002 69.2835 5.39285 69.2835 7.04995Z" fill="#595959"/>
<path d="M81.5374 7.04995C81.5374 8.70706 80.1946 10.0511 78.5363 10.0511C76.8792 10.0511 75.5352 8.70825 75.5352 7.04995C75.5352 5.39285 76.878 4.04883 78.5363 4.04883C80.1934 4.05002 81.5374 5.39285 81.5374 7.04995Z" fill="white"/>
<path d="M93.7894 7.04995C93.7894 8.70706 92.4465 10.0511 90.7882 10.0511C89.1311 10.0511 87.7871 8.70825 87.7871 7.04995C87.7871 5.39285 89.1299 4.04883 90.7882 4.04883C92.4465 4.05002 93.7894 5.39285 93.7894 7.04995Z" fill="#0E70E2"/>
<path d="M58.0918 12.9272H207.659" stroke="#C3C3C3" stroke-miterlimit="10"/>
<path d="M97.3085 227.603L11.5449 239.297L18.9613 293.687L104.725 281.993L97.3085 227.603Z" fill="#EBEBEB"/>
<path d="M97.3182 227.608C94.3052 231.394 91.2088 235.048 88.1637 238.783C85.0828 242.453 81.9888 246.125 78.877 249.763C75.6306 253.563 72.3652 257.328 69.0974 261.077C68.9963 261.198 68.907 261.317 68.8058 261.437C65.9106 264.742 63.0035 268.049 60.0965 271.355L59.6619 271.825L59.131 271.487C55.4442 269.08 51.7704 266.671 48.0943 264.243C47.967 264.172 47.836 264.083 47.7063 263.993C43.5421 261.258 39.3874 258.504 35.2399 255.695C31.2828 253.039 27.3186 250.329 23.3675 247.619C19.4319 244.834 15.4713 242.143 11.5547 239.302C15.626 241.639 19.6509 244.126 23.6925 246.538C27.7281 249.004 31.7649 251.472 35.7827 253.995C40.2552 256.777 44.7349 259.612 49.2062 262.484C49.2193 262.483 49.2193 262.483 49.2348 262.498C52.5823 264.63 55.9323 266.78 59.2822 268.93C61.9214 265.964 64.5714 262.978 67.2273 260.045C67.2356 260.008 67.2356 260.008 67.2487 260.006C70.7903 256.06 74.3354 252.13 77.9092 248.233C81.1067 244.744 84.3197 241.271 87.5506 237.831C90.8089 234.424 94.0219 230.95 97.3182 227.608Z" fill="white"/>
<path d="M49.5023 263.708C49.4678 263.739 49.4463 263.781 49.4118 263.812C49.0142 264.259 48.6154 264.707 48.2154 265.143C46.3119 267.252 44.3465 269.291 42.3358 271.284C39.8894 273.744 37.3668 276.121 34.83 278.486C32.2741 280.816 29.7039 283.134 27.0587 285.384C24.4136 287.634 21.7374 289.848 18.9375 291.923C21.2279 289.288 23.6433 286.794 26.0909 284.348C28.5492 281.887 31.0729 279.51 33.5967 277.145C36.1633 274.801 38.7335 272.482 41.3787 270.233C43.4822 268.438 45.6274 266.662 47.8369 264.97C48.3464 264.572 48.8583 264.188 49.3832 263.801C49.419 263.772 49.4678 263.739 49.5023 263.708Z" fill="white"/>
<path d="M104.291 280.283C101.038 279.035 97.8531 277.619 94.7151 276.157C91.5639 274.698 88.4676 273.153 85.3688 271.594C82.2903 269.993 79.2237 268.379 76.2083 266.665C73.7501 265.281 71.312 263.855 68.9264 262.332C68.4097 262.009 67.9061 261.684 67.4026 261.359C67.3609 261.339 67.33 261.303 67.2871 261.283C67.3288 261.303 67.3847 261.322 67.4252 261.329C68.0359 261.574 68.6323 261.808 69.2299 262.054C71.812 263.092 74.3417 264.23 76.8619 265.395C80.013 266.854 83.1094 268.399 86.1974 269.973C89.2759 271.574 92.3425 273.19 95.3579 274.903C98.384 276.603 101.378 278.359 104.291 280.283Z" fill="white"/>
<path d="M410.811 30.536L402.588 79.8174L480.297 92.7846L488.52 43.5033L410.811 30.536Z" fill="#EBEBEB"/>
<path d="M488.513 43.5223C484.873 45.9996 481.197 48.3412 477.541 50.7661C473.873 53.1256 470.193 55.4815 466.508 57.8053C462.66 60.2326 458.807 62.6254 454.956 65.0027C454.834 65.0801 454.726 65.1599 454.604 65.2372C451.197 67.3289 447.777 69.4193 444.358 71.5097L443.853 71.8014L443.482 71.3645C440.926 68.2777 438.383 65.192 435.842 62.0909C435.75 61.9945 435.661 61.8814 435.572 61.7683C432.689 58.2672 429.822 54.753 426.973 51.1923C424.249 47.8162 421.535 44.3925 418.831 40.9699C416.162 37.4879 413.445 34.0808 410.807 30.5547C413.715 33.6844 416.543 36.9307 419.405 40.1188C422.248 43.352 425.091 46.5853 427.903 49.8614C431.04 53.4863 434.169 57.1589 437.282 60.8612C437.294 60.8635 437.294 60.8635 437.302 60.8814C439.637 63.6373 441.969 66.4098 444.301 69.1824C447.395 67.3158 450.503 65.4349 453.604 63.6016C453.621 63.5718 453.621 63.5718 453.633 63.5742C457.776 61.0992 461.917 58.6398 466.076 56.216C469.796 54.0458 473.525 51.8935 477.262 49.7745C481.017 47.69 484.747 45.5377 488.513 43.5223Z" fill="white"/>
<path d="M437.212 62.0039C437.173 62.0218 437.144 62.0527 437.105 62.0706C436.638 62.3527 436.172 62.6348 435.706 62.9051C433.483 64.2253 431.224 65.4681 428.939 66.6574C426.149 68.1347 423.315 69.5216 420.471 70.8942C417.621 72.2299 414.761 73.5513 411.856 74.7941C408.95 76.0357 406.026 77.2393 403.033 78.2869C405.736 76.6143 408.507 75.0988 411.295 73.6322C414.096 72.1561 416.93 70.7704 419.763 69.3954C422.626 68.0502 425.485 66.7276 428.391 65.486C430.704 64.4931 433.048 63.5277 435.424 62.6539C435.974 62.4456 436.523 62.2491 437.084 62.0551C437.123 62.0372 437.173 62.0218 437.212 62.0039Z" fill="white"/>
<path d="M480.368 91.1901C477.876 89.2271 475.491 87.1378 473.157 85.0212C470.812 82.9022 468.537 80.7237 466.264 78.5332C464.02 76.3119 461.79 74.0798 459.63 71.7775C457.867 69.912 456.132 68.0156 454.47 66.0466C454.108 65.6264 453.758 65.2086 453.408 64.7895C453.377 64.7609 453.359 64.7217 453.328 64.6919C453.359 64.7205 453.402 64.7514 453.435 64.7693C453.9 65.1466 454.355 65.5109 454.808 65.8859C456.772 67.4847 458.664 69.1561 460.541 70.8489C462.886 72.9679 465.161 75.1464 467.421 77.3464C469.665 79.5677 471.896 81.7998 474.054 84.1022C476.226 86.3974 478.356 88.7318 480.368 91.1901Z" fill="white"/>
<path d="M250.029 491.583C374.78 491.583 475.91 478.069 475.91 461.4C475.91 444.731 374.78 431.217 250.029 431.217C125.279 431.217 24.1484 444.731 24.1484 461.4C24.1484 478.069 125.279 491.583 250.029 491.583Z" fill="#EBEBEB"/>
<path d="M0 410.173L62.5081 409.883L125.015 409.779L250.03 409.579L375.045 409.777L437.552 409.881L500.059 410.173L437.552 410.464L375.045 410.569L250.03 410.767L125.015 410.567L62.5081 410.462L0 410.173Z" fill="#263238"/>
<path d="M423.649 332.615C423.649 332.615 402.537 327.829 390.964 317.167C379.392 306.505 372.928 287.403 372.928 287.403C372.928 287.403 385.356 289.679 396.606 293.622C398.494 295.644 402.091 299.808 403.769 303.751C403.769 303.751 404.125 299.586 403.825 296.509C406.834 297.897 409.455 299.43 411.344 301.073C420.94 309.471 423.649 332.615 423.649 332.615Z" fill="#0E70E2"/>
<path d="M386.112 296.687C383.234 294.695 380.304 292.775 377.439 290.764C377.266 290.643 377.428 290.372 377.612 290.483C383.053 293.732 388.416 297.206 393.605 300.842C395.414 302.111 397.191 303.43 398.947 304.776C398.824 304.567 398.702 304.358 398.579 304.151C397.945 303.09 397.278 302.05 396.61 301.01C395.267 298.921 393.801 296.865 392.128 295.028C392.066 294.96 392.172 294.859 392.231 294.929C393.873 296.825 395.514 298.701 397.017 300.713C397.731 301.669 398.391 302.659 399.023 303.671C399.351 304.196 399.668 304.726 399.971 305.266C400.073 305.446 400.185 305.627 400.288 305.811C403.018 307.955 405.676 310.19 408.214 312.554C409.78 314.012 411.289 315.525 412.749 317.085C411.933 314.53 411.22 311.946 410.272 309.43C410.24 309.345 410.381 309.308 410.412 309.396C411.331 312.035 412.337 314.686 413.047 317.397C414.665 319.143 416.213 320.955 417.669 322.838C417.644 322.724 417.62 322.607 417.593 322.494C417.353 321.499 417.103 320.506 416.838 319.518C416.324 317.608 415.763 315.71 415.119 313.84C413.797 310.003 412.083 306.249 409.447 303.127C409.388 303.057 409.492 302.957 409.552 303.028C413.676 307.91 416.095 313.765 417.638 319.912C417.864 320.811 418.077 321.715 418.282 322.618C418.39 323.097 418.518 323.585 418.598 324.078C419.237 324.939 419.863 325.811 420.463 326.704C424.128 332.158 426.986 338.12 429.396 344.222C432.11 351.095 434.22 358.194 436.162 365.316C436.2 365.456 435.991 365.504 435.946 365.37C431.817 353.015 427.599 340.484 420.531 329.442C419.038 327.11 417.423 324.864 415.71 322.697C412.237 322.501 408.732 321.748 405.443 320.651C401.805 319.44 398.373 317.759 395.154 315.683C393.294 314.484 391.601 313.084 389.88 311.699C389.8 311.635 389.89 311.521 389.971 311.589C392.825 314.003 396.257 315.894 399.648 317.443C403.055 318.999 406.638 320.219 410.299 321.017C411.858 321.356 413.438 321.607 415.02 321.822C413.069 319.417 410.988 317.117 408.794 314.924C408.082 314.212 407.344 313.533 406.611 312.844C404.187 311.074 401.499 309.676 398.806 308.374C395.347 306.703 391.942 304.932 388.518 303.19C386.587 302.208 384.667 301.202 382.72 300.251C382.636 300.21 382.712 300.089 382.796 300.128C386.265 301.804 389.79 303.371 393.293 304.976C396.589 306.486 399.925 308.001 403.088 309.779C403.225 309.856 403.352 309.939 403.487 310.017C400.629 307.527 397.668 305.154 394.638 302.866C391.836 300.752 388.997 298.683 386.112 296.687Z" fill="#263238"/>
<path d="M387.313 307.572C389.029 308.324 390.778 308.992 392.477 309.786C394.224 310.603 395.881 311.56 397.54 312.542C397.612 312.585 397.546 312.687 397.472 312.651C395.789 311.845 394.084 311.092 392.416 310.254C390.709 309.394 389.021 308.476 387.27 307.71C387.188 307.673 387.227 307.535 387.313 307.572Z" fill="#263238"/>
<path d="M492.234 226.218C492.234 226.218 486.307 233.006 485.924 243.752C485.855 245.646 486.154 248.283 486.373 251.386C478.5 255.59 472.595 263.161 472.595 263.161C477.068 260.474 483.206 259.39 486.518 259.828C486.406 261.869 486.164 263.988 485.712 266.137C484.25 266.053 481.426 266.249 476.757 267.909C476.757 267.909 481.339 267.792 484.832 269.513C481.069 281.486 469.881 293.786 438.99 299.01C438.99 299.01 433.031 278.038 444.462 255.54C453.717 237.334 492.234 226.218 492.234 226.218Z" fill="#0E70E2"/>
<path d="M428.298 350.244C428.835 345.129 429.508 340.028 430.298 334.945C431.879 324.777 433.928 314.665 436.528 304.707C437.754 300.009 439.224 295.411 440.987 290.929C440.873 290.116 440.891 289.269 440.873 288.456C440.851 287.467 440.847 286.478 440.857 285.488C440.88 283.51 440.972 281.535 441.141 279.562C441.473 275.668 442.067 271.768 443.038 267.98C443.603 265.78 444.26 263.613 444.905 261.435C444.931 261.346 445.068 261.388 445.043 261.477C443.95 265.242 443.322 269.161 442.762 273.037C442.207 276.877 441.866 280.754 441.724 284.63C441.685 285.692 441.666 286.754 441.665 287.816C441.665 288.266 441.684 288.723 441.7 289.18C443.22 285.504 444.937 281.905 446.905 278.405C450.019 272.871 453.596 267.611 457.478 262.588C457.443 262.015 457.615 261.411 457.732 260.859C457.877 260.169 458.027 259.481 458.181 258.792C458.497 257.381 458.851 255.978 459.234 254.583C460.002 251.784 461.016 249.078 461.891 246.315C461.919 246.227 462.056 246.268 462.03 246.357C461.214 249.094 460.672 251.927 460.045 254.712C459.736 256.089 459.433 257.469 459.131 258.847C458.98 259.536 458.832 260.226 458.69 260.917C458.68 260.967 458.671 261.021 458.662 261.072C459.911 259.497 461.183 257.942 462.487 256.415C468.385 249.497 474.853 243.117 481.362 236.781C482.162 236.002 482.983 235.243 483.795 234.475C483.862 234.411 483.958 234.512 483.893 234.579C477.673 241.068 471.547 247.633 465.746 254.504C464.368 256.138 463.011 257.79 461.677 259.463C462.378 258.986 463.088 258.525 463.785 258.067C465.582 256.89 467.403 255.746 469.277 254.696C471.152 253.646 473.041 252.62 474.966 251.665C476.947 250.683 479.064 249.884 480.976 248.772C481.058 248.725 481.129 248.864 481.045 248.899C479.074 249.706 477.234 250.938 475.408 252.021C473.527 253.135 471.651 254.259 469.804 255.431C467.989 256.582 466.164 257.717 464.36 258.889C462.857 259.865 461.378 260.932 459.82 261.833C456.257 266.448 452.908 271.229 449.923 276.237C448.042 279.393 446.342 282.63 444.807 285.938C445.178 285.778 445.55 285.62 445.914 285.459C446.857 285.039 447.8 284.622 448.743 284.203C450.56 283.395 452.386 282.61 454.208 281.817C457.673 280.31 461.191 278.927 464.589 277.273C466.494 276.347 468.369 275.368 470.134 274.193C470.212 274.142 470.279 274.267 470.203 274.319C463.87 278.686 456.769 281.762 449.758 284.863L446.719 286.208C445.885 286.578 445.048 286.991 444.187 287.314C442.119 291.946 440.371 296.717 438.963 301.63C436.15 311.441 434.008 321.465 432.242 331.513C430.471 341.604 429.274 351.761 428.346 361.959C428.23 363.233 428.116 364.504 427.971 365.775C427.914 366.282 427.16 366.282 427.166 365.754C427.228 360.578 427.758 355.39 428.298 350.244Z" fill="#263238"/>
<path d="M447.092 264.935C447.658 261.795 448.495 258.723 449.34 255.65C449.365 255.56 449.501 255.602 449.479 255.691C448.698 258.709 448.138 261.785 447.571 264.848C446.993 267.97 446.482 271.107 446.043 274.251C446.036 274.304 445.952 274.305 445.957 274.248C446.16 271.121 446.536 268.02 447.092 264.935Z" fill="#263238"/>
<path d="M460.406 273.453C462.5 271.971 464.85 270.848 467.124 269.672C468.25 269.09 469.39 268.537 470.531 267.985C471.706 267.416 472.928 266.939 474.094 266.354C474.176 266.312 474.246 266.439 474.163 266.48C473.033 267.047 471.962 267.733 470.852 268.338C469.708 268.962 468.57 269.597 467.422 270.213C465.164 271.427 462.943 272.772 460.573 273.755C460.367 273.84 460.224 273.581 460.406 273.453Z" fill="#263238"/>
<path opacity="0.1" d="M423.263 296.042C423.263 296.042 403.727 291.376 394.756 278.27C386.189 265.755 383.421 244.419 383.201 242.542C383.554 244.263 387.584 262.91 400.885 271.595C411.067 278.252 420.909 283.721 423.263 296.042Z" fill="#263238"/>
<path d="M405.232 262.288C408.67 265.599 411.248 269.493 412.434 274.152C412.444 274.193 412.387 274.213 412.372 274.173C410.905 269.835 408.482 265.56 405.136 262.396C405.069 262.331 405.166 262.224 405.232 262.288Z" fill="#263238"/>
<path d="M423.263 296.043C423.263 296.043 403.727 291.376 394.756 278.271C386.189 265.755 383.421 244.419 383.201 242.543C383.182 242.455 383.18 242.411 383.18 242.411C383.18 242.411 392.547 255.729 402.396 259.126C412.245 262.523 426.086 274.273 423.263 296.043Z" fill="#0E70E2"/>
<path d="M386.64 249.758C388.452 253.312 390.352 256.838 392.679 260.085C394.946 263.247 397.676 265.94 400.716 268.355C403.369 270.464 406.175 272.373 408.862 274.44C408.842 274.408 408.823 274.374 408.801 274.343C408.296 273.595 407.757 272.867 407.201 272.156C406.082 270.727 404.86 269.378 403.63 268.043C401.201 265.41 398.724 262.826 396.548 259.975C395.343 258.396 394.284 256.715 393.415 254.928C393.374 254.846 393.511 254.8 393.55 254.882C396.718 261.484 403.048 265.709 407.564 271.286C408.207 272.08 408.814 272.898 409.37 273.755C409.762 274.359 410.24 275.033 410.494 275.741C412.951 277.755 415.221 279.948 417.159 282.478C416.996 281.196 416.718 279.916 416.375 278.685C415.889 276.935 415.253 275.291 414.305 273.737C414.256 273.659 414.377 273.578 414.424 273.658C415.338 275.199 416.171 276.859 416.702 278.573C417.133 279.966 417.337 281.361 417.413 282.792C417.416 282.797 417.42 282.8 417.424 282.805C418.399 284.113 419.264 285.493 420.063 286.91C419.982 286.492 419.903 286.075 419.82 285.659C419.432 283.712 419.003 281.771 418.499 279.85C417.474 275.958 416.09 272.183 413.799 268.843C413.746 268.767 413.867 268.687 413.919 268.764C416.18 272.058 417.894 275.736 419.125 279.532C419.747 281.449 420.246 283.399 420.685 285.366C420.9 286.326 421.093 287.292 421.277 288.258C421.372 288.758 421.481 289.27 421.562 289.785C423.558 294.006 424.962 298.531 426.067 303.028C428.059 311.125 429.303 319.452 430.234 327.73C431.211 336.423 431.722 345.211 431.582 353.959C431.564 355.058 431.499 356.156 431.438 357.252C431.422 357.536 430.998 357.576 430.985 357.278C430.794 352.944 430.682 348.606 430.424 344.274C430.167 339.937 429.791 335.613 429.327 331.294C428.416 322.821 427.101 314.359 425.256 306.037C423.671 298.894 421.618 291.705 417.714 285.447C415.758 282.31 413.418 279.534 410.665 277.065C407.926 274.606 404.931 272.452 402.044 270.174C399.172 267.909 396.41 265.444 394.132 262.569C391.674 259.466 389.74 255.987 387.918 252.485C387.458 251.6 386.985 250.72 386.518 249.838C386.477 249.756 386.598 249.676 386.64 249.758Z" fill="#263238"/>
<path d="M390.013 252.622C391.265 255.266 392.774 257.78 394.365 260.233C394.403 260.291 394.315 260.349 394.275 260.292C392.573 257.891 391.156 255.315 389.876 252.668C389.837 252.585 389.974 252.539 390.013 252.622Z" fill="#263238"/>
<path d="M494.958 287.403C494.958 287.403 495.268 315.167 478.667 323.181C462.067 331.206 453.166 324.519 441.887 327.205C441.887 327.205 441.897 327.202 441.907 327.191C442.345 326.529 450.395 314.956 463.199 311.771C476.37 308.486 490.964 298.971 494.958 287.403Z" fill="#0E70E2"/>
<path opacity="0.1" d="M494.958 287.403C494.958 287.403 495.268 315.167 478.667 323.181C462.067 331.206 453.166 324.519 441.887 327.205C441.887 327.205 441.897 327.202 441.907 327.191C442.375 326.963 450.61 322.843 460.78 321.623C471.247 320.363 491.244 313.541 494.958 287.403Z" fill="black"/>
<path d="M440.793 327.699C442.774 325.915 444.99 324.38 447.396 323.228C447.752 323.057 448.119 322.918 448.481 322.766C448.656 322.544 448.842 322.334 449.038 322.129C449.536 321.61 450.055 321.113 450.601 320.644C451.644 319.749 452.756 318.933 453.94 318.235C456.69 316.618 459.704 315.487 462.516 313.985C462.598 313.941 462.667 314.068 462.585 314.111C461.195 314.833 459.85 315.629 458.497 316.418C457.182 317.186 455.837 317.918 454.557 318.744C453.408 319.486 452.301 320.306 451.272 321.206C450.981 321.462 450.7 321.74 450.42 322.022C452.251 321.396 454.132 320.915 456.029 320.531C459.069 319.917 462.142 319.483 465.175 318.836C466.666 318.518 468.135 318.122 469.579 317.647C470.958 316.539 472.332 315.436 473.636 314.234C475.212 312.781 476.659 311.203 477.927 309.476C477.981 309.401 478.105 309.478 478.049 309.552C476 312.196 473.804 314.86 471.243 317.061C471.959 316.79 472.667 316.498 473.366 316.181C479.006 313.62 484.025 309.548 487.512 304.413C487.563 304.336 487.687 304.411 487.635 304.489C484.596 308.889 480.74 312.654 476.191 315.474C473.911 316.889 471.505 318.046 468.96 318.897C466.034 319.875 463.002 320.454 459.975 321.021C457.012 321.575 454.037 322.142 451.177 323.113C448.53 324.013 446.038 325.318 443.799 326.994C439.526 330.195 436.222 334.574 433.851 339.33C430.71 345.633 429.207 352.678 428.373 359.629C428.337 359.927 427.878 359.927 427.899 359.617C428.678 347.947 431.797 335.804 440.793 327.699Z" fill="#263238"/>
<path d="M460.057 318.646C460.886 317.321 462.129 316.327 463.47 315.552C465.038 314.646 466.445 313.67 467.529 312.194C467.584 312.119 467.708 312.197 467.652 312.269C466.649 313.557 465.447 314.613 464.067 315.478C462.619 316.386 461.157 317.277 460.161 318.709C460.116 318.774 460.015 318.712 460.057 318.646Z" fill="#263238"/>
<path d="M451.251 348.19L450.496 363.458L448.18 410.101H413.355L411.04 363.458L410.285 348.19H451.251Z" fill="#37474F"/>
<path d="M451.251 348.19L450.496 363.458H411.04L410.285 348.19H451.251Z" fill="#263238"/>
<path d="M453.692 341.818H407.844V356.382H453.692V341.818Z" fill="#37474F"/>
<path d="M29.3126 472.949C31.8768 473.777 105.025 473.004 107.797 471.212C108.851 470.538 109.36 459.878 109.608 446.979C109.663 444.194 109.701 441.317 109.725 438.396C109.898 419.429 109.637 399.299 109.637 399.299L60.7036 399.674L62.1381 438.76L62.4464 447.34C62.4464 447.34 34.572 460.162 31.7435 462.455C28.9317 464.748 26.7484 472.12 29.3126 472.949Z" fill="#F7A9A0"/>
<path d="M29.3135 472.947C31.8742 473.779 105.02 472.999 107.793 471.217C108.849 470.53 109.364 459.878 109.601 446.98C109.666 444.195 109.707 441.317 109.72 438.4C109.746 435.39 109.759 432.353 109.772 429.37H61.7878L62.1307 438.756L62.4473 447.336C62.4473 447.336 34.567 460.167 31.7421 462.452C28.9302 464.749 26.7529 472.116 29.3135 472.947Z" fill="#EBEBEB"/>
<path d="M29.0905 473.056C31.669 473.889 105.227 473.112 108.014 471.309C109.301 470.477 109.79 454.826 109.953 438.31L62.1005 438.676L62.41 447.305C62.41 447.305 34.3796 460.198 31.5357 462.504C28.7072 464.809 26.512 472.223 29.0905 473.056Z" fill="#0E70E2"/>
<path d="M30.1125 470.103C42.4396 469.669 92.2004 469.087 104.419 469.596C104.518 469.6 104.519 469.667 104.419 469.673C92.2099 470.369 42.4455 470.549 30.1137 470.305C29.8541 470.299 29.8518 470.111 30.1125 470.103Z" fill="#263238"/>
<path d="M60.6421 444.585C65.4849 443.628 71.4276 444.31 75.1715 447.727C75.3168 447.86 75.1263 448.064 74.9692 448.016C70.1657 446.557 65.6849 445.636 60.6695 445.197C60.3147 445.166 60.2957 444.653 60.6421 444.585Z" fill="#263238"/>
<path d="M57.16 446.733C62.0027 445.775 67.9454 446.458 71.6894 449.875C71.8346 450.008 71.6442 450.212 71.4858 450.165C66.6824 448.706 62.2015 447.785 57.185 447.346C56.8326 447.314 56.8135 446.8 57.16 446.733Z" fill="#263238"/>
<path d="M53.6815 448.88C58.5242 447.922 64.4669 448.605 68.2109 452.022C68.3561 452.155 68.1656 452.359 68.0073 452.312C63.2039 450.853 58.723 449.932 53.7064 449.493C53.3541 449.461 53.335 448.947 53.6815 448.88Z" fill="#263238"/>
<path d="M50.2013 451.028C55.044 450.07 60.9867 450.753 64.7307 454.17C64.8759 454.302 64.6855 454.507 64.5283 454.458C59.7249 453 55.244 452.079 50.2275 451.639C49.8727 451.61 49.8549 451.097 50.2013 451.028Z" fill="#263238"/>
<path d="M53.8092 440.345C57.2687 442.979 61.7484 444.02 65.7709 445.462C66.1875 445.611 66.5149 445.217 66.5256 444.848C66.6054 444.832 66.6721 444.771 66.6375 444.671C65.2733 440.632 62.3567 436.357 59.0472 433.635C57.0032 431.954 53.4402 430.811 51.5617 433.456C49.7843 435.961 51.789 438.809 53.8092 440.345ZM52.5331 436.454C51.6224 431.138 57.3663 433.874 58.8234 435.172C59.7591 436.006 60.6115 436.969 61.4246 437.923C63.1269 439.92 64.5126 442.122 65.9995 444.27C64.0674 443.441 62.0805 442.785 60.1198 442.027C57.7818 441.127 53.0355 439.383 52.5331 436.454Z" fill="#263238"/>
<path d="M82.7597 437.106C81.555 434.093 77.8229 434.368 75.442 435.522C71.5861 437.391 67.7481 440.862 65.4732 444.468C65.4172 444.557 65.4672 444.632 65.541 444.666C65.4649 445.027 65.6899 445.487 66.1303 445.44C70.379 444.982 74.9765 445.021 78.9586 443.273C81.2824 442.255 83.899 439.958 82.7597 437.106ZM72.429 443.431C70.3445 443.706 68.26 443.878 66.1875 444.231C68.1374 442.492 70.0017 440.677 72.1242 439.135C73.1373 438.399 74.192 437.662 75.298 437.072C77.0194 436.152 83.2454 434.841 81.1121 439.794C79.936 442.522 74.9123 443.103 72.429 443.431Z" fill="#263238"/>
<path d="M124.356 189.871C124.356 189.871 110.086 310.035 109.781 311.656C109.736 311.871 113.835 440.077 113.835 440.077H60.4754C60.4754 440.077 59.0302 327.726 61.0122 308.729C63.5348 284.495 79.4356 189.872 79.4356 189.872H124.356V189.871Z" fill="#37474F"/>
<path d="M110.764 429.109C102.566 428.939 104.921 428.872 96.7222 428.793C92.7104 428.755 66.3443 428.525 62.5968 429.145C62.5146 429.158 62.5146 429.299 62.5968 429.312C66.3455 429.932 92.7104 429.702 96.7234 429.664C104.922 429.586 102.567 429.519 110.765 429.347C110.917 429.346 110.917 429.113 110.764 429.109Z" fill="#263238"/>
<path d="M102.731 301.814C103.477 295.023 104.453 288.256 105.344 281.483C107.138 267.842 108.936 254.202 110.775 240.567C112.859 225.11 115.077 209.674 117.271 194.232C117.297 194.045 117.592 194.046 117.57 194.239C115.916 208.024 114.259 221.805 112.556 235.584C110.868 249.233 109.063 262.868 107.283 276.505C105.519 290.021 103.187 303.59 103.25 317.256C103.282 324.13 103.581 331.006 103.77 337.877C103.961 344.756 104.157 351.634 104.34 358.514C104.757 374.082 105.346 407.396 105.192 422.971C105.19 423.173 104.895 423.159 104.882 422.963C103.94 409.083 103.643 377.438 103.186 363.536C102.733 349.784 102.243 336.026 101.948 322.269C101.8 315.421 101.982 308.624 102.731 301.814Z" fill="#263238"/>
<path d="M157.718 470.491C160.306 469.739 220.434 428.075 221.723 425.037C222.219 423.887 216.66 414.777 209.633 403.958C208.115 401.621 206.534 399.219 204.915 396.787C194.42 380.987 182.916 364.467 182.916 364.467L142.613 392.221L165.722 423.778L170.789 430.709C170.789 430.709 154.902 456.957 153.846 460.441C152.804 463.915 155.131 471.245 157.718 470.491Z" fill="#F7A9A0"/>
<path d="M157.718 470.489C160.305 469.741 220.429 428.075 221.724 425.044C222.213 423.883 216.666 414.774 209.629 403.963C208.122 401.62 206.541 399.216 204.915 396.792C203.248 394.285 201.557 391.763 199.895 389.286L160.166 416.197L165.713 423.776L170.788 430.702C170.788 430.702 154.902 456.961 153.843 460.437C152.804 463.917 155.131 471.237 157.718 470.489Z" fill="#EBEBEB"/>
<path d="M157.593 470.704C160.195 469.947 220.66 428.05 221.957 424.995C222.557 423.585 214.183 410.353 205.055 396.586L165.642 423.727L170.738 430.698C170.738 430.698 154.762 457.093 153.7 460.597C152.651 464.091 154.991 471.461 157.593 470.704Z" fill="#0E70E2"/>
<path d="M156.786 467.685C166.749 460.413 207.622 432.023 218.022 425.592C218.107 425.54 218.145 425.596 218.067 425.656C208.349 433.08 167.247 461.138 156.9 467.853C156.682 467.992 156.575 467.838 156.786 467.685Z" fill="#263238"/>
<path d="M167.75 429.435C171.222 425.927 176.526 423.159 181.542 423.889C181.736 423.917 181.693 424.192 181.536 424.241C176.741 425.728 172.515 427.478 168.115 429.926C167.806 430.101 167.501 429.686 167.75 429.435Z" fill="#263238"/>
<path d="M166.074 433.166C169.547 429.658 174.849 426.89 179.865 427.619C180.061 427.648 180.017 427.923 179.859 427.973C175.066 429.46 170.838 431.209 166.438 433.659C166.129 433.831 165.825 433.417 166.074 433.166Z" fill="#263238"/>
<path d="M164.396 436.896C167.869 433.388 173.171 430.62 178.188 431.349C178.382 431.378 178.339 431.653 178.182 431.702C173.388 433.189 169.161 434.939 164.761 437.387C164.451 437.561 164.148 437.147 164.396 436.896Z" fill="#263238"/>
<path d="M162.721 440.625C166.193 437.117 171.497 434.349 176.513 435.079C176.708 435.108 176.664 435.383 176.507 435.431C171.712 436.918 167.486 438.668 163.086 441.117C162.775 441.291 162.472 440.876 162.721 440.625Z" fill="#263238"/>
<path d="M159.717 429.757C164.058 429.996 168.351 428.347 172.489 427.285C172.919 427.175 172.968 426.665 172.77 426.353C172.827 426.296 172.848 426.208 172.764 426.145C169.369 423.566 164.557 421.662 160.291 421.264C157.656 421.019 154.065 422.07 153.993 425.315C153.925 428.384 157.182 429.617 159.717 429.757ZM156.478 427.252C152.742 423.363 159.032 422.406 160.967 422.663C162.21 422.828 163.456 423.149 164.663 423.482C167.193 424.181 169.575 425.226 172.011 426.172C169.945 426.57 167.933 427.14 165.885 427.614C163.444 428.176 158.537 429.396 156.478 427.252Z" fill="#263238"/>
<path d="M181.868 410.841C179.18 409.022 176.245 411.343 174.92 413.633C172.776 417.343 171.545 422.37 171.685 426.631C171.688 426.736 171.771 426.77 171.851 426.756C171.99 427.097 172.434 427.352 172.774 427.065C176.034 424.305 179.863 421.757 182.18 418.077C183.532 415.931 184.41 412.561 181.868 410.841ZM176.862 421.87C175.29 423.267 173.661 424.578 172.143 426.033C172.781 423.5 173.306 420.952 174.2 418.483C174.626 417.306 175.086 416.105 175.67 414.995C176.578 413.268 181 408.692 182.01 413.988C182.566 416.907 178.733 420.205 176.862 421.87Z" fill="#263238"/>
<path d="M79.4336 189.871C79.4336 189.871 87.737 215.48 97.1356 228.396C97.1356 228.396 99.5879 323.085 103.414 333.961C109.754 351.982 159.063 424.816 159.063 424.816L204.247 393.611C204.247 393.611 156.991 325.213 154.522 318.669C152.882 314.324 148.106 239.269 148.794 237.384C157.079 214.667 144.588 189.871 144.588 189.871H79.4336Z" fill="#37474F"/>
<path d="M194.603 384.091C187.759 388.606 189.659 387.214 182.866 391.804C179.543 394.051 157.71 408.834 154.977 411.474C154.916 411.532 154.996 411.647 155.072 411.612C158.51 409.994 180.081 394.833 183.362 392.523C190.065 387.802 188.089 389.085 194.739 384.289C194.864 384.198 194.732 384.007 194.603 384.091Z" fill="#263238"/>
<path d="M143.078 234.642C143.75 231.69 144.496 228.748 144.944 225.75C145.396 222.72 145.501 219.651 145.325 216.594C144.968 210.405 143.601 204.297 141.982 198.329C141.577 196.834 141.151 195.347 140.709 193.863C140.63 193.595 141.047 193.493 141.13 193.758C142.946 199.626 144.798 205.489 145.726 211.577C146.625 217.479 146.473 223.344 145.268 229.189C144.033 235.171 142.294 241.008 142.526 247.182C142.646 250.381 146.456 309.874 146.452 312.96C146.448 315.99 146.584 319.042 147.654 321.911C148.688 324.681 150.328 327.193 151.863 329.705C153.488 332.364 155.134 335.011 156.787 337.652C163.3 348.06 178.207 369.112 185.151 379.238C186.032 380.522 186.917 381.804 187.802 383.084C187.894 383.216 187.677 383.33 187.586 383.204C180.291 373.143 165.021 352.208 158.297 341.755C154.999 336.629 151.63 331.497 148.632 326.188C147.216 323.682 146.131 321.056 145.754 318.185C145.378 315.31 141.349 246.414 141.589 243.32C141.818 240.389 142.427 237.505 143.078 234.642Z" fill="#263238"/>
<path d="M122.462 198.559C123.587 203.174 123.42 208.937 126.701 212.728C128.325 214.604 130.691 215.545 133.068 216.04C135.798 216.609 138.581 216.675 141.355 216.497C141.476 216.489 141.482 216.667 141.377 216.701C136.425 218.279 129.552 218.014 125.804 213.934C124.08 212.058 123.317 209.587 122.947 207.118C122.529 204.331 122.287 201.397 122.26 198.582C122.257 198.465 122.435 198.448 122.462 198.559Z" fill="#263238"/>
<path d="M96.8092 228.566C96.8461 228.11 97.4866 228.144 97.5283 228.583C97.7247 230.676 97.6914 232.785 97.7545 234.885C97.814 236.875 97.8568 238.864 97.9104 240.854C98.0199 244.942 98.1068 249.031 98.2009 253.119C98.3902 261.295 98.6271 269.469 98.9687 277.641C99.3092 285.812 99.6794 293.982 100.093 302.149C100.298 306.23 100.546 310.309 100.782 314.387C101.008 318.317 101.247 322.256 101.997 326.131C103.528 334.035 106.645 341.828 110.857 348.758C110.958 348.923 110.703 349.046 110.593 348.898C106.173 342.967 103.073 336.414 101.35 329.286C99.502 321.645 99.308 313.725 98.8675 305.922C97.9354 289.423 97.3307 272.92 96.9176 256.401C96.8009 251.763 96.6997 247.122 96.6866 242.482C96.6807 240.217 96.6676 237.952 96.6831 235.689C96.6985 233.319 96.6176 230.929 96.8092 228.566Z" fill="#263238"/>
<path d="M88.4668 224.568C93.9023 226.353 99.1498 228.886 104.166 231.541C104.363 231.644 104.233 231.936 104.02 231.849C98.7308 229.684 93.3381 227.611 88.181 225.169C87.7763 224.978 88.0501 224.431 88.4668 224.568Z" fill="#263238"/>
<path d="M86.8749 190.021C86.8891 189.848 87.2106 189.808 87.2094 189.996C87.1665 195.984 87.5665 201.252 88.0963 206.848C88.3415 209.446 90.5331 223.804 95.2568 222.758C96.0473 222.583 96.452 221.84 96.5758 220.703C96.7246 219.336 96.1854 217.659 95.9485 216.299C95.4235 213.293 95.0033 210.279 94.7318 207.242C94.2271 201.575 94.2021 195.908 94.9247 190.258C94.9485 190.073 95.2294 190.087 95.2294 190.275C95.2223 198.12 95.4378 205.951 96.6675 213.722C97.2592 217.456 99.2305 223.079 95.1354 223.653C90.9629 224.238 88.2653 214.821 87.757 212.245C86.3356 205.056 86.2796 197.295 86.8749 190.021Z" fill="#263238"/>
<path d="M95.1328 223.143C95.559 224.108 95.903 225.111 96.1947 226.12C96.4209 226.903 96.7292 227.749 96.6363 228.566C96.6185 228.724 96.3982 228.74 96.309 228.633C95.7554 227.962 95.5209 227.046 95.2114 226.252C94.8518 225.331 94.4721 224.417 94.14 223.487C93.9209 222.871 94.8697 222.549 95.1328 223.143Z" fill="#263238"/>
<path d="M64.4898 129.722C58.0733 140.478 34.1084 187.4 39.6297 200.766C43.0272 208.992 52.5329 205.906 57.7233 202.835C63.8041 199.237 73.2384 146.486 73.8491 135.971C74.4301 125.958 70.7944 119.154 64.4898 129.722Z" fill="#F7A9A0"/>
<path d="M42.5078 172.669L70.3619 165.805C70.3619 165.805 73.2916 150.51 74.1809 134.425C75.0702 118.339 69.2703 120.344 58.4384 137.461C47.6053 154.58 42.5078 172.669 42.5078 172.669Z" fill="#0E70E2"/>
<path d="M52.6383 157.592C52.2681 158.604 51.9598 159.629 51.8848 160.753C52.5764 159.864 53.0205 158.889 53.4276 157.902C53.7978 156.89 54.1061 155.877 54.1811 154.754C53.5026 155.643 53.0466 156.606 52.6383 157.592ZM68.0082 125.065V125.077C67.7618 125.83 67.5642 126.596 67.5142 127.435C68.2058 126.546 68.6499 125.582 69.057 124.584C69.1058 124.448 69.1558 124.324 69.1927 124.188C68.8225 124.423 68.4272 124.719 68.0082 125.065ZM66.7487 142.125C65.7856 142.582 64.8357 143.088 63.9833 143.817C65.094 143.669 66.1071 143.311 67.0939 142.89C68.057 142.433 69.007 141.94 69.8594 141.199C68.7487 141.335 67.7356 141.706 66.7487 142.125Z" fill="white"/>
<path d="M69.1991 160.635C59.1851 163.955 48.3187 165.833 46.4342 166.304C46.3449 166.327 46.333 166.171 46.4247 166.153C48.2865 165.793 60.6005 162.201 69.1884 160.468C69.2872 160.449 69.2956 160.603 69.1991 160.635Z" fill="#263238"/>
<path opacity="0.1" d="M74.1786 134.421C73.2894 150.506 70.3644 165.801 70.3644 165.801L57.748 168.912L72.3763 123.756C73.8834 124.806 74.5119 128.299 74.1786 134.421Z" fill="black"/>
<path d="M75.2024 204.165L147.296 189.871C147.296 189.871 123.564 141.1 88.7294 122.168C80.6677 117.787 68.1954 120.976 66.9514 128.664C62.6717 155.11 75.2024 204.165 75.2024 204.165Z" fill="#0E70E2"/>
<path d="M86.5496 140.088C86.1663 141.1 85.858 142.125 85.7842 143.249C86.4758 142.359 86.9318 141.384 87.327 140.397C87.6972 139.397 88.0055 138.372 88.0924 137.25C87.4008 138.138 86.9448 139.101 86.5496 140.088ZM80.0069 183.393C79.6367 184.393 79.3153 185.418 79.2414 186.54C79.9331 185.651 80.389 184.688 80.7843 183.688C81.1545 182.676 81.4628 181.651 81.5497 180.541C80.8581 181.43 80.4021 182.393 80.0069 183.393ZM104.548 178.912C104.178 179.924 103.869 180.949 103.783 182.06C104.474 181.183 104.93 180.208 105.338 179.22C105.709 178.208 106.017 177.183 106.092 176.073C105.399 176.949 104.955 177.924 104.548 178.912ZM67.625 126.546C67.5762 126.843 67.5381 127.127 67.5143 127.436C68.206 126.546 68.65 125.583 69.0572 124.585C69.0822 124.523 69.106 124.461 69.1191 124.399C68.5012 125.052 67.9953 125.768 67.625 126.546ZM118.089 146.656C117.793 146.508 117.497 146.384 117.2 146.26C116.188 145.89 115.163 145.582 114.053 145.507C114.929 146.198 115.904 146.654 116.892 147.05C117.57 147.284 118.237 147.519 118.954 147.642C118.67 147.309 118.386 146.976 118.089 146.656ZM121.88 186.812C120.88 186.442 119.855 186.133 118.732 186.058C119.608 186.75 120.583 187.194 121.583 187.601C122.583 187.971 123.62 188.28 124.731 188.355C123.843 187.676 122.88 187.22 121.88 186.812ZM78.7474 157.371C77.7474 156.987 76.7225 156.679 75.5999 156.593C76.4891 157.285 77.451 157.741 78.451 158.149C79.4629 158.52 80.4878 158.828 81.5985 158.903C80.7105 158.21 79.7474 157.766 78.7474 157.371ZM137.138 175.641C136.681 174.666 136.175 173.714 135.446 172.875C135.582 173.986 135.952 174.986 136.359 175.974C136.816 176.949 137.322 177.9 138.051 178.739C137.915 177.627 137.557 176.629 137.138 175.641ZM102.794 153.063C102.337 152.088 101.831 151.15 101.103 150.297C101.239 151.408 101.609 152.421 102.029 153.408C102.473 154.371 102.979 155.321 103.708 156.173C103.573 155.063 103.215 154.049 102.794 153.063ZM119.868 166.222C118.893 166.666 117.942 167.16 117.103 167.9C118.213 167.765 119.226 167.394 120.201 166.974C121.176 166.53 122.127 166.023 122.967 165.296C121.855 165.419 120.843 165.79 119.868 166.222ZM93.4007 193.837C92.4257 194.294 91.4745 194.788 90.6352 195.528C91.7459 195.393 92.759 195.022 93.734 194.602C94.709 194.145 95.6601 193.639 96.4994 192.91C95.3887 193.046 94.3756 193.405 93.4007 193.837ZM66.7489 142.125C66.5263 142.235 66.2917 142.347 66.0703 142.47V143.284C66.4155 143.174 66.762 143.038 67.0953 142.889C68.0584 142.432 69.0083 141.939 69.8607 141.197C68.7488 141.334 67.7358 141.706 66.7489 142.125ZM91.0805 169.148C90.1055 169.592 89.1543 170.098 88.315 170.84C89.4257 170.704 90.4388 170.334 91.4138 169.913C92.3888 169.469 93.3399 168.962 94.1792 168.222C93.0673 168.357 92.0674 168.728 91.0805 169.148ZM99.3255 129.027C99.2517 129.076 99.1898 129.126 99.116 129.188C99.2267 129.176 99.3386 129.163 99.4493 129.126C99.4124 129.089 99.3636 129.064 99.3255 129.027Z" fill="white"/>
<path d="M88.1157 125.983C102.795 121.343 140.944 110.993 147.094 99.4899C155.164 84.3962 149.283 50.5886 145.213 44.9102C142.967 41.7757 121.654 50.2886 119.416 53.7504C117.178 57.2123 121.233 83.4224 120.421 86.3961C119.609 89.3699 93.2585 105.761 81.6778 115.201C67.0686 127.11 76.6017 129.624 88.1157 125.983Z" fill="#F7A9A0"/>
<path d="M126.885 114.464L102.969 98.6211C102.969 98.6211 94.189 104.897 81.7523 115.139C69.3169 125.38 70.0836 131.808 90.0141 128.184C109.945 124.559 126.885 114.464 126.885 114.464Z" fill="#0E70E2"/>
<path d="M108.249 112.152C107.237 111.782 106.212 111.474 105.102 111.399C105.978 112.091 106.954 112.535 107.941 112.942C108.953 113.312 109.978 113.62 111.088 113.695C110.212 113.004 109.236 112.56 108.249 112.152ZM87.3127 118.732C86.8687 117.757 86.3627 116.819 85.6211 115.967C85.7568 117.077 86.127 118.09 86.5473 119.077C86.9913 120.052 87.4984 120.99 88.2389 121.843C88.102 120.719 87.7318 119.719 87.3127 118.732Z" fill="white"/>
<path d="M99.9513 102.977C109.176 108.095 117.919 114.818 119.541 115.884C119.618 115.934 119.512 116.048 119.437 115.993C117.91 114.867 106.927 108.242 99.8358 103.097C99.7537 103.039 99.862 102.928 99.9513 102.977Z" fill="#263238"/>
<path d="M90.0137 128.183C91.0327 127.796 92.0577 127.536 93.0946 127.298C94.1338 127.078 95.1755 126.877 96.2671 126.824C95.2981 127.327 94.2671 127.637 93.2231 127.878C92.1731 128.095 91.1053 128.253 90.0137 128.183Z" fill="#263238"/>
<path d="M91.6191 128.811C92.381 128.236 93.1882 127.859 94.0036 127.396C93.7477 127.81 93.3334 128.075 92.937 128.319C92.5203 128.535 92.0941 128.735 91.6191 128.811Z" fill="#263238"/>
<path d="M47.7144 205.865C39.073 205.096 37.3706 192.488 41.7443 188.291C52.7131 177.768 75.4186 170.406 84.4029 167.948C88.3945 166.855 117.737 176.426 114.09 182.808C108.221 193.083 65.1236 207.414 47.7144 205.865Z" fill="#F7A9A0"/>
<path d="M84.7581 178.208C84.7581 178.208 83.9367 169.432 87.545 159.124C89.058 154.8 93.8984 147.85 96.1495 145.421C99.5173 141.788 115.922 128.744 119.169 132.652C122.11 136.191 106.593 145.608 106.593 145.608C106.593 145.608 121.41 134.721 124.167 139.633C126.924 144.545 107.978 152.854 107.978 152.854C107.978 152.854 123.453 142.01 125.494 147.524C127.037 151.692 110.302 160.185 110.302 160.185C110.302 160.185 123.667 150.955 125.438 155.173C127.396 159.834 112.44 168.642 112.44 168.642C114.162 169.763 117.417 177.738 113.361 183.922C112.659 184.997 84.7581 178.208 84.7581 178.208Z" fill="#F7A9A0"/>
<path d="M101.23 149.045C102.924 147.704 104.63 146.333 106.438 145.148C108.246 143.961 110.097 142.836 112.007 141.824C116.692 139.339 120.014 138.516 119.814 138.589C115.093 140.32 108.555 144.468 106.747 145.656C104.943 146.84 103.079 147.933 101.274 149.117C101.227 149.146 101.19 149.077 101.23 149.045Z" fill="#263238"/>
<path d="M105.395 155.651C107.633 154.031 109.795 152.341 112.104 150.82C114.403 149.306 116.716 148.071 119.112 146.719C119.297 146.615 119.292 146.749 119.111 146.859C116.771 148.306 114.718 149.824 112.394 151.297C110.079 152.766 107.689 154.156 105.429 155.707C105.395 155.731 105.361 155.675 105.395 155.651Z" fill="#263238"/>
<path d="M107.952 161.963C111.245 159.312 115.105 157.036 118.857 155.124C119.044 155.029 119.019 155.2 118.834 155.309C115.194 157.436 112.241 159.314 108.043 162.077C107.978 162.12 107.883 162.019 107.952 161.963Z" fill="#263238"/>
<path d="M122.882 143.912C123.403 143.305 123.927 142.643 124.232 141.896C124.533 141.158 124.494 140.475 124.284 139.727C124.271 139.68 124.193 139.71 124.214 139.753C124.588 140.498 124.193 141.453 123.785 142.099C123.389 142.73 122.907 143.313 122.403 143.861C121.882 144.429 121.311 144.953 120.714 145.442C120.119 145.931 119.543 146.432 118.895 146.855C118.894 146.856 118.893 146.856 118.89 146.857V146.859C118.889 146.859 118.889 146.86 118.888 146.86C118.887 146.86 118.888 146.861 118.888 146.862C118.877 146.873 118.875 146.887 118.88 146.9C118.887 146.918 118.905 146.934 118.926 146.923C119.974 146.373 121.161 146.115 122.338 146.062C122.895 146.037 123.491 146.05 124.003 146.298C124.443 146.511 124.813 146.897 125.009 147.342C125.226 147.832 125.253 148.412 125.068 148.917C124.887 149.41 124.539 149.811 124.2 150.201C123.421 151.094 122.591 151.945 121.718 152.744C121.233 153.187 120.734 153.613 120.224 154.023C119.714 154.432 119.164 154.801 118.681 155.241C118.651 155.268 118.762 155.351 118.794 155.341C119.25 155.204 122.564 153.924 124.025 154.408C124.845 154.681 125.358 155.275 125.424 156.12C125.489 156.971 125.129 157.744 124.685 158.448C124.127 159.331 122.622 161.043 121.89 161.787C121.857 161.821 121.914 161.868 121.947 161.834C122.703 161.086 124.332 159.474 124.988 158.633C125.532 157.936 125.933 157.074 125.889 156.171C125.848 155.349 125.42 154.546 124.67 154.169C123.907 153.786 122.991 153.899 122.185 154.056C121.599 154.17 119.628 154.838 119.237 155.019C119.613 154.786 121.363 153.46 121.861 153.035C122.852 152.191 123.79 151.281 124.656 150.306C125.419 149.448 125.963 148.409 125.518 147.251C125.099 146.163 124.04 145.665 122.928 145.651C122.047 145.642 121.201 145.819 120.395 146.124C120.627 145.98 120.853 145.83 121.068 145.663C121.732 145.146 122.334 144.549 122.882 143.912Z" fill="#263238"/>
<path d="M44.8789 185.604C46.461 184.145 48.2015 182.87 49.9824 181.666C51.7621 180.456 53.618 179.36 55.5191 178.35C57.4286 177.356 59.3679 176.415 61.375 175.637C63.3678 174.825 65.413 174.148 67.4903 173.599C65.5368 174.498 63.5702 175.329 61.6512 176.267C59.725 177.186 57.8179 178.138 55.937 179.139C54.0442 180.119 52.1966 181.183 50.3455 182.245C48.5026 183.319 46.6836 184.438 44.8789 185.604Z" fill="#263238"/>
<path d="M71.6971 135.28C75.6589 135.361 80.6612 127.617 82.2135 122.399C82.3183 122.041 81.3314 119.362 80.0422 115.321C79.2684 112.865 78.466 110.112 77.9148 107.548C77.8041 107.021 62.6699 114.914 62.6699 114.914C62.6699 114.914 65.4068 119.949 66.3413 124.426C66.4151 124.801 66.4532 125.157 66.4567 125.503C66.4615 125.553 66.4603 125.613 66.471 125.682C66.5746 127.751 67.8686 135.199 71.6971 135.28Z" fill="#F7A9A0"/>
<path d="M68.1408 125.414C67.542 125.558 66.9908 125.648 66.4718 125.681C66.4623 125.612 66.4623 125.554 66.4575 125.502C66.4551 125.158 66.4158 124.803 66.3385 124.427C65.4051 119.954 62.6719 114.916 62.6719 114.916C62.6719 114.916 74.9549 108.508 77.4704 107.624C77.6108 110.693 77.5823 123.164 68.1408 125.414Z" fill="#263238"/>
<path d="M72.1324 88.1728C75.9681 92.9156 79.4228 109.695 76.9823 114.733C73.4455 122.036 64.5088 126.208 57.5101 121.236C50.7258 116.417 46.6092 94.4715 49.6282 89.5692C54.0745 82.3491 66.4671 81.1682 72.1324 88.1728Z" fill="#F7A9A0"/>
<path d="M63.2598 103.387C63.2598 103.343 63.3598 103.422 63.3669 103.468C63.5693 104.605 63.9931 105.873 65.0931 106.031C65.1264 106.036 65.1359 106.093 65.0966 106.096C63.8145 106.185 63.2693 104.496 63.2598 103.387Z" fill="#263238"/>
<path d="M64.0198 101.995C65.8067 101.474 66.7174 105.087 65.0615 105.569C63.4329 106.044 62.5222 102.432 64.0198 101.995Z" fill="#263238"/>
<path d="M56.5592 104.914C56.5402 104.873 56.4854 104.989 56.4985 105.034C56.8164 106.143 56.9925 107.468 56.0747 108.095C56.0461 108.114 56.064 108.17 56.0997 108.155C57.2902 107.671 57.0378 105.915 56.5592 104.914Z" fill="#263238"/>
<path d="M55.2659 103.997C53.4314 104.314 54.2005 107.959 55.9004 107.665C57.5718 107.377 56.8028 103.732 55.2659 103.997Z" fill="#263238"/>
<path d="M64.9968 99.4951C64.4801 99.5772 63.9897 99.5677 63.4706 99.5963C62.8849 99.6284 62.4206 99.7141 61.8945 99.4022C61.6123 99.2344 61.4992 98.7654 61.6361 98.4761C61.9552 97.8011 62.6623 97.5833 63.367 97.5154C64.1313 97.4416 64.7384 97.5809 65.3753 98.0058C65.9932 98.4177 65.6777 99.3868 64.9968 99.4951Z" fill="#263238"/>
<path d="M53.4104 102.532C53.8901 102.323 54.2984 102.052 54.752 101.797C55.2639 101.51 55.7008 101.334 55.977 100.788C56.1258 100.495 55.9686 100.038 55.6984 99.8676C55.0675 99.47 54.3532 99.6664 53.7234 99.9866C53.0401 100.334 52.602 100.778 52.2925 101.478C51.9925 102.157 52.777 102.806 53.4104 102.532Z" fill="#263238"/>
<path d="M66.5063 113.212C66.3039 113.541 66.1277 113.969 65.7301 114.106C65.3492 114.237 64.848 114.176 64.4563 114.127C64.4171 114.122 64.3909 114.169 64.4218 114.196C64.8206 114.552 65.4992 114.668 65.9956 114.445C66.4801 114.228 66.6194 113.728 66.6265 113.233C66.6265 113.165 66.5361 113.163 66.5063 113.212Z" fill="#263238"/>
<path d="M64.4832 110.158C64.1023 111.287 63.3154 112.05 62.3678 112.494C61.9452 112.695 61.4821 112.828 61.013 112.902C60.9226 112.922 60.8297 112.935 60.744 112.938C60.6595 112.948 60.5833 112.957 60.4892 112.962C60.3535 112.976 60.2547 112.885 60.2012 112.768L60.1988 112.759C60.1893 112.718 60.1809 112.685 60.1809 112.643C60.1809 112.643 60.1809 112.643 60.1785 112.634L60.1559 112.535C59.9154 111.679 59.6678 110.349 59.6678 110.349C59.3928 110.585 57.9703 111.712 57.8822 111.256C57.1655 107.474 56.3679 103.268 56.4536 99.3535C56.45 99.2238 56.6453 99.2047 56.6655 99.3309C57.4988 102.938 57.6917 106.668 58.4702 110.304C58.9333 109.981 59.6774 109.409 60.1309 109.306C60.2619 109.31 60.5619 111.887 60.7011 112.263C60.7011 112.263 60.7047 112.279 60.719 112.302C62.213 112.122 63.1939 111.41 64.3534 110.083C64.4201 109.999 64.5284 110.052 64.4832 110.158Z" fill="#263238"/>
<path d="M61.5176 112.352C61.5176 112.352 62.5176 113.111 63.6009 113.174C64.0009 113.198 64.4056 113.136 64.7818 112.908C65.5568 112.443 65.3532 111.668 65.0068 111.054C64.7235 110.549 64.3366 110.155 64.3366 110.155C64.3366 110.155 63.4461 111.658 61.5176 112.352Z" fill="#263238"/>
<path d="M63.5999 113.173C63.9999 113.197 64.4046 113.135 64.7808 112.908C65.5558 112.442 65.3522 111.667 65.0058 111.053C64.1332 111.407 63.4213 112.277 63.5999 113.173Z" fill="#FF9ABB"/>
<path d="M78.8538 100.329C74.6265 102.204 70.4897 97.852 69.9981 93.3235C69.9981 93.3235 59.0197 99.0293 55.1151 89.9712C55.1151 89.9712 54.3044 94.8104 49.1235 96.8413L49.0712 100.721C47.764 100.808 45.2879 97.9008 47.2271 94.2164C47.2271 94.2164 45.7558 89.5296 48.1545 85.5273C50.5533 81.5262 54.5937 82.1226 54.5937 82.1226C54.5937 82.1226 56.4805 78.8857 60.9268 77.8905C65.372 76.8953 68.5243 80.1369 68.5243 80.1369C68.5243 80.1369 74.6325 79.1596 77.0753 82.8654C79.5169 86.5713 78.4062 90.051 78.4062 90.051C78.4062 90.051 80.4169 91.126 80.9431 94.8532C81.2776 97.2508 80.1228 99.7674 78.8538 100.329Z" fill="#263238"/>
<path d="M55.0723 89.0571C55.2687 89.8404 55.5139 90.6095 55.8651 91.3273C56.1794 92.0606 56.6008 92.738 57.0758 93.363C58.0484 94.5939 59.4138 95.4844 60.9495 95.7189C62.484 96.0665 64.0661 95.6355 65.5875 95.2475C66.3268 94.9546 67.0922 94.7106 67.8196 94.3749C68.5434 94.0272 69.2588 93.6618 69.9981 93.3249C69.3267 93.7713 68.6315 94.188 67.9434 94.6237C67.2327 95.0153 66.4696 95.3106 65.7304 95.6605C64.1851 96.1498 62.5304 96.6034 60.8507 96.2784C59.1912 95.9808 57.6758 94.9879 56.7282 93.6237C55.7842 92.2594 55.2365 90.6654 55.0723 89.0571Z" fill="#263238"/>
<path d="M68.5234 80.138C69.977 79.6261 71.5424 79.4083 73.1079 79.5214C74.6685 79.6261 76.2542 80.2154 77.4173 81.3523C77.9744 81.9415 78.4149 82.6106 78.7494 83.3237C79.1065 84.0272 79.3458 84.7998 79.4434 85.5831C79.6553 87.151 79.2982 88.7914 78.4042 90.0533C79.0875 88.6795 79.2946 87.1093 79.0113 85.6522C78.7256 84.2129 78.0339 82.7832 77.0149 81.7535C76.5054 81.2308 75.8864 80.8237 75.2126 80.5225C74.5281 80.2463 73.8067 80.0523 73.0614 79.9547C71.5722 79.7571 70.0305 79.8523 68.5234 80.138Z" fill="#263238"/>
<path d="M54.5929 82.1235C53.3489 82.1319 52.1156 82.3081 50.9668 82.695C49.8216 83.0842 48.7669 83.7128 47.974 84.5949C47.18 85.477 46.6812 86.5961 46.4074 87.777C46.1455 88.9615 46.0836 90.2043 46.18 91.4448C45.8503 90.2377 45.7955 88.9555 45.9789 87.6948C46.1622 86.4342 46.6848 85.1961 47.5526 84.2152C48.4324 83.2533 49.6062 82.5854 50.8418 82.2783C52.0751 81.9605 53.362 81.8974 54.5929 82.1235Z" fill="#263238"/>
<path d="M51.0664 96.5615C52.1807 95.6293 53.1652 94.6044 53.8818 93.4115C54.258 92.8258 54.5163 92.1794 54.7223 91.5151C54.9473 90.8473 54.9842 90.1414 55.0568 89.4116C55.2199 90.1176 55.2949 90.8747 55.1485 91.6104C55.0318 92.3485 54.7616 93.0675 54.3675 93.7044C53.9735 94.3401 53.4925 94.9198 52.9271 95.3984C52.3652 95.877 51.7497 96.2948 51.0664 96.5615Z" fill="#263238"/>
<path d="M54.7261 111.966C52.8237 112.37 50.7785 110.358 50.169 107.48C49.5595 104.604 50.6131 101.935 52.5154 101.533C54.4177 101.129 56.4617 103.142 57.0712 106.019C57.6796 108.896 56.6284 111.564 54.7261 111.966ZM52.663 102.232C51.1452 102.553 50.3404 104.841 50.8678 107.333C51.3952 109.823 53.0594 111.587 54.5773 111.267C56.0951 110.946 56.8986 108.658 56.3713 106.167C55.8439 103.676 54.1808 101.91 52.663 102.232Z" fill="#455A64"/>
<path d="M66.4168 109.489C63.7312 110.058 61.0503 108.181 60.4408 105.304C59.8313 102.428 61.5217 99.6248 64.2062 99.0558C66.893 98.4867 69.5739 100.364 70.1834 103.24C70.7941 106.118 69.1037 108.92 66.4168 109.489ZM64.355 99.7558C62.055 100.243 60.6122 102.665 61.1408 105.157C61.6681 107.647 63.9693 109.278 66.2692 108.79C68.5704 108.302 70.0132 105.879 69.4846 103.389C68.9573 100.897 66.6561 99.2677 64.355 99.7558Z" fill="#455A64"/>
<path d="M60.5755 104.786C57.7696 104.423 56.7708 105.527 56.7624 105.539L56.2148 105.08C56.2613 105.022 57.4327 103.659 60.6683 104.078L60.5755 104.786Z" fill="#455A64"/>
<path d="M69.7387 102.859L69.4648 102.199C69.9005 102.02 76.9004 99.0875 78.0468 98.7768C79.2515 98.4327 82.4336 99.441 82.7931 99.5541L82.5776 100.235C81.6753 99.9494 79.1825 99.2637 78.2849 99.4541C78.267 99.4577 78.2504 99.4625 78.2337 99.466C77.3504 99.7053 73.4076 101.345 69.7387 102.859Z" fill="#455A64"/>
<path d="M74.2832 102.159C74.2832 102.159 75.9058 95.7106 78.6998 96.101C81.4938 96.4915 81.6271 104.894 79.2986 106.937C76.97 108.979 75.0368 106.86 75.0368 106.86L74.2832 102.159Z" fill="#F7A9A0"/>
<path d="M78.6776 98.5106C78.7193 98.4904 78.7514 98.5475 78.7193 98.5773C77.1098 100.072 76.78 102.218 76.7753 104.313C77.0729 103.394 77.6967 102.714 78.8955 103.028C78.9585 103.045 78.9407 103.14 78.8824 103.15C78.0395 103.28 77.5288 103.628 77.2395 104.453C77.0348 105.037 76.9931 105.693 76.9205 106.304C76.8967 106.508 76.555 106.534 76.5443 106.314C76.5431 106.297 76.5431 106.281 76.5431 106.264C75.5729 103.858 76.1657 99.7463 78.6776 98.5106Z" fill="#263238"/>
<path d="M65.9321 128.482C65.9262 128.449 65.9785 128.434 65.9881 128.469C66.8428 131.614 69.0428 138.834 74.0843 136.664C76.1152 135.79 77.6045 133.939 78.7878 132.218C80.002 130.45 80.9699 128.547 81.7639 126.592C82.6448 124.421 83.5389 122.156 84.0305 119.889C84.0519 119.793 84.1996 119.831 84.1865 119.931C83.8365 122.511 83.2496 124.52 82.4329 126.769C81.6472 128.933 80.6318 131.043 79.2628 132.954C77.9795 134.746 76.3652 136.635 74.1807 137.463C72.1022 138.25 70.1523 137.554 68.9118 135.953C67.2809 133.85 66.3642 131.055 65.9321 128.482Z" fill="#263238"/>
<path d="M116.089 57.4553C114.735 54.0411 117.37 52.0078 117.37 52.0078C117.37 52.0078 112.92 51.1161 112.131 47.4555C111.725 45.5722 114.407 43.2449 114.407 43.2449C114.407 43.2449 110.874 42.3758 110.375 39.0759C109.979 36.4462 112.725 34.5082 112.725 34.5082C112.725 34.5082 109.743 32.1023 110.205 29.2869C111.142 23.5775 133.432 17.6181 139.008 24.8262C141.607 28.1857 136.085 29.3487 136.085 29.3487C136.085 29.3487 144.414 29.5761 145.724 34.0927C147.035 38.6104 139.774 39.6926 139.774 39.6926C139.774 39.6926 147.842 39.983 148.724 44.8067C149.642 49.8292 142.204 49.6781 142.204 49.6781C142.204 49.6781 148.033 51.6792 147.854 55.5339C147.56 61.8992 135.552 57.1969 130.956 59.6576L131.035 68.2003C131.035 68.2003 117.588 61.2373 116.089 57.4553Z" fill="#F7A9A0"/>
<path d="M113.113 34.1401C113.04 34.1651 112.992 34.0699 113.061 34.033C119.928 30.3045 128.604 28.2867 136.378 29.2498C136.633 29.2807 136.689 29.7069 136.399 29.7247C128.183 30.2533 120.925 31.3723 113.113 34.1401Z" fill="#263238"/>
<path d="M114.286 43.2278C114.201 43.2576 114.15 43.1195 114.236 43.0743C121.333 39.2708 131.165 37.2637 139.983 39.4232C140.285 39.497 140.479 39.8648 140.124 39.8065C134.147 38.8113 121.306 40.7017 114.286 43.2278Z" fill="#263238"/>
<path d="M142.793 50.0361C134.254 48.2909 125.985 49.4445 117.651 51.8373C117.543 51.8682 117.51 51.7134 117.595 51.6634C121.36 49.3933 126.828 48.4147 131.143 48.01C135.277 47.6231 139.077 48.0969 142.859 49.7385C143.004 49.8016 142.975 50.073 142.793 50.0361Z" fill="#263238"/>
<path d="M352.189 9.52148H147.353C135.916 9.52148 126.635 18.9606 126.635 30.6282V452.284C126.635 463.928 135.916 473.391 147.353 473.391H352.189C363.627 473.391 372.932 463.928 372.932 452.284V30.627C372.932 18.9594 363.627 9.52148 352.189 9.52148ZM359.968 439.246C359.968 450.345 351.656 459.323 341.406 459.323H158.16C147.885 459.323 139.574 450.345 139.574 439.246V46.6087C139.574 23.9997 147.885 22.8974 158.16 22.8974H194.873C197.005 22.8974 198.75 25.3199 198.75 28.3258V29.6222C198.75 36.6613 202.602 36.6863 207.328 36.6863H292.214C296.988 36.6863 300.817 36.6625 300.817 29.6222V28.3258C300.817 25.3211 302.537 22.8974 304.706 22.8974H341.406C351.657 22.8974 359.968 25.9021 359.968 46.6087V439.246Z" fill="#263238"/>
<path d="M359.98 46.9536V439.591C359.98 450.69 351.668 459.668 341.418 459.668H158.172C147.898 459.668 139.586 450.69 139.586 439.591V46.9536C139.586 24.3445 147.898 23.2422 158.172 23.2422H194.885C197.017 23.2422 198.762 25.6648 198.762 28.6706V29.967C198.762 37.0062 202.615 37.0312 207.34 37.0312H292.227C297 37.0312 300.829 37.0074 300.829 29.967V28.6706C300.829 25.6659 302.549 23.2422 304.718 23.2422H341.418C351.668 23.2422 359.98 26.2469 359.98 46.9536Z" fill="white"/>
<path d="M359.981 46.9585V82.5803H139.588V46.9585C139.588 24.3494 147.9 23.2471 158.174 23.2471H194.887C197.019 23.2471 198.764 25.6708 198.764 28.6755V29.9719C198.764 37.011 202.617 37.036 207.342 37.036H292.229C297.002 37.036 300.831 37.0122 300.831 29.9719V28.6755C300.831 25.6708 302.551 23.2471 304.72 23.2471H341.42C351.669 23.2471 359.981 26.253 359.981 46.9585Z" fill="#0E70E2"/>
<path d="M261.357 27.8931H238.203C237.413 27.8931 236.773 27.2527 236.773 26.4634C236.773 25.673 237.414 25.0337 238.203 25.0337H261.357C262.148 25.0337 262.787 25.6741 262.787 26.4634C262.788 27.2527 262.148 27.8931 261.357 27.8931Z" fill="white"/>
<path d="M188.534 31.7158C188.416 31.8336 188.297 31.9503 188.179 32.0681C188.113 32.1348 188.046 32.2027 187.978 32.2705C187.026 31.3455 185.891 30.8527 184.563 30.8527C183.234 30.8527 182.1 31.3443 181.14 32.2741C181.077 32.2086 181.014 32.1408 180.949 32.0741C180.833 31.9562 180.715 31.8396 180.599 31.7217C180.596 31.7193 180.591 31.7182 180.588 31.7158C180.588 31.7134 180.588 31.7098 180.588 31.7074C180.596 31.7003 180.606 31.6932 180.614 31.686C180.764 31.5539 180.909 31.4158 181.063 31.2896C181.381 31.0265 181.73 30.811 182.1 30.6289C182.538 30.4134 182.995 30.2551 183.475 30.167C183.702 30.1253 183.932 30.1039 184.162 30.0753C184.24 30.0658 184.747 30.0646 184.763 30.0658C184.919 30.0777 185.076 30.0849 185.231 30.1015C185.664 30.148 186.083 30.2527 186.491 30.4027C186.787 30.511 187.071 30.6444 187.345 30.8015C187.633 30.967 187.906 31.1563 188.159 31.3717C188.287 31.4801 188.409 31.5955 188.534 31.7086C188.534 31.7086 188.534 31.7134 188.534 31.7158Z" fill="white"/>
<path d="M182.268 33.3846C182.08 33.1989 181.896 33.0167 181.707 32.8286C182.345 32.2025 183.1 31.8037 183.987 31.6834C185.313 31.5037 186.451 31.9072 187.416 32.8203C187.226 33.0096 187.041 33.1941 186.853 33.381C186.219 32.7655 185.456 32.4322 184.561 32.4334C183.668 32.4334 182.906 32.7655 182.268 33.3846Z" fill="white"/>
<path d="M186.293 33.9443C186.109 34.1288 185.923 34.3134 185.736 34.5014C185.413 34.1884 185.022 34.0146 184.561 34.0146C184.103 34.0146 183.711 34.1872 183.386 34.5038C183.199 34.3169 183.015 34.1324 182.83 33.9479C183.716 33.0182 185.312 32.9443 186.293 33.9443Z" fill="white"/>
<path d="M185.064 35.0075C185.064 35.286 184.839 35.511 184.56 35.511C184.282 35.511 184.057 35.286 184.057 35.0075C184.057 34.7289 184.282 34.5039 184.56 34.5039C184.839 34.5039 185.064 34.7289 185.064 35.0075Z" fill="white"/>
<path d="M153.949 32.7869C153.949 31.9797 154.603 31.3262 155.41 31.3262C156.217 31.3262 156.871 31.9797 156.871 32.7869C156.871 33.594 156.217 34.2475 155.41 34.2475C154.603 34.2475 153.949 33.594 153.949 32.7869Z" fill="white"/>
<path d="M158.551 32.7869C158.551 31.9797 159.204 31.3262 160.011 31.3262C160.819 31.3262 161.472 31.9797 161.472 32.7869C161.472 33.594 160.819 34.2475 160.011 34.2475C159.204 34.2475 158.551 33.594 158.551 32.7869Z" fill="white"/>
<path d="M163.15 32.7869C163.15 31.9797 163.804 31.3262 164.611 31.3262C165.418 31.3262 166.072 31.9797 166.072 32.7869C166.072 33.594 165.418 34.2475 164.611 34.2475C163.804 34.2475 163.15 33.594 163.15 32.7869Z" fill="white"/>
<path d="M167.752 32.7869C167.752 31.9797 168.406 31.3262 169.213 31.3262C170.02 31.3262 170.673 31.9797 170.673 32.7869C170.673 33.594 170.02 34.2475 169.213 34.2475C168.406 34.2475 167.752 33.594 167.752 32.7869Z" fill="white"/>
<path d="M172.35 32.7869C172.35 31.9797 173.003 31.3262 173.81 31.3262C174.617 31.3262 175.271 31.9797 175.271 32.7869C175.271 33.594 174.617 34.2475 173.81 34.2475C173.003 34.2475 172.35 33.594 172.35 32.7869Z" fill="white"/>
<path d="M343.441 35.9765H331.551V30.4683H343.441V35.9765ZM332.156 35.3705H342.834V31.0742H332.156V35.3705Z" fill="white"/>
<path d="M340.202 31.4028H332.537V35.0397H340.202V31.4028Z" fill="white"/>
<path d="M344.504 31.7495H343.445V34.6959H344.504V31.7495Z" fill="white"/>
<path d="M160.461 68.9509L153.949 62.8511L160.461 56.75L161.47 57.8262L156.109 62.8511L161.47 67.8759L160.461 68.9509Z" fill="white"/>
<path d="M332.588 61.8365C332.857 61.9913 333.004 62.2865 332.989 62.5972C332.984 62.6818 332.983 62.7663 332.983 62.8508C332.983 62.9365 332.985 63.0222 332.989 63.1068C333.004 63.4163 332.857 63.7103 332.589 63.8651L331.672 64.3936L333.395 67.3793L334.312 66.8507C334.581 66.696 334.912 66.7114 335.171 66.8805C335.314 66.9733 335.463 67.0602 335.615 67.1376C335.891 67.2781 336.067 67.5567 336.067 67.8662V68.9221H339.516V67.8662C339.516 67.5567 339.694 67.2781 339.969 67.1376C340.122 67.0602 340.27 66.9733 340.413 66.8805C340.672 66.7102 341.003 66.6948 341.272 66.8507L342.189 67.3793L343.911 64.3936L342.991 63.8615C342.723 63.7067 342.576 63.4127 342.592 63.1044C342.597 63.0199 342.598 62.9353 342.598 62.8508C342.598 62.7663 342.596 62.6818 342.592 62.5972C342.577 62.2865 342.724 61.9913 342.993 61.8365L343.911 61.308L342.189 58.3223L341.274 58.8497C341.005 59.0045 340.676 58.9902 340.415 58.8199C340.271 58.7259 340.122 58.6402 339.969 58.5616C339.692 58.4211 339.515 58.1426 339.515 57.8331V56.7783H336.066V57.8331C336.066 58.1426 335.889 58.4211 335.613 58.5616C335.459 58.6402 335.31 58.7259 335.166 58.8199C334.907 58.9902 334.576 59.0045 334.307 58.8497L333.392 58.3223L331.67 61.308L332.588 61.8365ZM337.791 60.0259C339.351 60.0259 340.616 61.2913 340.616 62.8508C340.616 64.4103 339.351 65.6734 337.791 65.6734C336.232 65.6734 334.969 64.4103 334.969 62.8508C334.969 61.2913 336.232 60.0259 337.791 60.0259Z" stroke="white" stroke-width="0.75" stroke-miterlimit="10"/>
<path d="M296.397 103.879H161.305V112.346H296.397V103.879Z" fill="white"/>
<path d="M296.484 112.433H161.219V103.794H296.484V112.433Z" fill="#EBEBEB"/>
<path d="M296.484 103.792H287.842V112.434H296.484V103.792Z" fill="#0E70E2"/>
<path d="M294.847 110.487L294.064 111.08L292.616 109.167L292.086 108.467C292.192 108.425 292.294 108.368 292.39 108.294C292.573 108.154 292.707 107.973 292.791 107.774L293.354 108.516L294.847 110.487Z" fill="white"/>
<path d="M293.309 105.982C292.591 105.046 291.25 104.87 290.316 105.588C289.38 106.305 289.204 107.646 289.922 108.581C290.566 109.421 291.714 109.649 292.618 109.166C292.721 109.11 292.819 109.049 292.913 108.976C293.087 108.841 293.236 108.687 293.356 108.516C293.883 107.772 293.892 106.744 293.309 105.982ZM292.391 108.294C292.296 108.366 292.193 108.425 292.087 108.466C291.569 108.674 290.958 108.522 290.602 108.059C290.173 107.5 290.278 106.697 290.837 106.269C291.397 105.84 292.198 105.946 292.628 106.506C292.915 106.882 292.962 107.366 292.793 107.775C292.709 107.972 292.574 108.154 292.391 108.294Z" fill="white"/>
<path d="M163.531 105.544H163.076V110.682H163.531V105.544Z" fill="#C7C7C7"/>
<path d="M349.933 99.5606C349.433 99.8713 348.878 100.108 348.274 100.255C346.715 100.636 345.15 100.343 343.885 99.5582C342.648 98.794 341.697 97.5595 341.323 96.0345C340.571 92.9477 342.459 89.8358 345.546 89.0835C348.63 88.3287 351.742 90.2192 352.497 93.306C353.103 95.7905 351.995 98.2892 349.933 99.5606Z" fill="#0E70E2"/>
<path d="M348.66 94.0126C348.66 94.9793 347.877 95.7626 346.91 95.7626C345.943 95.7626 345.16 94.9793 345.16 94.0126C345.16 93.046 345.943 92.2627 346.91 92.2627C347.877 92.2627 348.66 93.0472 348.66 94.0126Z" fill="white"/>
<path d="M349.934 98.8397V99.5611C349.434 99.8718 348.879 100.109 348.276 100.255C346.716 100.636 345.151 100.343 343.887 99.5587V98.8397C343.887 97.1742 345.24 95.8159 346.91 95.8159C348.581 95.8159 349.934 97.1742 349.934 98.8397Z" fill="white"/>
<path d="M359.986 125.988H139.592V143.461H359.986V125.988Z" fill="#EBEBEB"/>
<path d="M158.518 132.099H153.27V137.348H158.518V132.099Z" fill="white"/>
<path d="M180.814 137.349H175.564L177.705 134.724L175.564 132.099H180.814L182.954 134.724L180.814 137.349Z" fill="white"/>
<path d="M167.326 132.099L168.178 133.828L170.085 134.105L168.706 135.449L169.032 137.349L167.326 136.453L165.62 137.349L165.946 135.449L164.566 134.105L166.474 133.828L167.326 132.099Z" fill="#0E70E2"/>
<path d="M228.533 133.656H186.721V135.792H228.533V133.656Z" fill="#263238"/>
<path d="M337.487 133.656H299.529V135.792H337.487V133.656Z" fill="#263238"/>
<path d="M283.582 133.656H241.297V135.792H283.582V133.656Z" fill="#455A64"/>
<path d="M158.518 149.574H153.27V154.823H158.518V149.574Z" fill="white" stroke="#EBEBEB" stroke-width="0.5" stroke-miterlimit="10"/>
<path d="M180.814 154.823H175.564L177.705 152.198L175.564 149.574H180.814L182.954 152.198L180.814 154.823Z" fill="white" stroke="#EBEBEB" stroke-width="0.5" stroke-miterlimit="10"/>
<path d="M167.326 149.574L168.178 151.302L170.085 151.579L168.706 152.923L169.032 154.823L167.326 153.925L165.62 154.823L165.946 152.923L164.566 151.579L166.474 151.302L167.326 149.574Z" fill="#0E70E2"/>
<path d="M228.533 151.13H186.721V153.266H228.533V151.13Z" fill="#263238"/>
<path d="M337.487 151.13H299.529V153.266H337.487V151.13Z" fill="#263238"/>
<path d="M283.582 151.13H241.297V153.266H283.582V151.13Z" fill="#455A64"/>
<path d="M359.986 160.935H139.592V178.408H359.986V160.935Z" fill="#EBEBEB"/>
<path d="M158.518 167.046H153.27V172.295H158.518V167.046Z" fill="white"/>
<path d="M180.814 172.296H175.564L177.705 169.671L175.564 167.046H180.814L182.954 169.671L180.814 172.296Z" fill="white"/>
<path d="M167.326 167.046L168.178 168.774L170.085 169.052L168.706 170.396L169.032 172.296L167.326 171.399L165.62 172.296L165.946 170.396L164.566 169.052L166.474 168.774L167.326 167.046Z" fill="white"/>
<path d="M228.533 168.603H186.721V170.739H228.533V168.603Z" fill="#DBDBDB"/>
<path d="M337.487 168.603H299.529V170.739H337.487V168.603Z" fill="#DBDBDB"/>
<path d="M283.582 168.603H241.297V170.739H283.582V168.603Z" fill="#C7C7C7"/>
<path d="M158.518 184.52H153.27V189.768H158.518V184.52Z" fill="white" stroke="#EBEBEB" stroke-width="0.5" stroke-miterlimit="10"/>
<path d="M180.814 189.769H175.564L177.705 187.144L175.564 184.52H180.814L182.954 187.144L180.814 189.769Z" fill="white" stroke="#EBEBEB" stroke-width="0.5" stroke-miterlimit="10"/>
<path d="M167.326 184.52L168.178 186.248L170.085 186.525L168.706 187.869L169.032 189.769L167.326 188.872L165.62 189.769L165.946 187.869L164.566 186.525L166.474 186.248L167.326 184.52Z" fill="#0E70E2"/>
<path d="M228.533 186.077H186.721V188.211H228.533V186.077Z" fill="#DBDBDB"/>
<path d="M337.487 186.077H299.529V188.211H337.487V186.077Z" fill="#DBDBDB"/>
<path d="M283.582 186.077H241.297V188.211H283.582V186.077Z" fill="#C7C7C7"/>
<path d="M359.986 195.881H139.592V213.355H359.986V195.881Z" fill="#EBEBEB"/>
<path d="M158.518 201.994H153.27V207.243H158.518V201.994Z" fill="white"/>
<path d="M180.814 207.243H175.564L177.705 204.618L175.564 201.994H180.814L182.954 204.618L180.814 207.243Z" fill="white"/>
<path d="M167.326 201.994L168.178 203.721L170.085 203.999L168.706 205.343L169.032 207.243L167.326 206.345L165.62 207.243L165.946 205.343L164.566 203.999L166.474 203.721L167.326 201.994Z" fill="#0E70E2"/>
<path d="M228.533 203.55H186.721V205.685H228.533V203.55Z" fill="#DBDBDB"/>
<path d="M337.487 203.55H299.529V205.685H337.487V203.55Z" fill="#DBDBDB"/>
<path d="M283.582 203.55H241.297V205.685H283.582V203.55Z" fill="#C7C7C7"/>
<path d="M158.518 219.466H153.27V224.715H158.518V219.466Z" fill="white" stroke="#EBEBEB" stroke-width="0.5" stroke-miterlimit="10"/>
<path d="M180.814 224.716H175.564L177.705 222.091L175.564 219.466H180.814L182.954 222.091L180.814 224.716Z" fill="white" stroke="#EBEBEB" stroke-width="0.5" stroke-miterlimit="10"/>
<path d="M167.326 219.466L168.178 221.195L170.085 221.472L168.706 222.816L169.032 224.716L167.326 223.819L165.62 224.716L165.946 222.816L164.566 221.472L166.474 221.195L167.326 219.466Z" fill="white" stroke="#EBEBEB" stroke-width="0.5" stroke-miterlimit="10"/>
<path d="M228.533 221.023H186.721V223.158H228.533V221.023Z" fill="#DBDBDB"/>
<path d="M337.487 221.023H299.529V223.158H337.487V221.023Z" fill="#DBDBDB"/>
<path d="M283.582 221.023H241.297V223.158H283.582V221.023Z" fill="#C7C7C7"/>
<path d="M359.986 230.828H139.592V248.302H359.986V230.828Z" fill="#EBEBEB"/>
<path d="M158.518 236.939H153.27V242.188H158.518V236.939Z" fill="white"/>
<path d="M180.814 242.189H175.564L177.705 239.564L175.564 236.939H180.814L182.954 239.564L180.814 242.189Z" fill="white"/>
<path d="M167.326 236.939L168.178 238.668L170.085 238.945L168.706 240.289L169.032 242.189L167.326 241.292L165.62 242.189L165.946 240.289L164.566 238.945L166.474 238.668L167.326 236.939Z" fill="#0E70E2"/>
<path d="M228.533 238.497H186.721V240.632H228.533V238.497Z" fill="#DBDBDB"/>
<path d="M337.487 238.497H299.529V240.632H337.487V238.497Z" fill="#DBDBDB"/>
<path d="M283.582 238.497H241.297V240.632H283.582V238.497Z" fill="#C7C7C7"/>
<path d="M158.518 254.413H153.27V259.662H158.518V254.413Z" fill="white" stroke="#EBEBEB" stroke-width="0.5" stroke-miterlimit="10"/>
<path d="M180.814 259.663H175.564L177.705 257.038L175.564 254.413H180.814L182.954 257.038L180.814 259.663Z" fill="white" stroke="#EBEBEB" stroke-width="0.5" stroke-miterlimit="10"/>
<path d="M167.326 254.413L168.178 256.142L170.085 256.419L168.706 257.763L169.032 259.663L167.326 258.765L165.62 259.663L165.946 257.763L164.566 256.419L166.474 256.142L167.326 254.413Z" fill="white" stroke="#EBEBEB" stroke-width="0.5" stroke-miterlimit="10"/>
<path d="M228.533 255.97H186.721V258.106H228.533V255.97Z" fill="#DBDBDB"/>
<path d="M337.487 255.97H299.529V258.106H337.487V255.97Z" fill="#DBDBDB"/>
<path d="M283.582 255.97H241.297V258.106H283.582V255.97Z" fill="#C7C7C7"/>
<path d="M359.986 265.775H139.592V283.248H359.986V265.775Z" fill="#EBEBEB"/>
<path d="M158.518 271.888H153.27V277.136H158.518V271.888Z" fill="white"/>
<path d="M180.814 277.136H175.564L177.705 274.511L175.564 271.888H180.814L182.954 274.511L180.814 277.136Z" fill="white"/>
<path d="M167.326 271.888L168.178 273.615L170.085 273.892L168.706 275.236L169.032 277.136L167.326 276.239L165.62 277.136L165.946 275.236L164.566 273.892L166.474 273.615L167.326 271.888Z" fill="white"/>
<path d="M228.533 273.444H186.721V275.58H228.533V273.444Z" fill="#DBDBDB"/>
<path d="M337.487 273.444H299.529V275.58H337.487V273.444Z" fill="#DBDBDB"/>
<path d="M283.582 273.444H241.297V275.58H283.582V273.444Z" fill="#C7C7C7"/>
<path d="M158.518 289.36H153.27V294.609H158.518V289.36Z" fill="white" stroke="#EBEBEB" stroke-width="0.5" stroke-miterlimit="10"/>
<path d="M180.814 294.61H175.564L177.705 291.985L175.564 289.36H180.814L182.954 291.985L180.814 294.61Z" fill="white" stroke="#EBEBEB" stroke-width="0.5" stroke-miterlimit="10"/>
<path d="M167.326 289.36L168.178 291.088L170.085 291.366L168.706 292.71L169.032 294.61L167.326 293.712L165.62 294.61L165.946 292.71L164.566 291.366L166.474 291.088L167.326 289.36Z" fill="white" stroke="#EBEBEB" stroke-width="0.5" stroke-miterlimit="10"/>
<path d="M228.533 290.917H186.721V293.051H228.533V290.917Z" fill="#DBDBDB"/>
<path d="M337.487 290.917H299.529V293.051H337.487V290.917Z" fill="#DBDBDB"/>
<path d="M283.582 290.917H241.297V293.051H283.582V290.917Z" fill="#C7C7C7"/>
<path d="M359.986 300.722H139.592V318.195H359.986V300.722Z" fill="#EBEBEB"/>
<path d="M158.518 306.833H153.27V312.082H158.518V306.833Z" fill="white"/>
<path d="M180.814 312.083H175.564L177.705 309.458L175.564 306.833H180.814L182.954 309.458L180.814 312.083Z" fill="white"/>
<path d="M167.326 306.833L168.178 308.562L170.085 308.839L168.706 310.183L169.032 312.083L167.326 311.185L165.62 312.083L165.946 310.183L164.566 308.839L166.474 308.562L167.326 306.833Z" fill="white" stroke="#EBEBEB" stroke-width="0.5" stroke-miterlimit="10"/>
<path d="M228.533 308.39H186.721V310.525H228.533V308.39Z" fill="#DBDBDB"/>
<path d="M337.487 308.39H299.529V310.525H337.487V308.39Z" fill="#DBDBDB"/>
<path d="M283.582 308.39H241.297V310.525H283.582V308.39Z" fill="#C7C7C7"/>
<path d="M158.518 324.307H153.27V329.555H158.518V324.307Z" fill="white" stroke="#EBEBEB" stroke-width="0.5" stroke-miterlimit="10"/>
<path d="M180.814 329.557H175.564L177.705 326.932L175.564 324.307H180.814L182.954 326.932L180.814 329.557Z" fill="white" stroke="#EBEBEB" stroke-width="0.5" stroke-miterlimit="10"/>
<path d="M167.326 324.307L168.178 326.035L170.085 326.311L168.706 327.657L169.032 329.557L167.326 328.659L165.62 329.557L165.946 327.657L164.566 326.311L166.474 326.035L167.326 324.307Z" fill="white" stroke="#EBEBEB" stroke-width="0.5" stroke-miterlimit="10"/>
<path d="M228.533 325.864H186.721V327.998H228.533V325.864Z" fill="#DBDBDB"/>
<path d="M337.487 325.864H299.529V327.998H337.487V325.864Z" fill="#DBDBDB"/>
<path d="M283.582 325.864H241.297V327.998H283.582V325.864Z" fill="#C7C7C7"/>
<path d="M359.986 335.668H139.592V353.142H359.986V335.668Z" fill="#EBEBEB"/>
<path d="M158.518 341.78H153.27V347.028H158.518V341.78Z" fill="white"/>
<path d="M180.814 347.03H175.564L177.705 344.405L175.564 341.78H180.814L182.954 344.405L180.814 347.03Z" fill="white"/>
<path d="M167.326 341.78L168.178 343.508L170.085 343.786L168.706 345.13L169.032 347.03L167.326 346.132L165.62 347.03L165.946 345.13L164.566 343.786L166.474 343.508L167.326 341.78Z" fill="white" stroke="#EBEBEB" stroke-width="0.5" stroke-miterlimit="10"/>
<path d="M228.533 343.337H186.721V345.471H228.533V343.337Z" fill="#DBDBDB"/>
<path d="M337.487 343.337H299.529V345.471H337.487V343.337Z" fill="#DBDBDB"/>
<path d="M283.582 343.337H241.297V345.471H283.582V343.337Z" fill="#C7C7C7"/>
<path d="M158.518 359.254H153.27V364.503H158.518V359.254Z" fill="white" stroke="#EBEBEB" stroke-width="0.5" stroke-miterlimit="10"/>
<path d="M180.814 364.503H175.564L177.705 361.879L175.564 359.254H180.814L182.954 361.879L180.814 364.503Z" fill="white" stroke="#EBEBEB" stroke-width="0.5" stroke-miterlimit="10"/>
<path d="M167.326 359.254L168.178 360.982L170.085 361.259L168.706 362.604L169.032 364.503L167.326 363.606L165.62 364.503L165.946 362.604L164.566 361.259L166.474 360.982L167.326 359.254Z" fill="white" stroke="#EBEBEB" stroke-width="0.5" stroke-miterlimit="10"/>
<path d="M228.533 360.811H186.721V362.946H228.533V360.811Z" fill="#DBDBDB"/>
<path d="M337.487 360.811H299.529V362.946H337.487V360.811Z" fill="#DBDBDB"/>
<path d="M283.582 360.811H241.297V362.946H283.582V360.811Z" fill="#C7C7C7"/>
<path d="M359.986 370.616H139.592V388.09H359.986V370.616Z" fill="#EBEBEB"/>
<path d="M158.518 376.728H153.27V381.976H158.518V376.728Z" fill="white"/>
<path d="M180.814 381.976H175.564L177.705 379.352L175.564 376.728H180.814L182.954 379.352L180.814 381.976Z" fill="white"/>
<path d="M167.326 376.728L168.178 378.456L170.085 378.732L168.706 380.077L169.032 381.976L167.326 381.08L165.62 381.976L165.946 380.077L164.566 378.732L166.474 378.456L167.326 376.728Z" fill="#0E70E2"/>
<path d="M228.533 378.285H186.721V380.419H228.533V378.285Z" fill="#DBDBDB"/>
<path d="M337.487 378.285H299.529V380.419H337.487V378.285Z" fill="#DBDBDB"/>
<path d="M283.582 378.285H241.297V380.419H283.582V378.285Z" fill="#C7C7C7"/>
<path d="M158.518 394.201H153.27V399.45H158.518V394.201Z" fill="white" stroke="#EBEBEB" stroke-width="0.5" stroke-miterlimit="10"/>
<path d="M180.814 399.45H175.564L177.705 396.826L175.564 394.201H180.814L182.954 396.826L180.814 399.45Z" fill="white" stroke="#EBEBEB" stroke-width="0.5" stroke-miterlimit="10"/>
<path d="M167.326 394.201L168.178 395.93L170.085 396.206L168.706 397.551L169.032 399.45L167.326 398.553L165.62 399.45L165.946 397.551L164.566 396.206L166.474 395.93L167.326 394.201Z" fill="white" stroke="#EBEBEB" stroke-width="0.5" stroke-miterlimit="10"/>
<path d="M228.533 395.758H186.721V397.893H228.533V395.758Z" fill="#DBDBDB"/>
<path d="M337.487 395.758H299.529V397.893H337.487V395.758Z" fill="#DBDBDB"/>
<path d="M283.582 395.758H241.297V397.893H283.582V395.758Z" fill="#C7C7C7"/>
<path d="M359.986 405.563H139.592V423.036H359.986V405.563Z" fill="#EBEBEB"/>
<path d="M158.518 411.674H153.27V416.923H158.518V411.674Z" fill="white"/>
<path d="M180.814 416.923H175.564L177.705 414.299L175.564 411.674H180.814L182.954 414.299L180.814 416.923Z" fill="white"/>
<path d="M167.326 411.674L168.178 413.403L170.085 413.679L168.706 415.024L169.032 416.923L167.326 416.027L165.62 416.923L165.946 415.024L164.566 413.679L166.474 413.403L167.326 411.674Z" fill="#0E70E2"/>
<path d="M228.533 413.231H186.721V415.366H228.533V413.231Z" fill="#DBDBDB"/>
<path d="M337.487 413.231H299.529V415.366H337.487V413.231Z" fill="#DBDBDB"/>
<path d="M283.582 413.231H241.297V415.366H283.582V413.231Z" fill="#C7C7C7"/>
<path d="M158.518 429.147H153.27V434.396H158.518V429.147Z" fill="white" stroke="#EBEBEB" stroke-width="0.5" stroke-miterlimit="10"/>
<path d="M180.814 434.396H175.564L177.705 431.772L175.564 429.147H180.814L182.954 431.772L180.814 434.396Z" fill="white" stroke="#EBEBEB" stroke-width="0.5" stroke-miterlimit="10"/>
<path d="M167.326 429.147L168.178 430.876L170.085 431.152L168.706 432.497L169.032 434.396L167.326 433.5L165.62 434.396L165.946 432.497L164.566 431.152L166.474 430.876L167.326 429.147Z" fill="white" stroke="#EBEBEB" stroke-width="0.5" stroke-miterlimit="10"/>
<path d="M228.533 430.705H186.721V432.84H228.533V430.705Z" fill="#DBDBDB"/>
<path d="M337.487 430.705H299.529V432.84H337.487V430.705Z" fill="#DBDBDB"/>
<path d="M283.582 430.705H241.297V432.84H283.582V430.705Z" fill="#C7C7C7"/>
<path d="M359.952 440.509C359.626 448.356 355.157 455.021 348.843 457.984H150.738C144.41 455.021 139.941 448.356 139.615 440.509H359.952Z" fill="#EBEBEB"/>
<path d="M158.516 446.621H153.268V451.869H158.516V446.621Z" fill="white"/>
<path d="M180.812 451.869H175.562L177.703 449.246L175.562 446.621H180.812L182.952 449.246L180.812 451.869Z" fill="white"/>
<path d="M167.324 446.621L168.176 448.349L170.083 448.625L168.704 449.971L169.03 451.869L167.324 450.973L165.618 451.869L165.944 449.971L164.564 448.625L166.472 448.349L167.324 446.621Z" fill="#0E70E2"/>
<path d="M228.531 448.178H186.719V450.312H228.531V448.178Z" fill="#DBDBDB"/>
<path d="M337.485 448.178H299.527V450.312H337.485V448.178Z" fill="#DBDBDB"/>
<path d="M283.58 448.178H241.295V450.312H283.58V448.178Z" fill="#C7C7C7"/>
<path d="M404.299 208.088C404.299 208.088 324.782 264.776 243.766 274.158C140.151 286.156 95.1611 272.82 73.7913 246.589C52.4216 220.36 99.8943 193.967 122.846 186.035" stroke="#263238" stroke-width="0.75" stroke-miterlimit="10" stroke-dasharray="4 5"/>
<path d="M411.677 186.034L404.301 208.088L420.652 194.605L483.873 169.764L411.677 186.034Z" fill="#0E70E2"/>
<path opacity="0.1" d="M411.677 186.034L404.301 208.088L420.652 194.605L483.873 169.764L411.677 186.034Z" fill="black"/>
<path d="M422.93 199.639L404.301 208.088L420.652 194.605L422.93 199.639Z" fill="#263238"/>
<path d="M420.65 194.605L483.872 169.764L432.868 222.246L420.65 194.605Z" fill="#0E70E2"/>
<path d="M411.676 186.034L384.693 169.609L483.872 169.764L411.676 186.034Z" fill="#0E70E2"/>
<path d="M378.383 130.666H121.676V342.921H378.383V130.666Z" fill="white"/>
<path d="M378.385 342.922L121.677 343.098H121.501V342.922L121.381 130.666V130.369H121.677L378.385 130.572H378.479V130.666L378.385 342.922ZM378.385 342.922L378.291 130.666L378.385 130.76L121.677 130.962L121.974 130.666L121.853 342.922L121.677 342.745L378.385 342.922Z" fill="#263238"/>
<path d="M132.868 136.715C132.868 138.373 131.525 139.715 129.867 139.715C128.21 139.715 126.867 138.373 126.867 136.715C126.867 135.058 128.21 133.714 129.867 133.714C131.525 133.714 132.868 135.058 132.868 136.715Z" fill="white"/>
<path d="M132.869 136.715C132.929 138.309 131.545 139.811 129.868 139.864C129.045 139.902 128.188 139.603 127.567 139.017C126.951 138.426 126.582 137.58 126.57 136.715C126.58 135.851 126.951 135.004 127.566 134.413C128.186 133.824 129.044 133.526 129.868 133.564C131.546 133.619 132.929 135.123 132.869 136.715ZM132.869 136.715C132.857 135.929 132.52 135.161 131.959 134.624C131.392 134.092 130.614 133.825 129.868 133.863C128.35 133.921 127.111 135.28 127.164 136.714C127.11 138.148 128.35 139.509 129.868 139.567C130.614 139.605 131.393 139.339 131.959 138.806C132.52 138.27 132.857 137.502 132.869 136.715Z" fill="#263238"/>
<path d="M145.12 136.715C145.12 138.373 143.777 139.715 142.12 139.715C140.463 139.715 139.119 138.373 139.119 136.715C139.119 135.058 140.462 133.714 142.12 133.714C143.777 133.714 145.12 135.058 145.12 136.715Z" fill="white"/>
<path d="M145.121 136.715C145.18 138.309 143.797 139.811 142.12 139.864C141.297 139.902 140.44 139.603 139.819 139.017C139.203 138.426 138.834 137.58 138.822 136.715C138.832 135.851 139.203 135.004 139.817 134.413C140.438 133.824 141.296 133.526 142.12 133.564C143.798 133.619 145.18 135.123 145.121 136.715ZM145.121 136.715C145.109 135.929 144.772 135.161 144.211 134.624C143.644 134.092 142.866 133.825 142.12 133.863C140.602 133.921 139.363 135.28 139.416 136.714C139.362 138.148 140.602 139.509 142.12 139.567C142.866 139.605 143.644 139.339 144.211 138.806C144.772 138.27 145.109 137.502 145.121 136.715Z" fill="#263238"/>
<path d="M157.373 136.715C157.373 138.373 156.031 139.715 154.372 139.715C152.715 139.715 151.371 138.373 151.371 136.715C151.371 135.058 152.714 133.714 154.372 133.714C156.031 133.714 157.373 135.058 157.373 136.715Z" fill="white"/>
<path d="M157.375 136.715C157.434 138.309 156.051 139.811 154.374 139.864C153.551 139.902 152.694 139.603 152.073 139.017C151.457 138.426 151.088 137.58 151.076 136.715C151.086 135.851 151.457 135.004 152.073 134.413C152.693 133.824 153.551 133.526 154.375 133.564C156.052 133.619 157.434 135.123 157.375 136.715ZM157.375 136.715C157.363 135.929 157.026 135.161 156.465 134.624C155.897 134.092 155.12 133.825 154.374 133.863C152.856 133.921 151.617 135.28 151.67 136.714C151.615 138.148 152.856 139.509 154.374 139.567C155.12 139.605 155.899 139.339 156.465 138.806C157.026 138.27 157.363 137.502 157.375 136.715Z" fill="#263238"/>
<path d="M121.676 142.593L153.764 142.449L185.853 142.396L250.03 142.296L314.207 142.395L346.296 142.448L378.384 142.593L346.296 142.739L314.207 142.792L250.03 142.89L185.853 142.79L153.764 142.738L121.676 142.593Z" fill="#263238"/>
<path d="M298.364 279.887H201.197V197.691L249.774 166.843L298.364 197.691V279.887Z" fill="#0E70E2"/>
<path opacity="0.2" d="M298.364 279.887H201.197V197.691L249.774 166.843L298.364 197.691V279.887Z" fill="black"/>
<path d="M292.883 273.598H206.676V162.934H270.685L292.883 184.021V273.598Z" fill="white"/>
<path d="M292.884 273.598L206.675 273.881L206.394 273.882V273.598L206.238 162.934V162.496L206.676 162.497L270.686 162.598H270.82L270.917 162.691L293.082 183.812L293.172 183.898V184.022L293.074 228.89L292.884 273.598ZM292.884 273.598L292.596 184.021L292.685 184.229L270.454 163.178L270.684 163.271L206.675 163.372L207.112 162.935L206.956 273.6L206.675 273.319L292.884 273.598Z" fill="#263238"/>
<path d="M270.686 162.934L292.884 184.021H270.686V162.934Z" fill="#DBDBDB"/>
<path d="M215.088 184.345H263.02V181.503H215.088V184.345Z" fill="#DBDBDB"/>
<path d="M215.088 191.517H263.02V188.675H215.088V191.517Z" fill="#DBDBDB"/>
<path d="M215.088 198.69H263.02V195.848H215.088V198.69Z" fill="#DBDBDB"/>
<path d="M215.087 205.861H285.314V203.019H215.087V205.861Z" fill="#DBDBDB"/>
<path d="M215.087 213.035H285.314V210.194H215.087V213.035Z" fill="#DBDBDB"/>
<path d="M215.087 220.206H285.314V217.364H215.087V220.206Z" fill="#DBDBDB"/>
<path d="M215.087 227.379H285.314V224.538H215.087V227.379Z" fill="#DBDBDB"/>
<path d="M215.087 234.551H285.314V231.71H215.087V234.551Z" fill="#DBDBDB"/>
<path d="M215.087 241.725H285.314V238.883H215.087V241.725Z" fill="#DBDBDB"/>
<path d="M215.087 248.897H285.314V246.055H215.087V248.897Z" fill="#DBDBDB"/>
<path d="M215.087 256.07H285.314V253.228H215.087V256.07Z" fill="#DBDBDB"/>
<path d="M215.087 263.242H285.314V260.401H215.087V263.242Z" fill="#DBDBDB"/>
<path d="M298.364 218.266V279.889H201.197V218.266C205.371 220.63 209.471 223.11 213.601 225.533C217.716 227.999 221.83 230.465 225.916 232.974C230.468 235.747 235.022 238.563 239.56 241.408C239.604 241.38 239.662 241.35 239.705 241.32C239.661 241.35 239.632 241.393 239.588 241.423C242.988 243.538 246.388 245.669 249.788 247.8C253.173 245.669 256.573 243.524 259.973 241.423C259.929 241.394 259.901 241.35 259.857 241.32C259.901 241.35 259.959 241.379 260.003 241.393C264.541 238.562 269.079 235.745 273.647 232.959C277.732 230.463 281.832 227.983 285.948 225.531C290.091 223.11 294.192 220.63 298.364 218.266Z" fill="#0E70E2"/>
<g opacity="0.2">
<path d="M298.365 218.266C294.44 221.024 290.441 223.665 286.486 226.379C282.503 229.035 278.504 231.691 274.491 234.317C270.303 237.061 266.101 239.774 261.899 242.474C261.768 242.561 261.651 242.649 261.519 242.737C257.798 245.116 254.062 247.494 250.326 249.873L249.772 250.208L249.231 249.873C245.496 247.494 241.774 245.116 238.054 242.723C237.923 242.65 237.791 242.562 237.66 242.475C233.443 239.775 229.24 237.061 225.052 234.304C221.053 231.692 217.056 229.036 213.072 226.38C209.118 223.666 205.12 221.024 201.195 218.267C205.369 220.632 209.469 223.111 213.599 225.534C217.714 228 221.828 230.466 225.914 232.975C230.466 235.748 235.02 238.564 239.558 241.41C239.572 241.41 239.572 241.41 239.587 241.424C242.987 243.539 246.387 245.67 249.787 247.801C253.173 245.67 256.573 243.525 259.973 241.424C259.987 241.395 259.987 241.395 260.002 241.395C264.54 238.564 269.078 235.748 273.646 232.961C277.732 230.466 281.832 227.985 285.947 225.534C290.091 223.11 294.192 220.63 298.365 218.266Z" fill="black"/>
<path d="M239.705 241.322C239.661 241.352 239.632 241.394 239.588 241.424C239.078 241.862 238.567 242.299 238.056 242.723C235.619 244.78 233.124 246.75 230.585 248.662C227.491 251.026 224.324 253.288 221.144 255.535C217.948 257.738 214.738 259.926 211.454 262.028C208.171 264.13 204.859 266.187 201.43 268.07C204.377 265.487 207.441 263.08 210.535 260.73C213.644 258.365 216.81 256.104 219.977 253.857C223.188 251.639 226.397 249.45 229.68 247.349C232.292 245.67 234.948 244.022 237.662 242.475C238.29 242.111 238.917 241.76 239.559 241.41C239.603 241.38 239.661 241.35 239.705 241.322Z" fill="black"/>
<path d="M298.132 268.069C294.702 266.187 291.376 264.129 288.107 262.027C284.824 259.926 281.613 257.737 278.403 255.534C275.223 253.286 272.056 251.024 268.962 248.661C266.437 246.749 263.942 244.795 261.52 242.736C260.995 242.298 260.485 241.861 259.974 241.423C259.93 241.395 259.901 241.351 259.857 241.321C259.901 241.351 259.96 241.379 260.004 241.393C260.645 241.758 261.273 242.109 261.9 242.473C264.614 244.02 267.256 245.668 269.882 247.347C273.165 249.448 276.375 251.637 279.571 253.855C282.752 256.103 285.919 258.364 289.013 260.728C292.12 263.079 295.184 265.486 298.132 268.069Z" fill="black"/>
</g>
<path d="M291.255 306.321H208.801V323.792H291.255V306.321Z" fill="#0E70E2"/>
<path d="M228.436 313.256C228.373 313.186 228.28 313.112 228.161 313.033C228.04 312.954 227.898 312.879 227.737 312.809C227.575 312.739 227.398 312.683 227.204 312.636C227.011 312.592 226.812 312.57 226.609 312.57C226.159 312.57 225.827 312.652 225.613 312.817C225.4 312.983 225.294 313.211 225.294 313.503C225.294 313.668 225.328 313.803 225.394 313.908C225.461 314.012 225.565 314.104 225.704 314.183C225.843 314.262 226.018 314.333 226.228 314.393C226.437 314.454 226.681 314.518 226.96 314.589C227.303 314.671 227.613 314.762 227.888 314.864C228.165 314.966 228.398 315.09 228.588 315.236C228.779 315.381 228.927 315.561 229.031 315.774C229.136 315.987 229.188 316.246 229.188 316.549C229.188 316.892 229.123 317.187 228.993 317.435C228.863 317.683 228.686 317.884 228.461 318.04C228.236 318.196 227.974 318.31 227.675 318.382C227.377 318.455 227.056 318.492 226.712 318.492C226.198 318.492 225.702 318.415 225.222 318.26C224.743 318.104 224.309 317.878 223.922 317.579L224.408 316.663C224.49 316.747 224.609 316.838 224.765 316.94C224.921 317.041 225.102 317.135 225.308 317.221C225.515 317.305 225.737 317.379 225.979 317.44C226.219 317.5 226.471 317.53 226.731 317.53C227.15 317.53 227.474 317.458 227.702 317.311C227.93 317.165 228.044 316.948 228.044 316.662C228.044 316.491 228.003 316.348 227.917 316.235C227.831 316.121 227.709 316.021 227.549 315.935C227.391 315.849 227.197 315.771 226.969 315.702C226.741 315.631 226.48 315.559 226.188 315.483C225.852 315.393 225.559 315.3 225.308 315.202C225.056 315.103 224.849 314.984 224.685 314.844C224.521 314.705 224.394 314.541 224.309 314.354C224.223 314.167 224.18 313.94 224.18 313.673C224.18 313.343 224.244 313.05 224.371 312.792C224.497 312.535 224.671 312.321 224.891 312.145C225.11 311.97 225.368 311.839 225.666 311.749C225.965 311.661 226.29 311.617 226.638 311.617C227.096 311.617 227.517 311.691 227.904 311.836C228.292 311.983 228.631 312.162 228.924 312.379L228.436 313.256Z" fill="white"/>
<path d="M233.074 317.515C233.43 317.515 233.725 317.444 233.959 317.304C234.194 317.165 234.382 316.981 234.526 316.756C234.669 316.531 234.77 316.274 234.831 315.985C234.891 315.696 234.921 315.399 234.921 315.095V311.666H235.997V315.095C235.997 315.559 235.943 315.995 235.835 316.404C235.727 316.814 235.556 317.173 235.32 317.48C235.085 317.789 234.782 318.031 234.41 318.209C234.038 318.386 233.593 318.475 233.072 318.475C232.533 318.475 232.077 318.381 231.706 318.194C231.336 318.008 231.036 317.756 230.806 317.442C230.578 317.128 230.413 316.768 230.311 316.361C230.209 315.955 230.158 315.534 230.158 315.095V311.666H231.225V315.095C231.225 315.405 231.255 315.705 231.315 315.995C231.375 316.284 231.477 316.541 231.62 316.765C231.763 316.991 231.952 317.172 232.191 317.308C232.431 317.446 232.725 317.515 233.074 317.515Z" fill="white"/>
<path d="M242.731 316.685C242.731 316.958 242.675 317.203 242.565 317.418C242.453 317.634 242.304 317.816 242.117 317.966C241.93 318.115 241.709 318.229 241.455 318.309C241.2 318.387 240.931 318.428 240.645 318.428H237.416V311.666H240.902C241.136 311.666 241.349 311.716 241.54 311.818C241.73 311.92 241.892 312.051 242.025 312.214C242.159 312.376 242.261 312.559 242.335 312.766C242.408 312.972 242.444 313.18 242.444 313.389C242.444 313.718 242.361 314.029 242.192 314.317C242.024 314.606 241.784 314.821 241.473 314.96C241.86 315.074 242.167 315.283 242.391 315.584C242.618 315.886 242.731 316.254 242.731 316.685ZM238.484 312.59V314.58H240.446C240.579 314.58 240.702 314.556 240.814 314.505C240.924 314.454 241.023 314.385 241.109 314.3C241.193 314.215 241.261 314.111 241.309 313.991C241.356 313.87 241.38 313.736 241.38 313.59C241.38 313.298 241.298 313.059 241.133 312.872C240.967 312.685 240.759 312.591 240.504 312.591H238.484V312.59ZM241.636 316.485C241.636 316.346 241.612 316.212 241.565 316.085C241.517 315.959 241.453 315.847 241.374 315.752C241.296 315.656 241.198 315.581 241.084 315.523C240.97 315.466 240.846 315.439 240.712 315.439H238.484V317.504H240.645C240.784 317.504 240.915 317.478 241.035 317.424C241.156 317.369 241.26 317.298 241.349 317.204C241.439 317.112 241.509 317.004 241.56 316.881C241.61 316.756 241.636 316.624 241.636 316.485Z" fill="white"/>
<path d="M247.844 313.256C247.781 313.186 247.688 313.112 247.569 313.033C247.448 312.954 247.306 312.879 247.145 312.809C246.984 312.739 246.806 312.683 246.612 312.636C246.419 312.592 246.22 312.57 246.017 312.57C245.567 312.57 245.235 312.652 245.022 312.817C244.809 312.983 244.703 313.211 244.703 313.503C244.703 313.668 244.736 313.803 244.803 313.908C244.869 314.012 244.973 314.104 245.112 314.183C245.251 314.262 245.426 314.333 245.636 314.393C245.845 314.454 246.09 314.518 246.368 314.589C246.711 314.671 247.022 314.762 247.297 314.864C247.573 314.966 247.806 315.09 247.997 315.236C248.187 315.381 248.335 315.561 248.439 315.774C248.544 315.987 248.597 316.246 248.597 316.549C248.597 316.892 248.531 317.187 248.401 317.435C248.272 317.683 248.094 317.884 247.869 318.04C247.643 318.196 247.382 318.31 247.084 318.382C246.785 318.455 246.465 318.492 246.12 318.492C245.606 318.492 245.11 318.415 244.63 318.26C244.151 318.104 243.717 317.878 243.33 317.579L243.816 316.663C243.898 316.747 244.017 316.838 244.173 316.94C244.329 317.041 244.51 317.135 244.716 317.221C244.923 317.305 245.146 317.379 245.387 317.44C245.628 317.5 245.879 317.53 246.14 317.53C246.559 317.53 246.882 317.458 247.11 317.311C247.338 317.165 247.453 316.948 247.453 316.662C247.453 316.491 247.411 316.348 247.325 316.235C247.24 316.121 247.117 316.021 246.957 315.935C246.799 315.849 246.605 315.771 246.378 315.702C246.149 315.631 245.888 315.559 245.597 315.483C245.26 315.393 244.967 315.3 244.716 315.202C244.465 315.103 244.257 314.984 244.093 314.844C243.928 314.705 243.803 314.541 243.717 314.354C243.631 314.167 243.588 313.94 243.588 313.673C243.588 313.343 243.653 313.05 243.779 312.792C243.905 312.535 244.079 312.321 244.299 312.145C244.518 311.97 244.776 311.839 245.074 311.749C245.373 311.661 245.697 311.617 246.046 311.617C246.503 311.617 246.924 311.691 247.311 311.836C247.699 311.983 248.038 312.162 248.33 312.379L247.844 313.256Z" fill="white"/>
<path d="M249.234 314.999C249.234 314.592 249.308 314.187 249.455 313.783C249.6 313.381 249.815 313.018 250.097 312.699C250.38 312.377 250.724 312.119 251.131 311.923C251.537 311.726 251.997 311.627 252.512 311.627C253.127 311.627 253.655 311.763 254.093 312.037C254.529 312.311 254.86 312.666 255.083 313.105L254.245 313.667C254.15 313.463 254.034 313.292 253.902 313.152C253.769 313.013 253.624 312.901 253.464 312.819C253.305 312.737 253.14 312.677 252.969 312.643C252.796 312.608 252.632 312.591 252.474 312.591C252.118 312.591 251.806 312.662 251.54 312.806C251.274 312.949 251.05 313.137 250.868 313.371C250.688 313.606 250.55 313.87 250.458 314.162C250.366 314.454 250.32 314.746 250.32 315.038C250.32 315.368 250.375 315.682 250.483 315.981C250.59 316.279 250.741 316.543 250.936 316.771C251.128 316.999 251.358 317.182 251.626 317.319C251.893 317.455 252.184 317.524 252.501 317.524C252.666 317.524 252.835 317.503 253.012 317.462C253.185 317.42 253.355 317.353 253.516 317.261C253.678 317.169 253.828 317.053 253.964 316.913C254.1 316.774 254.213 316.606 254.302 316.408L255.188 316.913C255.079 317.168 254.927 317.39 254.731 317.586C254.533 317.78 254.312 317.943 254.063 318.076C253.815 318.209 253.553 318.311 253.277 318.381C253.001 318.451 252.73 318.486 252.463 318.486C251.987 318.486 251.551 318.384 251.157 318.181C250.764 317.977 250.424 317.712 250.139 317.386C249.853 317.059 249.631 316.687 249.471 316.271C249.315 315.855 249.234 315.431 249.234 314.999Z" fill="white"/>
<path d="M256.178 318.428V311.666H259.122C259.426 311.666 259.706 311.729 259.965 311.856C260.222 311.983 260.442 312.149 260.626 312.356C260.81 312.562 260.955 312.797 261.06 313.061C261.165 313.324 261.217 313.592 261.217 313.866C261.217 314.095 261.186 314.314 261.122 314.523C261.057 314.734 260.969 314.927 260.855 315.104C260.74 315.281 260.6 315.435 260.435 315.566C260.269 315.696 260.088 315.793 259.892 315.856L261.482 318.428H260.273L258.806 316.075H257.246V318.428H256.178ZM257.246 315.134H259.111C259.265 315.134 259.401 315.1 259.526 315.034C259.649 314.966 259.756 314.874 259.845 314.758C259.935 314.64 260.005 314.505 260.056 314.353C260.106 314.2 260.132 314.037 260.132 313.867C260.132 313.696 260.103 313.534 260.042 313.381C259.981 313.229 259.903 313.096 259.804 312.981C259.706 312.867 259.591 312.777 259.462 312.71C259.332 312.642 259.196 312.61 259.056 312.61H257.247V315.134H257.246Z" fill="white"/>
<path d="M262.475 318.428V311.666H263.541V318.428H262.475Z" fill="white"/>
<path d="M270.378 316.685C270.378 316.958 270.323 317.203 270.211 317.418C270.1 317.634 269.95 317.816 269.764 317.966C269.577 318.115 269.355 318.229 269.102 318.309C268.847 318.387 268.578 318.428 268.291 318.428H265.062V311.666H268.549C268.784 311.666 268.997 311.716 269.186 311.818C269.377 311.92 269.54 312.051 269.672 312.214C269.805 312.376 269.909 312.559 269.983 312.766C270.054 312.972 270.092 313.18 270.092 313.389C270.092 313.718 270.008 314.029 269.84 314.317C269.671 314.606 269.431 314.821 269.121 314.96C269.508 315.074 269.815 315.283 270.04 315.584C270.265 315.886 270.378 316.254 270.378 316.685ZM266.132 312.59V314.58H268.092C268.226 314.58 268.348 314.556 268.46 314.505C268.571 314.454 268.67 314.385 268.755 314.3C268.84 314.215 268.908 314.111 268.955 313.991C269.003 313.87 269.027 313.736 269.027 313.59C269.027 313.298 268.945 313.059 268.779 312.872C268.614 312.685 268.405 312.591 268.152 312.591H266.132V312.59ZM269.283 316.485C269.283 316.346 269.259 316.212 269.211 316.085C269.164 315.959 269.099 315.847 269.021 315.752C268.942 315.656 268.845 315.581 268.73 315.523C268.616 315.466 268.492 315.439 268.36 315.439H266.132V317.504H268.292C268.433 317.504 268.564 317.478 268.683 317.424C268.804 317.369 268.908 317.298 268.998 317.204C269.086 317.112 269.156 317.004 269.208 316.881C269.259 316.756 269.283 316.624 269.283 316.485Z" fill="white"/>
<path d="M276.129 317.485V318.428H271.49V311.666H276.043V312.609H272.557V314.531H275.576V315.417H272.557V317.484H276.129V317.485Z" fill="white"/>
<path d="M182.254 289.946L199.198 289.801L216.142 289.748L250.031 289.648L283.92 289.747L300.864 289.8L317.808 289.946L300.864 290.091L283.92 290.144L250.031 290.242L216.142 290.142L199.198 290.09L182.254 289.946Z" fill="#263238"/>
<path d="M205.814 295.171C213.185 295.062 220.553 294.983 227.923 294.944L250.031 294.874L272.14 294.941C279.509 294.982 286.879 295.06 294.249 295.17C286.879 295.279 279.51 295.359 272.14 295.398L250.031 295.468L227.922 295.398C220.553 295.359 213.183 295.279 205.814 295.171Z" fill="#263238"/>
</svg>
