<svg width="187" height="38" viewBox="0 0 187 38" fill="none" xmlns="http://www.w3.org/2000/svg">
<path d="M0 10C0 4.47715 4.47715 0 10 0H28C33.5228 0 38 4.47715 38 10V28C38 33.5228 33.5228 38 28 38H10C4.47715 38 0 33.5228 0 28V10Z" fill="url(#paint0_linear_45115_20935)"/>
<mask id="mask0_45115_20935" style="mask-type:luminance" maskUnits="userSpaceOnUse" x="11" y="9" width="17" height="21">
<path d="M17.6594 26.3469H24.2778V29.7529H17.6389L14.3768 26.3469L11 23.0566V12.9859H14.3768V22.9409C14.3756 25.1377 15.275 26.3469 17.6594 26.3469ZM27.6546 16.2762L24.2814 12.9895V12.9846H24.2766L21.0157 9.57983H14.3768V12.9859H21.0459C23.3434 13.0053 24.2428 14.1634 24.279 16.2579V26.3469H27.6558V22.9726V16.2762H27.6546Z" fill="white"/>
</mask>
<g mask="url(#mask0_45115_20935)">
<path d="M31.9609 31.9461V6.08862L10.185 6.08862V31.9461H31.9609Z" fill="white"/>
</g>
<path d="M49.54 27.2993V14.1393L52.76 10.9193H62.84L66.06 14.1393V27.2993L62.84 30.5193H52.76L49.54 27.2993ZM60.824 27.2713L62.252 25.8433V15.5953L60.824 14.1673H54.776L53.348 15.5953V25.8433L54.776 27.2713H60.824ZM70.5455 19.6833H68.0255V16.5753H70.5455V13.8033L73.3735 10.9753H78.5255V14.0273H74.9695L74.1855 14.8113V16.5753H78.5255V19.6833H74.2415V30.5193H70.5455V19.6833ZM81.7564 19.6833H79.2364V16.5753H81.7564V13.8033L84.5844 10.9753H89.7364V14.0273H86.1804L85.3964 14.8113V16.5753H89.7364V19.6833H85.4524V30.5193H81.7564V19.6833ZM90.8805 27.6633V19.4873L93.7645 16.5753H101.632L104.544 19.4873V24.7793H94.5765V26.5713L95.4725 27.4953H100.036L100.876 26.6273V25.8993H104.516V27.7193L101.744 30.5193H93.7085L90.8805 27.6633ZM100.848 22.2033V20.5793L99.8965 19.5993H95.5285L94.5765 20.5793V22.2033H100.848ZM107.485 16.5753H110.901V18.8993L113.141 16.5753H117.117V19.7113H113.897L111.181 22.5113V30.5193H107.485V16.5753ZM119.082 10.9193H122.498L131.234 24.2193H131.29V10.9193H134.958V30.5193H131.542L122.806 17.2473H122.75V30.5193H119.082V10.9193ZM138.185 27.6073V19.4873L141.069 16.5753H149.077L151.961 19.4873V27.6073L149.077 30.5193H141.069L138.185 27.6073ZM147.285 27.4393L148.265 26.4593V20.6353L147.285 19.6553H142.861L141.881 20.6353V26.4593L142.861 27.4393H147.285ZM153.642 16.5753H157.394L158.99 25.3673H159.102L161.622 16.5753H164.982L167.306 25.3673H167.418L169.182 16.5753H172.934L169.322 30.5193H165.878L163.302 21.1113H163.19L160.446 30.5193H157.002L153.642 16.5753Z" fill="#F4F7FE"/>
<defs>
<linearGradient id="paint0_linear_45115_20935" x1="0" y1="0" x2="38" y2="38" gradientUnits="userSpaceOnUse">
<stop stop-color="#5E9FEC"/>
<stop offset="1" stop-color="#0E70E2"/>
</linearGradient>
</defs>
</svg>
